LXGWWenKai-Regular.ufo
<glyph name="exclam" format="2">
  <advance height="1000" width="350"/>
  <unicode hex="0021"/>
  <outline>
    <contour>
      <point x="195" y="101"/>
      <point x="228" y="60"/>
      <point x="228" y="17"/>
      <point x="203" y="-9"/>
      <point x="155" y="-9"/>
      <point x="123" y="29"/>
      <point x="123" y="72"/>
      <point x="149" y="101"/>
    </contour>
    <contour>
      <point x="137" y="695" type="line"/>
      <point x="137" y="712"/>
      <point x="181" y="712"/>
      <point x="222" y="694"/>
      <point x="222" y="681" type="qcurve"/>
      <point x="222" y="680" type="line"/>
      <point x="221" y="664"/>
      <point x="217" y="631"/>
      <point x="216" y="609" type="qcurve"/>
      <point x="204" y="223" type="line"/>
      <point x="204" y="173" type="line"/>
      <point x="204" y="165"/>
      <point x="175" y="165"/>
      <point x="146" y="177"/>
      <point x="146" y="187" type="qcurve"/>
      <point x="146" y="188" type="line"/>
      <point x="148" y="204"/>
      <point x="148" y="227" type="qcurve"/>
      <point x="142" y="614" type="line"/>
      <point x="142" y="663"/>
      <point x="137" y="693" type="qcurve"/>
    </contour>
  </outline>
</glyph>
<glyph name="quotedbl" format="2">
  <advance height="1000" width="350"/>
  <unicode hex="0022"/>
  <outline>
    <contour>
      <point x="142" y="492" type="line"/>
      <point x="142" y="476"/>
      <point x="111" y="476" type="qcurve"/>
      <point x="100" y="476"/>
      <point x="80" y="484"/>
      <point x="80" y="492" type="qcurve"/>
      <point x="74" y="703" type="line"/>
      <point x="74" y="714"/>
      <point x="98" y="725"/>
      <point x="125" y="725"/>
      <point x="148" y="714"/>
      <point x="148" y="703" type="qcurve"/>
    </contour>
    <contour>
      <point x="270" y="492" type="line"/>
      <point x="270" y="476"/>
      <point x="239" y="476" type="qcurve"/>
      <point x="228" y="476"/>
      <point x="208" y="484"/>
      <point x="208" y="492" type="qcurve"/>
      <point x="202" y="703" type="line"/>
      <point x="202" y="714"/>
      <point x="226" y="725"/>
      <point x="253" y="725"/>
      <point x="276" y="714"/>
      <point x="276" y="703" type="qcurve"/>
    </contour>
  </outline>
</glyph>
<glyph name="numbersign" format="2">
  <advance height="1000" width="600"/>
  <unicode hex="0023"/>
  <outline>
    <contour>
      <point x="394" y="465" type="line"/>
      <point x="244" y="465" type="line"/>
      <point x="238" y="416"/>
      <point x="225" y="326"/>
      <point x="221" y="297" type="qcurve"/>
      <point x="217" y="268" type="line"/>
      <point x="367" y="268" type="line"/>
    </contour>
    <contour>
      <point x="327" y="7" type="qcurve"/>
      <point x="327" y="9" type="line"/>
      <point x="330" y="22"/>
      <point x="339" y="57"/>
      <point x="341" y="74" type="qcurve"/>
      <point x="359" y="210" type="line"/>
      <point x="210" y="210" type="line"/>
      <point x="191" y="72" type="line"/>
      <point x="189" y="54"/>
      <point x="187" y="24"/>
      <point x="186" y="13" type="qcurve"/>
      <point x="183" y="-7"/>
      <point x="115" y="-7"/>
      <point x="115" y="7" type="qcurve"/>
      <point x="115" y="9" type="line"/>
      <point x="118" y="22"/>
      <point x="126" y="55"/>
      <point x="129" y="74" type="qcurve"/>
      <point x="147" y="210" type="line"/>
      <point x="134" y="210" type="line"/>
      <point x="76" y="210"/>
      <point x="58" y="207" type="qcurve"/>
      <point x="57" y="207" type="line"/>
      <point x="48" y="207"/>
      <point x="37" y="233"/>
      <point x="37" y="246" type="qcurve"/>
      <point x="37" y="270"/>
      <point x="53" y="270" type="qcurve"/>
      <point x="83" y="268"/>
      <point x="135" y="268" type="qcurve"/>
      <point x="155" y="268" type="line"/>
      <point x="182" y="465" type="line"/>
      <point x="160" y="465" type="line"/>
      <point x="104" y="465"/>
      <point x="84" y="462" type="qcurve"/>
      <point x="83" y="462" type="line"/>
      <point x="75" y="462"/>
      <point x="63" y="488"/>
      <point x="63" y="501" type="qcurve"/>
      <point x="63" y="525"/>
      <point x="79" y="525" type="qcurve"/>
      <point x="109" y="523"/>
      <point x="161" y="523" type="qcurve"/>
      <point x="190" y="523" type="line"/>
      <point x="209" y="662" type="line"/>
      <point x="211" y="670"/>
      <point x="213" y="705" type="qcurve"/>
      <point x="213" y="717"/>
      <point x="252" y="717"/>
      <point x="280" y="706"/>
      <point x="280" y="696" type="qcurve"/>
      <point x="280" y="693" type="line"/>
      <point x="278" y="686"/>
      <point x="272" y="666"/>
      <point x="271" y="660" type="qcurve"/>
      <point x="266" y="620" type="line"/>
      <point x="260" y="579"/>
      <point x="252" y="523" type="qcurve"/>
      <point x="402" y="523" type="line"/>
      <point x="421" y="662" type="line"/>
      <point x="423" y="670"/>
      <point x="425" y="705" type="qcurve"/>
      <point x="425" y="717"/>
      <point x="464" y="717"/>
      <point x="492" y="706"/>
      <point x="492" y="696" type="qcurve"/>
      <point x="492" y="693" type="line"/>
      <point x="485" y="672"/>
      <point x="483" y="660" type="qcurve"/>
      <point x="464" y="523" type="line"/>
      <point x="481" y="523" type="line"/>
      <point x="510" y="523"/>
      <point x="552" y="526" type="qcurve"/>
      <point x="553" y="526" type="line"/>
      <point x="563" y="526"/>
      <point x="575" y="502"/>
      <point x="575" y="490" type="qcurve"/>
      <point x="575" y="464"/>
      <point x="558" y="464" type="qcurve"/>
      <point x="536" y="465"/>
      <point x="514" y="465" type="qcurve"/>
      <point x="456" y="465" type="line"/>
      <point x="430" y="268" type="line"/>
      <point x="455" y="268" type="line"/>
      <point x="484" y="268"/>
      <point x="526" y="271" type="qcurve"/>
      <point x="527" y="271" type="line"/>
      <point x="537" y="271"/>
      <point x="549" y="247"/>
      <point x="549" y="236" type="qcurve"/>
      <point x="549" y="209"/>
      <point x="532" y="209" type="qcurve"/>
      <point x="510" y="210"/>
      <point x="494" y="210" type="qcurve"/>
      <point x="422" y="210" type="line"/>
      <point x="403" y="72" type="line"/>
      <point x="401" y="53"/>
      <point x="399" y="24"/>
      <point x="398" y="13" type="qcurve"/>
      <point x="395" y="-7"/>
      <point x="327" y="-7"/>
    </contour>
  </outline>
</glyph>
<glyph name="dollar" format="2">
  <advance height="1000" width="600"/>
  <unicode hex="0024"/>
  <outline>
    <contour>
      <point x="336" y="341" type="qcurve"/>
      <point x="336" y="49" type="line"/>
      <point x="402" y="59"/>
      <point x="480" y="133"/>
      <point x="480" y="247"/>
      <point x="421" y="317"/>
    </contour>
    <contour>
      <point x="270" y="646" type="line"/>
      <point x="209" y="636"/>
      <point x="140" y="565"/>
      <point x="140" y="524" type="qcurve"/>
      <point x="140" y="498"/>
      <point x="160" y="464"/>
      <point x="210" y="440"/>
      <point x="254" y="428" type="qcurve"/>
      <point x="270" y="424" type="line"/>
    </contour>
    <contour>
      <point x="268" y="-98" type="qcurve"/>
      <point x="270" y="-15" type="line"/>
      <point x="132" y="-9"/>
      <point x="41" y="92" type="qcurve"/>
      <point x="35" y="98"/>
      <point x="35" y="126"/>
      <point x="61" y="159"/>
      <point x="80" y="159"/>
      <point x="84" y="152" type="qcurve"/>
      <point x="126" y="88"/>
      <point x="196" y="63" type="qcurve"/>
      <point x="242" y="47"/>
      <point x="270" y="47" type="qcurve"/>
      <point x="270" y="359" type="line"/>
      <point x="227" y="370" type="line"/>
      <point x="153" y="390"/>
      <point x="68" y="460"/>
      <point x="68" y="526" type="qcurve"/>
      <point x="68" y="570"/>
      <point x="119" y="648"/>
      <point x="210" y="702"/>
      <point x="269" y="709" type="qcurve"/>
      <point x="267" y="739"/>
      <point x="267" y="761" type="qcurve"/>
      <point x="267" y="770"/>
      <point x="304" y="770"/>
      <point x="338" y="758"/>
      <point x="338" y="747" type="qcurve"/>
      <point x="337" y="710" type="line"/>
      <point x="399" y="702"/>
      <point x="478" y="664"/>
      <point x="515" y="631"/>
      <point x="515" y="595"/>
      <point x="501" y="562"/>
      <point x="490" y="562" type="qcurve"/>
      <point x="484" y="562"/>
      <point x="466" y="580" type="qcurve"/>
      <point x="427" y="631"/>
      <point x="336" y="647" type="qcurve"/>
      <point x="336" y="407" type="line"/>
      <point x="361" y="400" type="line"/>
      <point x="551" y="351"/>
      <point x="551" y="192" type="qcurve"/>
      <point x="551" y="140"/>
      <point x="501" y="52"/>
      <point x="405" y="-6"/>
      <point x="336" y="-14" type="qcurve"/>
      <point x="339" y="-41"/>
      <point x="339" y="-114" type="qcurve"/>
      <point x="339" y="-123"/>
      <point x="303" y="-123"/>
      <point x="268" y="-109"/>
    </contour>
  </outline>
</glyph>
<glyph name="percent" format="2">
  <advance height="1000" width="800"/>
  <unicode hex="0025"/>
  <outline>
    <contour>
      <point x="596" y="37" type="qcurve"/>
      <point x="685" y="37"/>
      <point x="685" y="162" type="qcurve"/>
      <point x="685" y="209"/>
      <point x="643" y="281"/>
      <point x="564" y="281"/>
      <point x="506" y="222"/>
      <point x="506" y="87"/>
      <point x="543" y="54" type="qcurve"/>
      <point x="563" y="37"/>
    </contour>
    <contour>
      <point x="521" y="305" type="qcurve"/>
      <point x="552" y="336"/>
      <point x="649" y="336"/>
      <point x="681" y="312" type="qcurve"/>
      <point x="746" y="263"/>
      <point x="746" y="158" type="qcurve"/>
      <point x="746" y="111"/>
      <point x="730" y="70" type="qcurve"/>
      <point x="695" y="-18"/>
      <point x="598" y="-18" type="qcurve"/>
      <point x="519" y="-18"/>
      <point x="444" y="80"/>
      <point x="444" y="158" type="qcurve"/>
      <point x="444" y="199"/>
      <point x="470" y="276"/>
      <point x="495" y="301" type="qcurve"/>
      <point x="502" y="309"/>
      <point x="517" y="309"/>
    </contour>
    <contour>
      <point x="116" y="547" type="qcurve"/>
      <point x="116" y="426"/>
      <point x="206" y="426" type="qcurve"/>
      <point x="251" y="426"/>
      <point x="295" y="493"/>
      <point x="295" y="598"/>
      <point x="253" y="670"/>
      <point x="174" y="670"/>
      <point x="116" y="609"/>
    </contour>
    <contour>
      <point x="131" y="694" type="qcurve"/>
      <point x="162" y="725"/>
      <point x="259" y="725"/>
      <point x="291" y="701" type="qcurve"/>
      <point x="356" y="652"/>
      <point x="356" y="547" type="qcurve"/>
      <point x="356" y="500"/>
      <point x="340" y="460" type="qcurve"/>
      <point x="305" y="371"/>
      <point x="208" y="371" type="qcurve"/>
      <point x="129" y="371"/>
      <point x="54" y="469"/>
      <point x="54" y="547" type="qcurve"/>
      <point x="54" y="588"/>
      <point x="80" y="665"/>
      <point x="105" y="690" type="qcurve"/>
      <point x="112" y="698"/>
      <point x="127" y="698"/>
    </contour>
    <contour>
      <point x="550" y="651" type="line"/>
      <point x="581" y="700"/>
      <point x="592" y="724" type="qcurve"/>
      <point x="596" y="733"/>
      <point x="615" y="733"/>
      <point x="626" y="724" type="qcurve"/>
      <point x="651" y="700"/>
      <point x="651" y="681" type="qcurve"/>
      <point x="651" y="679"/>
      <point x="649" y="675" type="qcurve"/>
      <point x="623" y="643"/>
      <point x="603" y="612" type="qcurve"/>
      <point x="229" y="30" type="line"/>
      <point x="210" y="-1"/>
      <point x="192" y="-33" type="qcurve"/>
      <point x="188" y="-40"/>
      <point x="169" y="-40"/>
      <point x="138" y="-6"/>
      <point x="138" y="17"/>
      <point x="162" y="43"/>
      <point x="180" y="71" type="qcurve"/>
    </contour>
  </outline>
</glyph>
<glyph name="ampersand" format="2">
  <advance height="1000" width="700"/>
  <unicode hex="0026"/>
  <outline>
    <contour>
      <point x="446" y="122" type="qcurve"/>
      <point x="370" y="202"/>
      <point x="245" y="351" type="qcurve"/>
      <point x="192" y="315"/>
      <point x="118" y="220"/>
      <point x="118" y="104"/>
      <point x="192" y="39"/>
      <point x="263" y="39" type="qcurve"/>
      <point x="306" y="39"/>
      <point x="403" y="80"/>
    </contour>
    <contour>
      <point x="375" y="588" type="qcurve"/>
      <point x="375" y="660"/>
      <point x="314" y="660" type="qcurve"/>
      <point x="256" y="660"/>
      <point x="226" y="609" type="qcurve"/>
      <point x="212" y="585"/>
      <point x="212" y="556" type="qcurve"/>
      <point x="212" y="493"/>
      <point x="257" y="435" type="qcurve"/>
      <point x="310" y="469"/>
      <point x="375" y="552"/>
    </contour>
    <contour>
      <point x="442" y="591" type="qcurve"/>
      <point x="442" y="491"/>
      <point x="295" y="387" type="qcurve"/>
      <point x="401" y="257"/>
      <point x="484" y="171" type="qcurve"/>
      <point x="541" y="249"/>
      <point x="570" y="364" type="qcurve"/>
      <point x="575" y="382"/>
      <point x="582" y="404"/>
      <point x="591" y="404" type="qcurve"/>
      <point x="596" y="404"/>
      <point x="620" y="393"/>
      <point x="641" y="373"/>
      <point x="641" y="342"/>
      <point x="571" y="187"/>
      <point x="528" y="126" type="qcurve"/>
      <point x="611" y="40"/>
      <point x="659" y="23" type="qcurve"/>
      <point x="704" y="4"/>
      <point x="704" y="-6" type="qcurve"/>
      <point x="704" y="-14"/>
      <point x="629" y="-14"/>
      <point x="570" y="5"/>
      <point x="521" y="47"/>
      <point x="488" y="79" type="qcurve"/>
      <point x="441" y="27"/>
      <point x="320" y="-17"/>
      <point x="263" y="-17" type="qcurve"/>
      <point x="150" y="-17"/>
      <point x="52" y="76"/>
      <point x="52" y="232"/>
      <point x="138" y="348"/>
      <point x="208" y="398" type="qcurve"/>
      <point x="146" y="481"/>
      <point x="146" y="558" type="qcurve"/>
      <point x="146" y="603"/>
      <point x="190" y="673"/>
      <point x="263" y="712"/>
      <point x="370" y="712"/>
      <point x="442" y="651"/>
    </contour>
  </outline>
</glyph>
<glyph name="quotesingle" format="2">
  <advance height="1000" width="350"/>
  <unicode hex="0027"/>
  <outline>
    <contour>
      <point x="206" y="492" type="line"/>
      <point x="206" y="476"/>
      <point x="146" y="476"/>
      <point x="144" y="492" type="qcurve"/>
      <point x="138" y="703" type="line"/>
      <point x="138" y="714"/>
      <point x="162" y="725"/>
      <point x="175" y="725" type="qcurve"/>
      <point x="212" y="725"/>
      <point x="212" y="704" type="qcurve"/>
      <point x="212" y="703" type="line"/>
    </contour>
  </outline>
</glyph>
<glyph name="parenleft" format="2">
  <advance height="1000" width="350"/>
  <unicode hex="0028"/>
  <outline>
    <contour>
      <point x="315" y="-140" type="qcurve"/>
      <point x="315" y="-159"/>
      <point x="299" y="-159" type="qcurve"/>
      <point x="291" y="-159"/>
      <point x="268" y="-138" type="qcurve"/>
      <point x="211" y="-85"/>
      <point x="162" y="16" type="qcurve"/>
      <point x="100" y="141"/>
      <point x="100" y="436"/>
      <point x="212" y="703"/>
      <point x="270" y="766" type="qcurve"/>
      <point x="294" y="791"/>
      <point x="304" y="791" type="qcurve"/>
      <point x="323" y="791"/>
      <point x="323" y="774" type="qcurve"/>
      <point x="323" y="766"/>
      <point x="318" y="761" type="qcurve"/>
      <point x="253" y="685"/>
      <point x="175" y="402"/>
      <point x="175" y="181"/>
      <point x="247" y="-61"/>
      <point x="307" y="-121" type="qcurve"/>
      <point x="315" y="-129"/>
    </contour>
  </outline>
</glyph>
<glyph name="parenright" format="2">
  <advance height="1000" width="350"/>
  <unicode hex="0029"/>
  <outline>
    <contour>
      <point x="81" y="-138" type="qcurve"/>
      <point x="58" y="-159"/>
      <point x="50" y="-159" type="qcurve"/>
      <point x="34" y="-159"/>
      <point x="34" y="-140" type="qcurve"/>
      <point x="34" y="-129"/>
      <point x="42" y="-121" type="qcurve"/>
      <point x="102" y="-61"/>
      <point x="174" y="181"/>
      <point x="174" y="402"/>
      <point x="96" y="685"/>
      <point x="31" y="761" type="qcurve"/>
      <point x="26" y="766"/>
      <point x="26" y="774" type="qcurve"/>
      <point x="26" y="791"/>
      <point x="45" y="791" type="qcurve"/>
      <point x="56" y="791"/>
      <point x="80" y="766" type="qcurve"/>
      <point x="137" y="703"/>
      <point x="188" y="584" type="qcurve"/>
      <point x="249" y="436"/>
      <point x="249" y="142"/>
      <point x="138" y="-86"/>
    </contour>
  </outline>
</glyph>
<glyph name="asterisk" format="2">
  <advance height="1000" width="500"/>
  <unicode hex="002A"/>
  <outline>
    <contour>
      <point x="282" y="690" type="qcurve"/>
      <point x="281" y="676" type="line"/>
      <point x="279" y="654"/>
      <point x="274" y="604"/>
      <point x="272" y="578" type="qcurve"/>
      <point x="340" y="609"/>
      <point x="378" y="633"/>
      <point x="402" y="633"/>
      <point x="419" y="600"/>
      <point x="419" y="584" type="qcurve"/>
      <point x="419" y="564"/>
      <point x="389" y="558" type="qcurve"/>
      <point x="287" y="537" type="line"/>
      <point x="331" y="480"/>
      <point x="345" y="466" type="qcurve"/>
      <point x="364" y="446" type="line"/>
      <point x="370" y="441"/>
      <point x="370" y="424"/>
      <point x="341" y="393"/>
      <point x="310" y="393"/>
      <point x="299" y="410"/>
      <point x="289" y="434"/>
      <point x="263" y="483"/>
      <point x="251" y="508" type="qcurve"/>
      <point x="220" y="456"/>
      <point x="202" y="408"/>
      <point x="191" y="391"/>
      <point x="164" y="391"/>
      <point x="131" y="417"/>
      <point x="131" y="439"/>
      <point x="142" y="452" type="qcurve"/>
      <point x="186" y="503"/>
      <point x="209" y="533" type="qcurve"/>
      <point x="157" y="539"/>
      <point x="107" y="542"/>
      <point x="84" y="548"/>
      <point x="84" y="582"/>
      <point x="97" y="617"/>
      <point x="112" y="617" type="qcurve"/>
      <point x="117" y="617"/>
      <point x="189" y="587"/>
      <point x="225" y="575" type="qcurve"/>
      <point x="208" y="691" type="line"/>
      <point x="208" y="714"/>
      <point x="246" y="714" type="qcurve"/>
      <point x="249" y="714" type="line"/>
      <point x="270" y="714"/>
      <point x="282" y="700"/>
    </contour>
  </outline>
</glyph>
<glyph name="plus" format="2">
  <advance height="1000" width="600"/>
  <unicode hex="002B"/>
  <outline>
    <contour>
      <point x="330" y="17" type="line"/>
      <point x="330" y="-3"/>
      <point x="303" y="-3" type="qcurve"/>
      <point x="290" y="-3"/>
      <point x="268" y="10"/>
      <point x="268" y="22" type="qcurve"/>
      <point x="268" y="23" type="line"/>
      <point x="271" y="53"/>
      <point x="271" y="90" type="qcurve"/>
      <point x="271" y="222" type="line"/>
      <point x="148" y="222" type="line"/>
      <point x="94" y="222"/>
      <point x="76" y="219" type="qcurve"/>
      <point x="74" y="219" type="line"/>
      <point x="64" y="219"/>
      <point x="51" y="244"/>
      <point x="51" y="257" type="qcurve"/>
      <point x="51" y="282"/>
      <point x="71" y="282" type="qcurve"/>
      <point x="99" y="280"/>
      <point x="149" y="280" type="qcurve"/>
      <point x="271" y="280" type="line"/>
      <point x="271" y="397" type="line"/>
      <point x="271" y="447"/>
      <point x="269" y="475" type="qcurve"/>
      <point x="269" y="495"/>
      <point x="294" y="495" type="qcurve"/>
      <point x="307" y="495"/>
      <point x="332" y="482"/>
      <point x="332" y="472" type="qcurve"/>
      <point x="332" y="470" type="line"/>
      <point x="329" y="434"/>
      <point x="329" y="398" type="qcurve"/>
      <point x="329" y="280" type="line"/>
      <point x="455" y="280" type="line"/>
      <point x="462" y="280"/>
      <point x="522" y="283" type="qcurve"/>
      <point x="523" y="283" type="line"/>
      <point x="535" y="283"/>
      <point x="548" y="260"/>
      <point x="548" y="247" type="qcurve"/>
      <point x="548" y="221"/>
      <point x="528" y="221" type="qcurve"/>
      <point x="454" y="222" type="line"/>
      <point x="329" y="222" type="line"/>
      <point x="329" y="91" type="line"/>
    </contour>
  </outline>
</glyph>
<glyph name="comma" format="2">
  <advance height="1000" width="350"/>
  <unicode hex="002C"/>
  <outline>
    <contour>
      <point x="114" y="-104" type="qcurve"/>
      <point x="101" y="-104"/>
      <point x="101" y="-90" type="qcurve"/>
      <point x="101" y="-80"/>
      <point x="124" y="-65"/>
      <point x="158" y="-24"/>
      <point x="164" y="-8" type="qcurve"/>
      <point x="149" y="-2"/>
      <point x="143" y="1" type="qcurve"/>
      <point x="117" y="24"/>
      <point x="117" y="75"/>
      <point x="152" y="102"/>
      <point x="197" y="102"/>
      <point x="228" y="64"/>
      <point x="231" y="38" type="qcurve"/>
      <point x="231" y="30" type="line"/>
      <point x="231" y="-14"/>
      <point x="144" y="-104"/>
    </contour>
  </outline>
</glyph>
<glyph name="slash" format="2">
  <advance height="1000" width="350"/>
  <unicode hex="002F"/>
  <outline>
    <contour>
      <point x="253" y="660" type="line"/>
      <point x="268" y="702"/>
      <point x="277" y="738" type="qcurve"/>
      <point x="280" y="751"/>
      <point x="299" y="751"/>
      <point x="310" y="744" type="qcurve"/>
      <point x="335" y="725"/>
      <point x="335" y="709" type="qcurve"/>
      <point x="335" y="706"/>
      <point x="320" y="676"/>
      <point x="306" y="640" type="qcurve"/>
      <point x="90" y="47" type="line"/>
      <point x="73" y="0"/>
      <point x="64" y="-29" type="qcurve"/>
      <point x="60" y="-42"/>
      <point x="34" y="-42"/>
      <point x="8" y="-19"/>
      <point x="8" y="3"/>
      <point x="11" y="9" type="qcurve"/>
      <point x="29" y="42"/>
      <point x="39" y="70" type="qcurve"/>
    </contour>
  </outline>
</glyph>
<glyph name="zero" format="2">
  <advance height="1000" width="600"/>
  <unicode hex="0030"/>
  <outline>
    <contour>
      <point x="189" y="93"/>
      <point x="249" y="45"/>
      <point x="354" y="45"/>
      <point x="389" y="88" type="qcurve"/>
      <point x="456" y="169"/>
      <point x="456" y="562"/>
      <point x="380" y="626" type="qcurve"/>
      <point x="351" y="650"/>
      <point x="318" y="650" type="qcurve"/>
      <point x="254" y="650"/>
      <point x="145" y="481"/>
      <point x="145" y="206"/>
      <point x="173" y="134" type="qcurve"/>
    </contour>
    <contour>
      <point x="128" y="610"/>
      <point x="162" y="659"/>
      <point x="184" y="659"/>
      <point x="194" y="647" type="qcurve"/>
      <point x="251" y="713"/>
      <point x="385" y="713"/>
      <point x="433" y="666" type="qcurve"/>
      <point x="528" y="573"/>
      <point x="528" y="354" type="qcurve"/>
      <point x="528" y="199"/>
      <point x="472" y="94" type="qcurve"/>
      <point x="410" y="-18"/>
      <point x="182" y="-18"/>
      <point x="124" y="87" type="qcurve"/>
      <point x="73" y="180"/>
      <point x="73" y="462"/>
      <point x="112" y="566" type="qcurve"/>
    </contour>
  </outline>
</glyph>
<glyph name="one" format="2">
  <advance height="1000" width="600"/>
  <unicode hex="0031"/>
  <outline>
    <contour>
      <point x="277" y="17" type="qcurve"/>
      <point x="279" y="105" type="line"/>
      <point x="279" y="606" type="line"/>
      <point x="243" y="585"/>
      <point x="184" y="572" type="qcurve"/>
      <point x="182" y="571"/>
      <point x="162" y="571"/>
      <point x="133" y="587"/>
      <point x="133" y="603"/>
      <point x="144" y="607" type="qcurve"/>
      <point x="240" y="645"/>
      <point x="283" y="694" type="qcurve"/>
      <point x="297" y="710"/>
      <point x="321" y="710"/>
      <point x="358" y="686"/>
      <point x="358" y="659"/>
      <point x="352" y="622"/>
      <point x="352" y="600" type="qcurve"/>
      <point x="352" y="111" type="line"/>
      <point x="354" y="-1" type="line"/>
      <point x="354" y="-11"/>
      <point x="316" y="-11"/>
      <point x="277" y="4"/>
    </contour>
  </outline>
</glyph>
<glyph name="two" format="2">
  <advance height="1000" width="600"/>
  <unicode hex="0032"/>
  <outline>
    <contour>
      <point x="368" y="7" type="qcurve"/>
      <point x="245" y="7" type="line"/>
      <point x="164" y="7"/>
      <point x="103" y="-4" type="qcurve"/>
      <point x="98" y="-4" type="line"/>
      <point x="81" y="-4"/>
      <point x="57" y="28"/>
      <point x="57" y="52"/>
      <point x="67" y="68"/>
      <point x="79" y="81"/>
      <point x="83" y="88" type="qcurve"/>
      <point x="112" y="138"/>
      <point x="236" y="277"/>
      <point x="383" y="398"/>
      <point x="450" y="498"/>
      <point x="450" y="592"/>
      <point x="390" y="649"/>
      <point x="267" y="649"/>
      <point x="188" y="595"/>
      <point x="171" y="551" type="qcurve"/>
      <point x="167" y="541"/>
      <point x="148" y="525"/>
      <point x="122" y="525"/>
      <point x="98" y="560"/>
      <point x="98" y="581"/>
      <point x="126" y="627"/>
      <point x="154" y="652" type="qcurve"/>
      <point x="224" y="713"/>
      <point x="420" y="713"/>
      <point x="524" y="621"/>
      <point x="524" y="483"/>
      <point x="437" y="359"/>
      <point x="362" y="297" type="qcurve"/>
      <point x="214" y="177"/>
      <point x="145" y="64" type="qcurve"/>
      <point x="195" y="69"/>
      <point x="294" y="69" type="qcurve"/>
      <point x="440" y="68" type="line"/>
      <point x="505" y="69" type="line"/>
      <point x="518" y="69"/>
      <point x="539" y="33"/>
      <point x="539" y="-1"/>
      <point x="524" y="-1" type="qcurve"/>
      <point x="514" y="-1"/>
      <point x="439" y="7"/>
    </contour>
  </outline>
</glyph>
<glyph name="three" format="2">
  <advance height="1000" width="600"/>
  <unicode hex="0033"/>
  <outline>
    <contour>
      <point x="315" y="352" type="qcurve"/>
      <point x="278" y="352"/>
      <point x="233" y="343" type="qcurve"/>
      <point x="219" y="343"/>
      <point x="199" y="375"/>
      <point x="199" y="404"/>
      <point x="211" y="405" type="qcurve"/>
      <point x="344" y="418"/>
      <point x="405" y="481" type="qcurve"/>
      <point x="435" y="512"/>
      <point x="435" y="551" type="qcurve"/>
      <point x="435" y="651"/>
      <point x="318" y="651" type="qcurve"/>
      <point x="225" y="651"/>
      <point x="150" y="570" type="qcurve"/>
      <point x="141" y="557"/>
      <point x="129" y="557" type="qcurve"/>
      <point x="127" y="557"/>
      <point x="95" y="578"/>
      <point x="95" y="614"/>
      <point x="106" y="623" type="qcurve"/>
      <point x="192" y="713"/>
      <point x="316" y="713" type="qcurve"/>
      <point x="401" y="713"/>
      <point x="505" y="631"/>
      <point x="505" y="497"/>
      <point x="435" y="411"/>
      <point x="373" y="392" type="qcurve"/>
      <point x="419" y="392"/>
      <point x="493" y="349"/>
      <point x="537" y="271"/>
      <point x="537" y="155"/>
      <point x="481" y="47"/>
      <point x="364" y="-18"/>
      <point x="206" y="-18"/>
      <point x="108" y="23"/>
      <point x="67" y="63" type="qcurve"/>
      <point x="59" y="71"/>
      <point x="59" y="102"/>
      <point x="80" y="137"/>
      <point x="97" y="137"/>
      <point x="103" y="131" type="qcurve"/>
      <point x="135" y="91"/>
      <point x="214" y="45"/>
      <point x="341" y="45"/>
      <point x="427" y="93"/>
      <point x="466" y="172"/>
      <point x="466" y="217" type="qcurve"/>
      <point x="466" y="278"/>
      <point x="381" y="352"/>
    </contour>
  </outline>
</glyph>
<glyph name="four" format="2">
  <advance height="1000" width="600"/>
  <unicode hex="0034"/>
  <outline>
    <contour>
      <point x="559" y="159" type="qcurve"/>
      <point x="466" y="161" type="line"/>
      <point x="447" y="160" type="line"/>
      <point x="447" y="103" type="line"/>
      <point x="451" y="-1" type="line"/>
      <point x="451" y="-11"/>
      <point x="414" y="-11"/>
      <point x="376" y="4"/>
      <point x="376" y="17" type="qcurve"/>
      <point x="378" y="105" type="line"/>
      <point x="378" y="157" type="line"/>
      <point x="141" y="145" type="line"/>
      <point x="126" y="145"/>
      <point x="102" y="138"/>
      <point x="81" y="138"/>
      <point x="51" y="167"/>
      <point x="51" y="196"/>
      <point x="67" y="219"/>
      <point x="86" y="242"/>
      <point x="93" y="252" type="qcurve"/>
      <point x="280" y="547"/>
      <point x="340" y="659"/>
      <point x="359" y="704" type="qcurve"/>
      <point x="362" y="711"/>
      <point x="378" y="711"/>
      <point x="390" y="702" type="qcurve"/>
      <point x="420" y="680"/>
      <point x="420" y="657" type="qcurve"/>
      <point x="420" y="653"/>
      <point x="417" y="648" type="qcurve"/>
      <point x="381" y="592" type="line"/>
      <point x="215" y="322"/>
      <point x="135" y="206" type="qcurve"/>
      <point x="378" y="217" type="line"/>
      <point x="378" y="418" type="line"/>
      <point x="375" y="525" type="line"/>
      <point x="375" y="535"/>
      <point x="412" y="535"/>
      <point x="449" y="520"/>
      <point x="449" y="507" type="qcurve"/>
      <point x="447" y="418" type="line"/>
      <point x="447" y="220" type="line"/>
      <point x="465" y="221" type="line"/>
      <point x="485" y="222"/>
      <point x="528" y="227"/>
      <point x="551" y="227"/>
      <point x="570" y="190"/>
      <point x="570" y="159"/>
    </contour>
  </outline>
</glyph>
<glyph name="five" format="2">
  <advance height="1000" width="600"/>
  <unicode hex="0035"/>
  <outline>
    <contour>
      <point x="165" y="393" type="line"/>
      <point x="227" y="442"/>
      <point x="313" y="442" type="qcurve"/>
      <point x="322" y="442" type="line"/>
      <point x="378" y="441"/>
      <point x="476" y="389"/>
      <point x="537" y="293"/>
      <point x="537" y="160"/>
      <point x="483" y="49"/>
      <point x="369" y="-19"/>
      <point x="213" y="-19"/>
      <point x="109" y="34"/>
      <point x="72" y="74" type="qcurve"/>
      <point x="65" y="81"/>
      <point x="65" y="114"/>
      <point x="86" y="151"/>
      <point x="105" y="151"/>
      <point x="109" y="144" type="qcurve"/>
      <point x="135" y="106"/>
      <point x="220" y="46"/>
      <point x="278" y="45" type="qcurve"/>
      <point x="280" y="45" type="line"/>
      <point x="344" y="45"/>
      <point x="427" y="94"/>
      <point x="468" y="176"/>
      <point x="468" y="223" type="qcurve"/>
      <point x="468" y="299"/>
      <point x="378" y="381"/>
      <point x="313" y="382" type="qcurve"/>
      <point x="309" y="382" type="line"/>
      <point x="246" y="382"/>
      <point x="172" y="337"/>
      <point x="138" y="306" type="qcurve"/>
      <point x="135" y="303"/>
      <point x="117" y="303"/>
      <point x="91" y="331"/>
      <point x="91" y="358"/>
      <point x="102" y="396" type="qcurve"/>
      <point x="140" y="636" type="line"/>
      <point x="142" y="647"/>
      <point x="142" y="658" type="qcurve"/>
      <point x="142" y="679" type="line"/>
      <point x="142" y="692"/>
      <point x="177" y="692"/>
      <point x="199" y="681" type="qcurve"/>
      <point x="407" y="696" type="line"/>
      <point x="456" y="699"/>
      <point x="474" y="702" type="qcurve"/>
      <point x="476" y="702" type="line"/>
      <point x="487" y="702"/>
      <point x="506" y="667"/>
      <point x="506" y="637"/>
      <point x="494" y="637" type="qcurve"/>
      <point x="481" y="636"/>
      <point x="437" y="635"/>
      <point x="415" y="633" type="qcurve"/>
      <point x="203" y="617" type="line"/>
    </contour>
  </outline>
</glyph>
<glyph name="six" format="2">
  <advance height="1000" width="600"/>
  <unicode hex="0036"/>
  <outline>
    <contour>
      <point x="134" y="130"/>
      <point x="222" y="44"/>
      <point x="384" y="44"/>
      <point x="470" y="146"/>
      <point x="470" y="224" type="qcurve"/>
      <point x="470" y="265"/>
      <point x="432" y="334"/>
      <point x="364" y="376"/>
      <point x="259" y="376"/>
      <point x="177" y="327"/>
      <point x="134" y="246"/>
      <point x="134" y="197" type="qcurve"/>
    </contour>
    <contour>
      <point x="173" y="382" type="qcurve"/>
      <point x="234" y="436"/>
      <point x="320" y="436" type="qcurve"/>
      <point x="380" y="436"/>
      <point x="481" y="382"/>
      <point x="541" y="287"/>
      <point x="541" y="162"/>
      <point x="488" y="50"/>
      <point x="382" y="-17"/>
      <point x="229" y="-17"/>
      <point x="122" y="40"/>
      <point x="63" y="137"/>
      <point x="63" y="261"/>
      <point x="112" y="400"/>
      <point x="211" y="569"/>
      <point x="286" y="682"/>
      <point x="292" y="697"/>
      <point x="296" y="703" type="qcurve"/>
      <point x="302" y="714"/>
      <point x="349" y="714"/>
      <point x="376" y="700"/>
      <point x="376" y="678"/>
      <point x="366" y="668" type="qcurve"/>
      <point x="295" y="587"/>
      <point x="195" y="426"/>
    </contour>
  </outline>
</glyph>
<glyph name="seven" format="2">
  <advance height="1000" width="600"/>
  <unicode hex="0037"/>
  <outline>
    <contour>
      <point x="530" y="657" type="qcurve"/>
      <point x="526" y="643"/>
      <point x="504" y="608"/>
      <point x="480" y="560" type="qcurve"/>
      <point x="312" y="219"/>
      <point x="254" y="5" type="qcurve"/>
      <point x="251" y="-11"/>
      <point x="191" y="-11"/>
      <point x="178" y="11"/>
      <point x="178" y="34"/>
      <point x="331" y="411"/>
      <point x="442" y="635" type="qcurve"/>
      <point x="157" y="610" type="line"/>
      <point x="150" y="609"/>
      <point x="135" y="606"/>
      <point x="108" y="606"/>
      <point x="86" y="633"/>
      <point x="77" y="663"/>
      <point x="77" y="665" type="qcurve"/>
      <point x="77" y="674"/>
      <point x="83" y="674" type="qcurve"/>
      <point x="119" y="672" type="line"/>
      <point x="440" y="695" type="line"/>
      <point x="452" y="696"/>
      <point x="473" y="702"/>
      <point x="482" y="702" type="qcurve"/>
      <point x="485" y="702" type="line"/>
      <point x="498" y="701"/>
      <point x="530" y="671"/>
    </contour>
  </outline>
</glyph>
<glyph name="eight" format="2">
  <advance height="1000" width="600"/>
  <unicode hex="0038"/>
  <outline>
    <contour>
      <point x="283" y="360" type="qcurve"/>
      <point x="209" y="308"/>
      <point x="128" y="226"/>
      <point x="128" y="176" type="qcurve"/>
      <point x="128" y="143"/>
      <point x="144" y="113" type="qcurve"/>
      <point x="180" y="46"/>
      <point x="281" y="46" type="qcurve"/>
      <point x="362" y="46"/>
      <point x="457" y="115"/>
      <point x="457" y="230"/>
      <point x="417" y="292"/>
      <point x="340" y="336"/>
    </contour>
    <contour>
      <point x="277" y="428" type="qcurve"/>
      <point x="368" y="486"/>
      <point x="467" y="565" type="qcurve"/>
      <point x="465" y="564"/>
      <point x="445" y="564"/>
      <point x="436" y="578" type="qcurve"/>
      <point x="390" y="653"/>
      <point x="303" y="653" type="qcurve"/>
      <point x="239" y="653"/>
      <point x="161" y="588"/>
      <point x="161" y="507"/>
      <point x="218" y="456"/>
    </contour>
    <contour>
      <point x="489" y="583" type="qcurve"/>
      <point x="506" y="600"/>
      <point x="518" y="600" type="qcurve"/>
      <point x="534" y="600"/>
      <point x="534" y="584" type="qcurve"/>
      <point x="534" y="555"/>
      <point x="395" y="445" type="qcurve"/>
      <point x="362" y="419"/>
      <point x="337" y="401" type="qcurve"/>
      <point x="430" y="366"/>
      <point x="529" y="261"/>
      <point x="529" y="90"/>
      <point x="397" y="-17"/>
      <point x="281" y="-17" type="qcurve"/>
      <point x="213" y="-17"/>
      <point x="112" y="33"/>
      <point x="57" y="120"/>
      <point x="57" y="173" type="qcurve"/>
      <point x="57" y="282"/>
      <point x="222" y="390" type="qcurve"/>
      <point x="158" y="424"/>
      <point x="91" y="496"/>
      <point x="91" y="589"/>
      <point x="143" y="665"/>
      <point x="238" y="712"/>
      <point x="349" y="712"/>
      <point x="421" y="683"/>
      <point x="469" y="641"/>
      <point x="493" y="605"/>
      <point x="493" y="591"/>
    </contour>
  </outline>
</glyph>
<glyph name="nine" format="2">
  <advance height="1000" width="600"/>
  <unicode hex="0039"/>
  <outline>
    <contour>
      <point x="463" y="573" type="qcurve"/>
      <point x="451" y="567"/>
      <point x="449" y="567" type="qcurve"/>
      <point x="439" y="567"/>
      <point x="428" y="593"/>
      <point x="414" y="610" type="qcurve"/>
      <point x="380" y="650"/>
      <point x="318" y="650" type="qcurve"/>
      <point x="240" y="650"/>
      <point x="182" y="582" type="qcurve"/>
      <point x="128" y="516"/>
      <point x="128" y="453" type="qcurve"/>
      <point x="128" y="325"/>
      <point x="227" y="325" type="qcurve"/>
      <point x="313" y="325"/>
      <point x="374" y="391" type="qcurve"/>
      <point x="416" y="436"/>
      <point x="442" y="502" type="qcurve"/>
      <point x="454" y="532"/>
      <point x="460" y="563"/>
    </contour>
    <contour>
      <point x="377" y="-13" type="line"/>
      <point x="351" y="-13"/>
      <point x="351" y="9" type="qcurve"/>
      <point x="351" y="17"/>
      <point x="371" y="113"/>
      <point x="394" y="225"/>
      <point x="409" y="297"/>
      <point x="417" y="342"/>
      <point x="420" y="357" type="qcurve"/>
      <point x="385" y="314"/>
      <point x="281" y="260"/>
      <point x="182" y="260"/>
      <point x="105" y="303"/>
      <point x="59" y="385"/>
      <point x="59" y="439" type="qcurve"/>
      <point x="59" y="544"/>
      <point x="211" y="712"/>
      <point x="313" y="712" type="qcurve"/>
      <point x="395" y="712"/>
      <point x="446" y="664" type="qcurve"/>
      <point x="466" y="644"/>
      <point x="474" y="629" type="qcurve"/>
      <point x="479" y="651"/>
      <point x="482" y="683"/>
      <point x="496" y="683" type="qcurve"/>
      <point x="498" y="683" type="line"/>
      <point x="519" y="681"/>
      <point x="551" y="654"/>
      <point x="551" y="646" type="qcurve"/>
      <point x="551" y="643" type="line"/>
      <point x="516" y="555"/>
      <point x="452" y="178" type="qcurve"/>
      <point x="434" y="69"/>
      <point x="427" y="9" type="qcurve"/>
      <point x="425" y="-11"/>
      <point x="381" y="-13" type="qcurve"/>
    </contour>
  </outline>
</glyph>
<glyph name="colon" format="2">
  <advance height="1000" width="350"/>
  <unicode hex="003A"/>
  <outline>
    <contour>
      <point x="197" y="101"/>
      <point x="230" y="60"/>
      <point x="230" y="19"/>
      <point x="205" y="-7"/>
      <point x="157" y="-7"/>
      <point x="125" y="34"/>
      <point x="125" y="77"/>
      <point x="155" y="101"/>
    </contour>
    <contour>
      <point x="197" y="472"/>
      <point x="230" y="431"/>
      <point x="230" y="390"/>
      <point x="205" y="364"/>
      <point x="157" y="364"/>
      <point x="125" y="405"/>
      <point x="125" y="448"/>
      <point x="155" y="472"/>
    </contour>
  </outline>
</glyph>
<glyph name="less" format="2">
  <advance height="1000" width="600"/>
  <unicode hex="003C"/>
  <outline>
    <contour>
      <point x="165" y="236" type="qcurve"/>
      <point x="326" y="157"/>
      <point x="460" y="76" type="qcurve"/>
      <point x="477" y="66"/>
      <point x="492" y="58" type="qcurve"/>
      <point x="502" y="51"/>
      <point x="502" y="12"/>
      <point x="492" y="-16"/>
      <point x="483" y="-16" type="qcurve"/>
      <point x="481" y="-16"/>
      <point x="476" y="-13" type="qcurve"/>
      <point x="381" y="59"/>
      <point x="202" y="156" type="qcurve"/>
      <point x="139" y="190"/>
      <point x="130" y="191" type="qcurve"/>
      <point x="106" y="196"/>
      <point x="93" y="236"/>
      <point x="93" y="259"/>
      <point x="96" y="265" type="qcurve"/>
      <point x="101" y="273"/>
      <point x="133" y="283"/>
      <point x="178" y="308" type="qcurve"/>
      <point x="239" y="339"/>
      <point x="425" y="448"/>
      <point x="476" y="489" type="qcurve"/>
      <point x="481" y="492"/>
      <point x="484" y="492" type="qcurve"/>
      <point x="494" y="492"/>
      <point x="507" y="461"/>
      <point x="507" y="426"/>
      <point x="498" y="421" type="qcurve"/>
      <point x="464" y="402"/>
      <point x="289" y="297"/>
    </contour>
  </outline>
</glyph>
<glyph name="equal" format="2">
  <advance height="1000" width="600"/>
  <unicode hex="003D"/>
  <outline>
    <contour>
      <point x="76" y="187" type="qcurve"/>
      <point x="106" y="185"/>
      <point x="158" y="185" type="qcurve"/>
      <point x="445" y="185" type="line"/>
      <point x="474" y="185"/>
      <point x="516" y="188" type="qcurve"/>
      <point x="517" y="188" type="line"/>
      <point x="528" y="188"/>
      <point x="540" y="162"/>
      <point x="540" y="125"/>
      <point x="525" y="125" type="qcurve"/>
      <point x="444" y="127" type="line"/>
      <point x="157" y="127" type="line"/>
      <point x="99" y="127"/>
      <point x="81" y="124" type="qcurve"/>
      <point x="80" y="124" type="line"/>
      <point x="71" y="124"/>
      <point x="60" y="150"/>
      <point x="60" y="163" type="qcurve"/>
      <point x="60" y="187"/>
    </contour>
    <contour>
      <point x="76" y="375" type="qcurve"/>
      <point x="106" y="373"/>
      <point x="158" y="373" type="qcurve"/>
      <point x="445" y="373" type="line"/>
      <point x="474" y="373"/>
      <point x="516" y="376" type="qcurve"/>
      <point x="517" y="376" type="line"/>
      <point x="528" y="376"/>
      <point x="540" y="350"/>
      <point x="540" y="313"/>
      <point x="525" y="313" type="qcurve"/>
      <point x="444" y="315" type="line"/>
      <point x="157" y="315" type="line"/>
      <point x="99" y="315"/>
      <point x="81" y="312" type="qcurve"/>
      <point x="80" y="312" type="line"/>
      <point x="71" y="312"/>
      <point x="60" y="338"/>
      <point x="60" y="351" type="qcurve"/>
      <point x="60" y="375"/>
    </contour>
  </outline>
</glyph>
<glyph name="greater" format="2">
  <advance height="1000" width="600"/>
  <unicode hex="003E"/>
  <outline>
    <contour>
      <point x="439" y="241" type="qcurve"/>
      <point x="236" y="345"/>
      <point x="127" y="411"/>
      <point x="112" y="419" type="qcurve"/>
      <point x="102" y="426"/>
      <point x="102" y="465"/>
      <point x="112" y="493"/>
      <point x="121" y="493" type="qcurve"/>
      <point x="124" y="493"/>
      <point x="202" y="434"/>
      <point x="456" y="289"/>
      <point x="483" y="284"/>
      <point x="500" y="274"/>
      <point x="511" y="242"/>
      <point x="511" y="218"/>
      <point x="504" y="205"/>
      <point x="490" y="200" type="qcurve"/>
      <point x="444" y="184"/>
      <point x="179" y="29"/>
      <point x="128" y="-12" type="qcurve"/>
      <point x="124" y="-15"/>
      <point x="120" y="-15" type="qcurve"/>
      <point x="110" y="-15"/>
      <point x="97" y="16"/>
      <point x="97" y="52"/>
      <point x="106" y="56" type="qcurve"/>
      <point x="140" y="75"/>
      <point x="310" y="176"/>
    </contour>
  </outline>
</glyph>
<glyph name="question" format="2">
  <advance height="1000" width="600"/>
  <unicode hex="003F"/>
  <outline>
    <contour>
      <point x="310" y="101"/>
      <point x="343" y="60"/>
      <point x="343" y="17"/>
      <point x="318" y="-9"/>
      <point x="270" y="-9"/>
      <point x="238" y="29"/>
      <point x="238" y="72"/>
      <point x="264" y="101"/>
    </contour>
    <contour>
      <point x="320" y="254" type="qcurve"/>
      <point x="320" y="236" type="line"/>
      <point x="320" y="224"/>
      <point x="330" y="184" type="qcurve"/>
      <point x="330" y="168"/>
      <point x="265" y="168"/>
      <point x="253" y="201"/>
      <point x="253" y="247"/>
      <point x="263" y="314"/>
      <point x="305" y="371"/>
      <point x="360" y="418"/>
      <point x="387" y="442" type="qcurve"/>
      <point x="449" y="497"/>
      <point x="449" y="568" type="qcurve"/>
      <point x="449" y="604"/>
      <point x="403" y="654"/>
      <point x="303" y="654"/>
      <point x="219" y="616"/>
      <point x="168" y="563"/>
      <point x="155" y="519" type="qcurve"/>
      <point x="151" y="506"/>
      <point x="122" y="506"/>
      <point x="90" y="533"/>
      <point x="90" y="554"/>
      <point x="92" y="557" type="qcurve"/>
      <point x="139" y="640"/>
      <point x="268" y="713"/>
      <point x="432" y="713"/>
      <point x="522" y="639"/>
      <point x="522" y="522"/>
      <point x="484" y="450"/>
      <point x="427" y="396"/>
      <point x="368" y="350"/>
      <point x="320" y="293"/>
    </contour>
  </outline>
</glyph>
<glyph name="at" format="2">
  <advance height="1000" width="784"/>
  <unicode hex="0040"/>
  <outline>
    <contour>
      <point x="272" y="302" type="qcurve"/>
      <point x="272" y="213"/>
      <point x="332" y="213" type="qcurve"/>
      <point x="400" y="213"/>
      <point x="450" y="284" type="qcurve"/>
      <point x="498" y="350"/>
      <point x="498" y="426" type="qcurve"/>
      <point x="498" y="463"/>
      <point x="458" y="503"/>
      <point x="388" y="503"/>
      <point x="317" y="448"/>
      <point x="272" y="357"/>
    </contour>
    <contour>
      <point x="595" y="512" type="qcurve"/>
      <point x="594" y="508" type="line"/>
      <point x="553" y="386"/>
      <point x="553" y="252" type="qcurve"/>
      <point x="553" y="205"/>
      <point x="573" y="205" type="qcurve"/>
      <point x="599" y="205"/>
      <point x="651" y="257"/>
      <point x="687" y="355"/>
      <point x="687" y="500"/>
      <point x="617" y="604"/>
      <point x="496" y="657"/>
      <point x="356" y="657"/>
      <point x="241" y="600"/>
      <point x="153" y="503"/>
      <point x="102" y="380"/>
      <point x="102" y="313" type="qcurve"/>
      <point x="102" y="176"/>
      <point x="260" y="42"/>
      <point x="510" y="42"/>
      <point x="623" y="114" type="qcurve"/>
      <point x="675" y="147"/>
      <point x="709" y="186" type="qcurve"/>
      <point x="721" y="199"/>
      <point x="730" y="199" type="qcurve"/>
      <point x="744" y="199"/>
      <point x="744" y="183" type="qcurve"/>
      <point x="744" y="176"/>
      <point x="739" y="166" type="qcurve"/>
      <point x="705" y="113"/>
      <point x="650" y="72" type="qcurve"/>
      <point x="534" y="-17"/>
      <point x="393" y="-17" type="qcurve"/>
      <point x="285" y="-17"/>
      <point x="125" y="60"/>
      <point x="36" y="205"/>
      <point x="36" y="386"/>
      <point x="94" y="532"/>
      <point x="197" y="646"/>
      <point x="338" y="712"/>
      <point x="518" y="712"/>
      <point x="666" y="642"/>
      <point x="749" y="513"/>
      <point x="749" y="345"/>
      <point x="698" y="219"/>
      <point x="617" y="148"/>
      <point x="571" y="148" type="qcurve"/>
      <point x="492" y="148"/>
      <point x="492" y="236" type="qcurve"/>
      <point x="492" y="246" type="line"/>
      <point x="492" y="250"/>
      <point x="493" y="255" type="qcurve"/>
      <point x="427" y="149"/>
      <point x="332" y="149" type="qcurve"/>
      <point x="272" y="149"/>
      <point x="200" y="228"/>
      <point x="200" y="368"/>
      <point x="260" y="487"/>
      <point x="361" y="560"/>
      <point x="487" y="560"/>
      <point x="518" y="515" type="qcurve"/>
      <point x="520" y="533"/>
      <point x="520" y="550"/>
      <point x="544" y="550"/>
      <point x="573" y="539"/>
      <point x="595" y="521"/>
    </contour>
  </outline>
</glyph>
<glyph name="B" format="2">
  <advance height="1000" width="650"/>
  <unicode hex="0042"/>
  <outline>
    <contour>
      <point x="327" y="358" type="line"/>
      <point x="253" y="358"/>
      <point x="176" y="351" type="qcurve"/>
      <point x="176" y="39" type="line"/>
      <point x="422" y="39"/>
      <point x="495" y="123" type="qcurve"/>
      <point x="528" y="161"/>
      <point x="528" y="207" type="qcurve"/>
      <point x="528" y="287"/>
      <point x="466" y="325" type="qcurve"/>
      <point x="417" y="356"/>
      <point x="346" y="358" type="qcurve"/>
    </contour>
    <contour>
      <point x="472" y="551" type="qcurve"/>
      <point x="472" y="650"/>
      <point x="308" y="650" type="qcurve"/>
      <point x="238" y="650"/>
      <point x="176" y="633" type="qcurve"/>
      <point x="176" y="408" type="line"/>
      <point x="189" y="408" type="line"/>
      <point x="264" y="408"/>
      <point x="351" y="424"/>
      <point x="423" y="459"/>
      <point x="472" y="515"/>
    </contour>
    <contour>
      <point x="53" y="23"/>
      <point x="65" y="34"/>
      <point x="98" y="34"/>
      <point x="106" y="36" type="qcurve"/>
      <point x="106" y="625" type="line"/>
      <point x="93" y="629"/>
      <point x="66" y="657"/>
      <point x="66" y="676"/>
      <point x="73" y="679" type="qcurve"/>
      <point x="99" y="689"/>
      <point x="252" y="711"/>
      <point x="400" y="711"/>
      <point x="449" y="690" type="qcurve"/>
      <point x="543" y="651"/>
      <point x="543" y="557" type="qcurve"/>
      <point x="543" y="481"/>
      <point x="476" y="430" type="qcurve"/>
      <point x="447" y="409"/>
      <point x="419" y="398" type="qcurve"/>
      <point x="467" y="393"/>
      <point x="549" y="344"/>
      <point x="599" y="265"/>
      <point x="599" y="150"/>
      <point x="572" y="108" type="qcurve"/>
      <point x="496" y="-10"/>
      <point x="227" y="-10" type="qcurve"/>
      <point x="134" y="-10"/>
      <point x="73" y="-1" type="qcurve"/>
      <point x="53" y="3"/>
      <point x="53" y="17" type="qcurve"/>
    </contour>
  </outline>
</glyph>
<glyph name="D" format="2">
  <advance height="1000" width="728"/>
  <unicode hex="0044"/>
  <outline>
    <contour>
      <point x="176" y="40" type="line"/>
      <point x="323" y="43"/>
      <point x="512" y="127"/>
      <point x="602" y="269"/>
      <point x="602" y="348" type="qcurve"/>
      <point x="602" y="492"/>
      <point x="415" y="651"/>
      <point x="298" y="651" type="qcurve"/>
      <point x="234" y="651"/>
      <point x="176" y="635" type="qcurve"/>
    </contour>
    <contour>
      <point x="51" y="15" type="qcurve"/>
      <point x="51" y="34"/>
      <point x="106" y="34" type="qcurve"/>
      <point x="106" y="626" type="line"/>
      <point x="92" y="629"/>
      <point x="66" y="658"/>
      <point x="66" y="678"/>
      <point x="73" y="681" type="qcurve"/>
      <point x="121" y="700"/>
      <point x="244" y="710" type="qcurve"/>
      <point x="277" y="712"/>
      <point x="303" y="712" type="qcurve"/>
      <point x="456" y="712"/>
      <point x="673" y="516"/>
      <point x="673" y="204"/>
      <point x="578" y="110" type="qcurve"/>
      <point x="497" y="30"/>
      <point x="374" y="8" type="qcurve"/>
      <point x="297" y="-6"/>
      <point x="183" y="-8" type="qcurve"/>
      <point x="169" y="-8" type="line"/>
      <point x="51" y="-8"/>
    </contour>
  </outline>
</glyph>
<glyph name="E" format="2">
  <advance height="1000" width="638"/>
  <unicode hex="0045"/>
  <outline>
    <contour>
      <point x="472" y="64" type="line"/>
      <point x="510" y="64"/>
      <point x="555" y="67" type="qcurve"/>
      <point x="556" y="67" type="line"/>
      <point x="569" y="67"/>
      <point x="588" y="30"/>
      <point x="588" y="-2"/>
      <point x="577" y="-2" type="qcurve"/>
      <point x="576" y="-2" type="line"/>
      <point x="552" y="1"/>
      <point x="489" y="1" type="qcurve"/>
      <point x="473" y="1" type="line"/>
      <point x="195" y="-3" type="line"/>
      <point x="179" y="-3"/>
      <point x="156" y="-10"/>
      <point x="127" y="-10"/>
      <point x="99" y="25"/>
      <point x="99" y="37" type="qcurve"/>
      <point x="106" y="84" type="line"/>
      <point x="106" y="344" type="line"/>
      <point x="95" y="350"/>
      <point x="79" y="382"/>
      <point x="79" y="404"/>
      <point x="87" y="404" type="qcurve"/>
      <point x="89" y="404" type="line"/>
      <point x="97" y="402"/>
      <point x="106" y="402" type="qcurve"/>
      <point x="106" y="634" type="line"/>
      <point x="102" y="685" type="line"/>
      <point x="102" y="699"/>
      <point x="130" y="699"/>
      <point x="168" y="687"/>
      <point x="169" y="686" type="qcurve"/>
      <point x="440" y="704" type="line"/>
      <point x="463" y="706"/>
      <point x="514" y="712"/>
      <point x="537" y="712"/>
      <point x="557" y="677"/>
      <point x="557" y="646"/>
      <point x="544" y="646" type="qcurve"/>
      <point x="482" y="646" type="line"/>
      <point x="455" y="646"/>
      <point x="441" y="645" type="qcurve"/>
      <point x="174" y="627" type="line"/>
      <point x="174" y="403" type="line"/>
      <point x="385" y="416" type="line"/>
      <point x="408" y="418"/>
      <point x="459" y="424"/>
      <point x="482" y="424"/>
      <point x="502" y="389"/>
      <point x="502" y="357"/>
      <point x="489" y="357" type="qcurve"/>
      <point x="426" y="357" type="line"/>
      <point x="400" y="357"/>
      <point x="386" y="356" type="qcurve"/>
      <point x="174" y="344" type="line"/>
      <point x="174" y="59" type="line"/>
    </contour>
  </outline>
</glyph>
<glyph name="G" format="2">
  <advance height="1000" width="752"/>
  <unicode hex="0047"/>
  <outline>
    <contour>
      <point x="682" y="7" type="qcurve"/>
      <point x="682" y="-6"/>
      <point x="642" y="-6"/>
      <point x="608" y="7"/>
      <point x="608" y="16" type="qcurve"/>
      <point x="608" y="17" type="line"/>
      <point x="613" y="70"/>
      <point x="613" y="126" type="qcurve"/>
      <point x="570" y="35"/>
      <point x="463" y="-1" type="qcurve"/>
      <point x="416" y="-17"/>
      <point x="371" y="-17" type="qcurve"/>
      <point x="174" y="-17"/>
      <point x="97" y="113" type="qcurve"/>
      <point x="56" y="182"/>
      <point x="56" y="280" type="qcurve"/>
      <point x="56" y="465"/>
      <point x="156" y="586" type="qcurve"/>
      <point x="258" y="713"/>
      <point x="565" y="713"/>
      <point x="633" y="628" type="qcurve"/>
      <point x="637" y="624"/>
      <point x="637" y="601"/>
      <point x="611" y="568"/>
      <point x="590" y="568"/>
      <point x="586" y="574" type="qcurve"/>
      <point x="572" y="596"/>
      <point x="544" y="616" type="qcurve"/>
      <point x="494" y="651"/>
      <point x="348" y="651"/>
      <point x="246" y="596"/>
      <point x="208" y="547" type="qcurve"/>
      <point x="126" y="443"/>
      <point x="126" y="295" type="qcurve"/>
      <point x="126" y="118"/>
      <point x="240" y="70" type="qcurve"/>
      <point x="295" y="46"/>
      <point x="436" y="46"/>
      <point x="548" y="112"/>
      <point x="617" y="230"/>
      <point x="617" y="308" type="qcurve"/>
      <point x="617" y="311"/>
      <point x="613" y="311" type="qcurve"/>
      <point x="499" y="303" type="line"/>
      <point x="478" y="302"/>
      <point x="424" y="295" type="qcurve"/>
      <point x="422" y="295" type="line"/>
      <point x="408" y="295"/>
      <point x="384" y="332"/>
      <point x="384" y="361"/>
      <point x="396" y="361" type="qcurve"/>
      <point x="410" y="361" type="line"/>
      <point x="454" y="361"/>
      <point x="480" y="363" type="qcurve"/>
      <point x="604" y="370" type="line"/>
      <point x="612" y="371"/>
      <point x="630" y="374"/>
      <point x="646" y="374"/>
      <point x="658" y="365" type="qcurve"/>
      <point x="689" y="342"/>
      <point x="689" y="326" type="qcurve"/>
      <point x="689" y="319"/>
      <point x="680" y="309"/>
      <point x="680" y="298" type="qcurve"/>
      <point x="680" y="97" type="line"/>
      <point x="680" y="89"/>
      <point x="681" y="53"/>
      <point x="682" y="17"/>
    </contour>
  </outline>
</glyph>
<glyph name="H" format="2">
  <advance height="1000" width="700"/>
  <unicode hex="0048"/>
  <outline>
    <contour>
      <point x="540" y="18" type="qcurve"/>
      <point x="542" y="107" type="line"/>
      <point x="542" y="362" type="line"/>
      <point x="536" y="361" type="line"/>
      <point x="456" y="364" type="line"/>
      <point x="182" y="348" type="line"/>
      <point x="176" y="348" type="line"/>
      <point x="176" y="105" type="line"/>
      <point x="179" y="-1" type="line"/>
      <point x="179" y="-11"/>
      <point x="142" y="-11"/>
      <point x="104" y="4"/>
      <point x="104" y="17" type="qcurve"/>
      <point x="106" y="106" type="line"/>
      <point x="106" y="340" type="line"/>
      <point x="103" y="339"/>
      <point x="99" y="339" type="qcurve"/>
      <point x="98" y="339" type="line"/>
      <point x="85" y="339"/>
      <point x="66" y="376"/>
      <point x="66" y="408"/>
      <point x="77" y="408" type="qcurve"/>
      <point x="78" y="408" type="line"/>
      <point x="106" y="407" type="line"/>
      <point x="106" y="589" type="line"/>
      <point x="103" y="695" type="line"/>
      <point x="103" y="705"/>
      <point x="141" y="705"/>
      <point x="178" y="690"/>
      <point x="178" y="677" type="qcurve"/>
      <point x="176" y="588" type="line"/>
      <point x="176" y="407" type="line"/>
      <point x="181" y="407" type="line"/>
      <point x="432" y="422" type="line"/>
      <point x="455" y="424"/>
      <point x="503" y="428"/>
      <point x="515" y="430" type="qcurve"/>
      <point x="518" y="430" type="line"/>
      <point x="533" y="430"/>
      <point x="542" y="406" type="qcurve"/>
      <point x="542" y="589" type="line"/>
      <point x="539" y="695" type="line"/>
      <point x="539" y="705"/>
      <point x="577" y="705"/>
      <point x="614" y="690"/>
      <point x="614" y="677" type="qcurve"/>
      <point x="612" y="588" type="line"/>
      <point x="612" y="106" type="line"/>
      <point x="615" y="0" type="line"/>
      <point x="615" y="-10"/>
      <point x="578" y="-10"/>
      <point x="540" y="5"/>
    </contour>
  </outline>
</glyph>
<glyph name="M" format="2">
  <advance height="1000" width="855"/>
  <unicode hex="004D"/>
  <outline>
    <contour>
      <point x="736" y="677" type="qcurve"/>
      <point x="731" y="635" type="line"/>
      <point x="731" y="628" type="line"/>
      <point x="757" y="380"/>
      <point x="796" y="100" type="qcurve"/>
      <point x="801" y="60"/>
      <point x="815" y="19" type="qcurve"/>
      <point x="816" y="15" type="line"/>
      <point x="816" y="5"/>
      <point x="784" y="-6"/>
      <point x="769" y="-6" type="qcurve"/>
      <point x="733" y="-6"/>
      <point x="731" y="11" type="qcurve"/>
      <point x="729" y="61"/>
      <point x="707" y="257"/>
      <point x="692" y="401"/>
      <point x="677" y="543"/>
      <point x="671" y="604" type="qcurve"/>
      <point x="533" y="320"/>
      <point x="472" y="161" type="qcurve"/>
      <point x="460" y="130"/>
      <point x="459" y="111"/>
      <point x="425" y="95"/>
      <point x="411" y="95" type="qcurve"/>
      <point x="381" y="95"/>
      <point x="377" y="110" type="qcurve"/>
      <point x="364" y="153"/>
      <point x="335" y="216"/>
      <point x="211" y="524"/>
      <point x="185" y="594" type="qcurve"/>
      <point x="166" y="373"/>
      <point x="128" y="66"/>
      <point x="126" y="32"/>
      <point x="124" y="12" type="qcurve"/>
      <point x="123" y="3"/>
      <point x="94" y="-7"/>
      <point x="77" y="-7" type="qcurve"/>
      <point x="42" y="-7"/>
      <point x="42" y="8" type="qcurve"/>
      <point x="42" y="10" type="line"/>
      <point x="62" y="74"/>
      <point x="111" y="484"/>
      <point x="120" y="581"/>
      <point x="126" y="638"/>
      <point x="126" y="639" type="qcurve"/>
      <point x="125" y="663" type="line"/>
      <point x="125" y="668" type="line"/>
      <point x="125" y="684"/>
      <point x="166" y="703"/>
      <point x="199" y="703"/>
      <point x="211" y="693"/>
      <point x="228" y="650" type="qcurve"/>
      <point x="351" y="329"/>
      <point x="416" y="186" type="qcurve"/>
      <point x="525" y="451"/>
      <point x="631" y="673" type="qcurve"/>
      <point x="638" y="687"/>
      <point x="650" y="712"/>
      <point x="678" y="712"/>
      <point x="694" y="706" type="qcurve"/>
      <point x="736" y="692"/>
    </contour>
  </outline>
</glyph>
<glyph name="P" format="2">
  <advance height="1000" width="618"/>
  <unicode hex="0050"/>
  <outline>
    <contour>
      <point x="318" y="648" type="qcurve"/>
      <point x="247" y="648"/>
      <point x="176" y="628" type="qcurve"/>
      <point x="176" y="362" type="line"/>
      <point x="182" y="366"/>
      <point x="189" y="366" type="qcurve"/>
      <point x="356" y="377"/>
      <point x="503" y="476"/>
      <point x="503" y="541" type="qcurve"/>
      <point x="503" y="648"/>
    </contour>
    <contour>
      <point x="320" y="711" type="qcurve"/>
      <point x="575" y="711"/>
      <point x="575" y="542" type="qcurve"/>
      <point x="575" y="459"/>
      <point x="520" y="407" type="qcurve"/>
      <point x="427" y="320"/>
      <point x="215" y="320" type="qcurve"/>
      <point x="200" y="320" type="line"/>
      <point x="186" y="320"/>
      <point x="176" y="325" type="qcurve"/>
      <point x="176" y="115" type="line"/>
      <point x="179" y="-1" type="line"/>
      <point x="179" y="-11"/>
      <point x="142" y="-11"/>
      <point x="104" y="4"/>
      <point x="104" y="17" type="qcurve"/>
      <point x="106" y="116" type="line"/>
      <point x="106" y="618" type="line"/>
      <point x="105" y="618" type="line"/>
      <point x="90" y="618"/>
      <point x="60" y="654"/>
      <point x="60" y="677"/>
      <point x="69" y="678" type="qcurve"/>
      <point x="235" y="710"/>
      <point x="293" y="711"/>
    </contour>
  </outline>
</glyph>
<glyph name="Q" format="2">
  <advance height="1000" width="745"/>
  <unicode hex="0051"/>
  <outline>
    <contour>
      <point x="511" y="87" type="qcurve"/>
      <point x="623" y="164"/>
      <point x="623" y="371" type="qcurve"/>
      <point x="623" y="483"/>
      <point x="568" y="564" type="qcurve"/>
      <point x="508" y="654"/>
      <point x="399" y="654" type="qcurve"/>
      <point x="353" y="654"/>
      <point x="256" y="611"/>
      <point x="214" y="570" type="qcurve"/>
      <point x="123" y="481"/>
      <point x="123" y="339" type="qcurve"/>
      <point x="123" y="259"/>
      <point x="171" y="125"/>
      <point x="275" y="45"/>
      <point x="358" y="45" type="qcurve"/>
      <point x="408" y="45"/>
      <point x="451" y="58" type="qcurve"/>
      <point x="366" y="136" type="line"/>
      <point x="350" y="151"/>
      <point x="333" y="158"/>
      <point x="330" y="167" type="qcurve"/>
      <point x="330" y="181"/>
      <point x="365" y="196" type="qcurve"/>
      <point x="379" y="202"/>
      <point x="388" y="202" type="qcurve"/>
      <point x="391" y="202" type="line"/>
      <point x="408" y="199"/>
      <point x="414" y="192" type="qcurve"/>
      <point x="433" y="165"/>
    </contour>
    <contour>
      <point x="223" y="646" type="qcurve"/>
      <point x="299" y="713"/>
      <point x="494" y="713"/>
      <point x="624" y="622"/>
      <point x="695" y="464"/>
      <point x="695" y="263"/>
      <point x="628" y="91"/>
      <point x="558" y="40" type="qcurve"/>
      <point x="581" y="17"/>
      <point x="634" y="-23"/>
      <point x="650" y="-29" type="qcurve"/>
      <point x="701" y="-50"/>
      <point x="701" y="-62" type="qcurve"/>
      <point x="701" y="-71"/>
      <point x="631" y="-71"/>
      <point x="586" y="-58"/>
      <point x="541" y="-23"/>
      <point x="505" y="9" type="qcurve"/>
      <point x="445" y="-18"/>
      <point x="366" y="-18" type="qcurve"/>
      <point x="259" y="-18"/>
      <point x="120" y="75"/>
      <point x="53" y="235"/>
      <point x="53" y="404"/>
      <point x="86" y="521"/>
      <point x="134" y="609"/>
      <point x="182" y="658"/>
      <point x="213" y="658"/>
    </contour>
  </outline>
</glyph>
<glyph name="U" format="2">
  <advance height="1000" width="710"/>
  <unicode hex="0055"/>
  <outline>
    <contour>
      <point x="180" y="680" type="qcurve"/>
      <point x="178" y="584" type="line"/>
      <point x="178" y="210" type="line"/>
      <point x="178" y="119"/>
      <point x="263" y="45"/>
      <point x="342" y="45" type="qcurve"/>
      <point x="398" y="45"/>
      <point x="484" y="96"/>
      <point x="533" y="185"/>
      <point x="533" y="242" type="qcurve"/>
      <point x="533" y="595" type="line"/>
      <point x="530" y="697" type="line"/>
      <point x="530" y="709"/>
      <point x="572" y="709"/>
      <point x="607" y="695"/>
      <point x="607" y="682" type="qcurve"/>
      <point x="605" y="594" type="line"/>
      <point x="605" y="230" type="line"/>
      <point x="605" y="156"/>
      <point x="539" y="44"/>
      <point x="421" y="-18"/>
      <point x="342" y="-18" type="qcurve"/>
      <point x="106" y="-18"/>
      <point x="106" y="198" type="qcurve"/>
      <point x="106" y="586" type="line"/>
      <point x="103" y="695" type="line"/>
      <point x="103" y="707"/>
      <point x="145" y="707"/>
      <point x="180" y="693"/>
    </contour>
  </outline>
</glyph>
<glyph name="V" format="2">
  <advance height="1000" width="620"/>
  <unicode hex="0056"/>
  <outline>
    <contour>
      <point x="11" y="688" type="qcurve"/>
      <point x="11" y="704"/>
      <point x="48" y="704" type="qcurve"/>
      <point x="64" y="704"/>
      <point x="94" y="694"/>
      <point x="96" y="684" type="qcurve"/>
      <point x="102" y="661"/>
      <point x="193" y="431"/>
      <point x="304" y="99" type="qcurve"/>
      <point x="432" y="440"/>
      <point x="524" y="666"/>
      <point x="533" y="700" type="qcurve"/>
      <point x="536" y="711"/>
      <point x="569" y="711"/>
      <point x="609" y="687"/>
      <point x="609" y="673" type="qcurve"/>
      <point x="609" y="668"/>
      <point x="585" y="628"/>
      <point x="573" y="600" type="qcurve"/>
      <point x="373" y="127"/>
      <point x="350" y="35" type="qcurve"/>
      <point x="346" y="17"/>
      <point x="344" y="6" type="qcurve"/>
      <point x="341" y="-17"/>
      <point x="318" y="-17" type="qcurve"/>
      <point x="302" y="-17"/>
      <point x="266" y="14"/>
      <point x="236" y="103"/>
      <point x="210" y="176" type="qcurve"/>
      <point x="67" y="573"/>
      <point x="12" y="684" type="qcurve"/>
      <point x="11" y="686"/>
    </contour>
  </outline>
</glyph>
<glyph name="bracketleft" format="2">
  <advance height="1000" width="350"/>
  <unicode hex="005B"/>
  <outline>
    <contour>
      <point x="226" y="-147" type="line"/>
      <point x="210" y="-147"/>
      <point x="190" y="-151" type="qcurve"/>
      <point x="177" y="-151"/>
      <point x="155" y="-125"/>
      <point x="155" y="-114" type="qcurve"/>
      <point x="158" y="-51" type="line"/>
      <point x="158" y="678" type="line"/>
      <point x="153" y="737" type="line"/>
      <point x="153" y="751"/>
      <point x="170" y="764"/>
      <point x="196" y="764" type="qcurve"/>
      <point x="300" y="766" type="line"/>
      <point x="301" y="766" type="line"/>
      <point x="314" y="766"/>
      <point x="330" y="741"/>
      <point x="330" y="711"/>
      <point x="315" y="711" type="qcurve"/>
      <point x="219" y="711" type="line"/>
      <point x="219" y="-95" type="line"/>
      <point x="294" y="-92"/>
      <point x="311" y="-92"/>
      <point x="327" y="-118"/>
      <point x="327" y="-147"/>
      <point x="313" y="-147" type="qcurve"/>
    </contour>
  </outline>
</glyph>
<glyph name="backslash" format="2">
  <advance height="1000" width="350"/>
  <unicode hex="005C"/>
  <outline>
    <contour>
      <point x="38" y="640" type="line"/>
      <point x="26" y="670"/>
      <point x="9" y="706"/>
      <point x="9" y="717"/>
      <point x="24" y="736"/>
      <point x="46" y="751"/>
      <point x="64" y="751"/>
      <point x="76" y="703"/>
      <point x="91" y="660" type="qcurve"/>
      <point x="305" y="70" type="line"/>
      <point x="315" y="42"/>
      <point x="336" y="3"/>
      <point x="336" y="-19"/>
      <point x="310" y="-42"/>
      <point x="284" y="-42"/>
      <point x="279" y="-26" type="qcurve"/>
      <point x="271" y="1"/>
      <point x="254" y="47" type="qcurve"/>
    </contour>
  </outline>
</glyph>
<glyph name="bracketright" format="2">
  <advance height="1000" width="350"/>
  <unicode hex="005D"/>
  <outline>
    <contour>
      <point x="124" y="763" type="line"/>
      <point x="140" y="763"/>
      <point x="160" y="767" type="qcurve"/>
      <point x="174" y="767"/>
      <point x="195" y="741"/>
      <point x="195" y="730" type="qcurve"/>
      <point x="192" y="667" type="line"/>
      <point x="192" y="-62" type="line"/>
      <point x="197" y="-121" type="line"/>
      <point x="197" y="-134"/>
      <point x="180" y="-148"/>
      <point x="154" y="-148" type="qcurve"/>
      <point x="75" y="-149" type="line"/>
      <point x="57" y="-149"/>
      <point x="50" y="-150" type="qcurve"/>
      <point x="49" y="-150" type="line"/>
      <point x="36" y="-150"/>
      <point x="20" y="-125"/>
      <point x="20" y="-95"/>
      <point x="35" y="-95" type="qcurve"/>
      <point x="131" y="-95" type="line"/>
      <point x="131" y="711" type="line"/>
      <point x="56" y="708"/>
      <point x="39" y="708"/>
      <point x="23" y="734"/>
      <point x="23" y="763"/>
      <point x="37" y="763" type="qcurve"/>
    </contour>
  </outline>
</glyph>
<glyph name="asciicircum" format="2">
  <advance height="1000" width="600"/>
  <unicode hex="005E"/>
  <outline>
    <contour>
      <point x="530" y="291" type="qcurve"/>
      <point x="530" y="274"/>
      <point x="484" y="274" type="qcurve"/>
      <point x="463" y="274"/>
      <point x="459" y="286" type="qcurve"/>
      <point x="447" y="328"/>
      <point x="438" y="346" type="qcurve"/>
      <point x="303" y="630" type="line"/>
      <point x="168" y="346" type="line"/>
      <point x="154" y="315"/>
      <point x="143" y="280" type="qcurve"/>
      <point x="140" y="272"/>
      <point x="110" y="272"/>
      <point x="77" y="287"/>
      <point x="77" y="297" type="qcurve"/>
      <point x="77" y="300"/>
      <point x="82" y="310" type="qcurve"/>
      <point x="104" y="346"/>
      <point x="110" y="362" type="qcurve"/>
      <point x="260" y="673" type="line"/>
      <point x="266" y="686"/>
      <point x="270" y="712"/>
      <point x="299" y="716" type="qcurve"/>
      <point x="302" y="717"/>
      <point x="322" y="717"/>
      <point x="333" y="697"/>
      <point x="339" y="686" type="qcurve"/>
      <point x="497" y="359" type="line"/>
      <point x="510" y="331"/>
      <point x="530" y="293"/>
    </contour>
  </outline>
</glyph>
<glyph name="grave" format="2">
  <advance height="1000" width="350"/>
  <unicode hex="0060"/>
  <unicode hex="0300"/>
  <unicode hex="02CB"/>
  <outline>
    <contour>
      <point x="93" y="675" type="line"/>
      <point x="85" y="682"/>
      <point x="85" y="706"/>
      <point x="115" y="732"/>
      <point x="145" y="732"/>
      <point x="153" y="723" type="qcurve"/>
      <point x="256" y="617" type="line"/>
      <point x="263" y="610"/>
      <point x="263" y="587"/>
      <point x="243" y="564"/>
      <point x="220" y="564"/>
      <point x="213" y="571" type="qcurve"/>
    </contour>
  </outline>
</glyph>
<glyph name="a" format="2">
  <advance height="1000" width="575"/>
  <unicode hex="0061"/>
  <outline>
    <contour>
      <point x="124" y="180" type="qcurve"/>
      <point x="124" y="42"/>
      <point x="220" y="42" type="qcurve"/>
      <point x="264" y="42"/>
      <point x="307" y="74" type="qcurve"/>
      <point x="411" y="150"/>
      <point x="411" y="330" type="qcurve"/>
      <point x="411" y="355"/>
      <point x="412" y="380" type="qcurve"/>
      <point x="403" y="371"/>
      <point x="391" y="371"/>
      <point x="388" y="375" type="qcurve"/>
      <point x="357" y="428"/>
      <point x="238" y="428"/>
      <point x="124" y="284"/>
    </contour>
    <contour>
      <point x="470" y="-13" type="qcurve"/>
      <point x="429" y="-13"/>
      <point x="415" y="118" type="qcurve"/>
      <point x="378" y="48"/>
      <point x="273" y="-18"/>
      <point x="217" y="-18" type="qcurve"/>
      <point x="144" y="-18"/>
      <point x="56" y="81"/>
      <point x="56" y="175" type="qcurve"/>
      <point x="56" y="300"/>
      <point x="134" y="394" type="qcurve"/>
      <point x="169" y="437"/>
      <point x="257" y="486"/>
      <point x="303" y="486" type="qcurve"/>
      <point x="381" y="486"/>
      <point x="413" y="420" type="qcurve"/>
      <point x="413" y="475" type="line"/>
      <point x="413" y="485"/>
      <point x="451" y="485"/>
      <point x="489" y="471"/>
      <point x="489" y="459" type="qcurve"/>
      <point x="489" y="457" type="line"/>
      <point x="476" y="368"/>
      <point x="476" y="195" type="qcurve"/>
      <point x="476" y="90"/>
      <point x="511" y="35" type="qcurve"/>
      <point x="513" y="31"/>
      <point x="513" y="18"/>
      <point x="486" y="-13"/>
    </contour>
  </outline>
</glyph>
<glyph name="b" format="2">
  <advance height="1000" width="573"/>
  <unicode hex="0062"/>
  <outline>
    <contour>
      <point x="156" y="101" type="qcurve"/>
      <point x="160" y="103"/>
      <point x="163" y="103" type="qcurve"/>
      <point x="174" y="103"/>
      <point x="189" y="81" type="qcurve"/>
      <point x="216" y="41"/>
      <point x="334" y="41"/>
      <point x="449" y="169"/>
      <point x="449" y="374"/>
      <point x="396" y="410" type="qcurve"/>
      <point x="372" y="426"/>
      <point x="304" y="426"/>
      <point x="229" y="382"/>
      <point x="165" y="289"/>
      <point x="159" y="209" type="qcurve"/>
      <point x="156" y="167"/>
    </contour>
    <contour>
      <point x="162" y="681" type="qcurve"/>
      <point x="158" y="592" type="line"/>
      <point x="158" y="369" type="line"/>
      <point x="198" y="437"/>
      <point x="291" y="486"/>
      <point x="346" y="486" type="qcurve"/>
      <point x="421" y="486"/>
      <point x="517" y="380"/>
      <point x="517" y="194"/>
      <point x="451" y="60"/>
      <point x="340" y="-17"/>
      <point x="272" y="-17" type="qcurve"/>
      <point x="233" y="-17"/>
      <point x="172" y="17"/>
      <point x="155" y="44" type="qcurve"/>
      <point x="152" y="26" type="line"/>
      <point x="150" y="16"/>
      <point x="120" y="-5"/>
      <point x="107" y="-5" type="qcurve"/>
      <point x="90" y="-5"/>
      <point x="90" y="15" type="qcurve"/>
      <point x="92" y="106" type="line"/>
      <point x="92" y="593" type="line"/>
      <point x="89" y="699" type="line"/>
      <point x="89" y="709"/>
      <point x="125" y="709"/>
      <point x="162" y="694"/>
    </contour>
  </outline>
</glyph>
<glyph name="c" format="2">
  <advance height="1000" width="530"/>
  <unicode hex="0063"/>
  <outline>
    <contour>
      <point x="468" y="155"/>
      <point x="486" y="155"/>
      <point x="486" y="137"/>
      <point x="458" y="86"/>
      <point x="429" y="56" type="qcurve"/>
      <point x="357" y="-18"/>
      <point x="250" y="-18" type="qcurve"/>
      <point x="198" y="-18"/>
      <point x="109" y="31"/>
      <point x="56" y="126"/>
      <point x="56" y="254"/>
      <point x="101" y="360"/>
      <point x="175" y="440"/>
      <point x="267" y="486"/>
      <point x="354" y="486"/>
      <point x="410" y="463"/>
      <point x="443" y="431"/>
      <point x="458" y="404"/>
      <point x="458" y="401" type="qcurve"/>
      <point x="458" y="385"/>
      <point x="428" y="355"/>
      <point x="410" y="355"/>
      <point x="407" y="360" type="qcurve"/>
      <point x="400" y="374"/>
      <point x="386" y="400"/>
      <point x="375" y="407" type="qcurve"/>
      <point x="346" y="427"/>
      <point x="315" y="427" type="qcurve"/>
      <point x="251" y="427"/>
      <point x="188" y="360" type="qcurve"/>
      <point x="124" y="288"/>
      <point x="124" y="199" type="qcurve"/>
      <point x="124" y="147"/>
      <point x="144" y="112" type="qcurve"/>
      <point x="183" y="40"/>
      <point x="257" y="40" type="qcurve"/>
      <point x="353" y="40"/>
      <point x="453" y="140" type="qcurve"/>
    </contour>
  </outline>
</glyph>
<glyph name="d" format="2">
  <advance height="1000" width="575"/>
  <unicode hex="0064"/>
  <outline>
    <contour>
      <point x="417" y="381" type="line"/>
      <point x="413" y="377"/>
      <point x="402" y="377"/>
      <point x="398" y="382" type="qcurve"/>
      <point x="365" y="428"/>
      <point x="300" y="428" type="qcurve"/>
      <point x="269" y="428"/>
      <point x="203" y="387"/>
      <point x="178" y="352" type="qcurve"/>
      <point x="124" y="276"/>
      <point x="124" y="116"/>
      <point x="177" y="42"/>
      <point x="214" y="42" type="qcurve"/>
      <point x="286" y="42"/>
      <point x="417" y="184"/>
      <point x="417" y="276" type="qcurve"/>
    </contour>
    <contour>
      <point x="485" y="681" type="qcurve"/>
      <point x="483" y="592" type="line"/>
      <point x="483" y="185" type="line"/>
      <point x="483" y="142"/>
      <point x="501" y="59"/>
      <point x="517" y="39" type="qcurve"/>
      <point x="519" y="35"/>
      <point x="519" y="20"/>
      <point x="491" y="-12"/>
      <point x="477" y="-12" type="qcurve"/>
      <point x="453" y="-12"/>
      <point x="420" y="91"/>
      <point x="420" y="118" type="qcurve"/>
      <point x="377" y="46"/>
      <point x="279" y="-18"/>
      <point x="147" y="-18"/>
      <point x="56" y="88"/>
      <point x="56" y="186" type="qcurve"/>
      <point x="56" y="304"/>
      <point x="208" y="486"/>
      <point x="305" y="486" type="qcurve"/>
      <point x="343" y="486"/>
      <point x="401" y="457"/>
      <point x="417" y="434" type="qcurve"/>
      <point x="417" y="593" type="line"/>
      <point x="413" y="699" type="line"/>
      <point x="413" y="709"/>
      <point x="449" y="709"/>
      <point x="485" y="694"/>
    </contour>
  </outline>
</glyph>
<glyph name="f" format="2">
  <advance height="1000" width="370"/>
  <unicode hex="0066"/>
  <outline>
    <contour>
      <point x="125" y="17" type="qcurve"/>
      <point x="127" y="116" type="line"/>
      <point x="127" y="423" type="line"/>
      <point x="114" y="423" type="line"/>
      <point x="50" y="419" type="line"/>
      <point x="49" y="419" type="line"/>
      <point x="37" y="419"/>
      <point x="17" y="449"/>
      <point x="17" y="476"/>
      <point x="29" y="476" type="qcurve"/>
      <point x="103" y="476" type="line"/>
      <point x="127" y="477" type="line"/>
      <point x="127" y="589" type="line"/>
      <point x="127" y="664"/>
      <point x="188" y="694" type="qcurve"/>
      <point x="216" y="708"/>
      <point x="282" y="708"/>
      <point x="330" y="686"/>
      <point x="355" y="657"/>
      <point x="355" y="631"/>
      <point x="335" y="600"/>
      <point x="316" y="600"/>
      <point x="309" y="611" type="qcurve"/>
      <point x="290" y="647"/>
      <point x="244" y="647" type="qcurve"/>
      <point x="225" y="647"/>
      <point x="195" y="617"/>
      <point x="195" y="585" type="qcurve"/>
      <point x="195" y="479" type="line"/>
      <point x="216" y="480" type="line"/>
      <point x="228" y="481"/>
      <point x="263" y="483"/>
      <point x="295" y="486"/>
      <point x="302" y="486" type="qcurve"/>
      <point x="303" y="486" type="line"/>
      <point x="316" y="486"/>
      <point x="335" y="456"/>
      <point x="335" y="428"/>
      <point x="323" y="428" type="qcurve"/>
      <point x="266" y="428" type="line"/>
      <point x="240" y="428"/>
      <point x="227" y="427" type="qcurve"/>
      <point x="195" y="426" type="line"/>
      <point x="195" y="105" type="line"/>
      <point x="198" y="-1" type="line"/>
      <point x="198" y="-11"/>
      <point x="162" y="-11"/>
      <point x="125" y="4"/>
    </contour>
  </outline>
</glyph>
<glyph name="h" format="2">
  <advance height="1000" width="588"/>
  <unicode hex="0068"/>
  <outline>
    <contour>
      <point x="496" y="105" type="line"/>
      <point x="499" y="-1" type="line"/>
      <point x="499" y="-11"/>
      <point x="464" y="-11"/>
      <point x="428" y="4"/>
      <point x="428" y="16" type="qcurve"/>
      <point x="428" y="17" type="line"/>
      <point x="429" y="25"/>
      <point x="429" y="44" type="qcurve"/>
      <point x="430" y="115" type="line"/>
      <point x="430" y="293" type="line"/>
      <point x="430" y="352"/>
      <point x="398" y="423"/>
      <point x="348" y="423" type="qcurve"/>
      <point x="269" y="423"/>
      <point x="162" y="308"/>
      <point x="160" y="162" type="qcurve"/>
      <point x="159" y="129"/>
      <point x="158" y="105" type="qcurve"/>
      <point x="158" y="89" type="line"/>
      <point x="158" y="59"/>
      <point x="161" y="-1" type="qcurve"/>
      <point x="161" y="-11"/>
      <point x="126" y="-11"/>
      <point x="90" y="4"/>
      <point x="90" y="17" type="qcurve"/>
      <point x="92" y="115" type="line"/>
      <point x="92" y="590" type="line"/>
      <point x="89" y="697" type="line"/>
      <point x="89" y="707"/>
      <point x="124" y="707"/>
      <point x="160" y="692"/>
      <point x="160" y="679" type="qcurve"/>
      <point x="158" y="580" type="line"/>
      <point x="158" y="376" type="line"/>
      <point x="190" y="429"/>
      <point x="293" y="485"/>
      <point x="344" y="485" type="qcurve"/>
      <point x="436" y="485"/>
      <point x="470" y="422" type="qcurve"/>
      <point x="496" y="376"/>
      <point x="496" y="297" type="qcurve"/>
    </contour>
  </outline>
</glyph>
<glyph name="i" format="2">
  <advance height="1000" width="263"/>
  <unicode hex="0069"/>
  <outline>
    <contour>
      <point x="95" y="17" type="qcurve"/>
      <point x="97" y="105" type="line"/>
      <point x="97" y="368" type="line"/>
      <point x="94" y="475" type="line"/>
      <point x="94" y="484"/>
      <point x="130" y="484"/>
      <point x="168" y="469"/>
      <point x="168" y="457" type="qcurve"/>
      <point x="166" y="368" type="line"/>
      <point x="166" y="105" type="line"/>
      <point x="169" y="-1" type="line"/>
      <point x="169" y="-10"/>
      <point x="134" y="-10"/>
      <point x="95" y="5"/>
    </contour>
    <contour>
      <point x="149" y="698"/>
      <point x="180" y="658"/>
      <point x="180" y="617"/>
      <point x="154" y="590"/>
      <point x="112" y="590"/>
      <point x="81" y="629"/>
      <point x="81" y="670"/>
      <point x="106" y="698"/>
    </contour>
  </outline>
</glyph>
<glyph name="j" format="2">
  <advance height="1000" width="301"/>
  <unicode hex="006A"/>
  <outline>
    <contour>
      <point x="209" y="457" type="qcurve"/>
      <point x="207" y="364" type="line"/>
      <point x="207" y="-30" type="line"/>
      <point x="207" y="-105"/>
      <point x="168" y="-141" type="qcurve"/>
      <point x="146" y="-162"/>
      <point x="58" y="-162"/>
      <point x="1" y="-131"/>
      <point x="1" y="-98"/>
      <point x="21" y="-66"/>
      <point x="43" y="-66"/>
      <point x="54" y="-79" type="qcurve"/>
      <point x="70" y="-100"/>
      <point x="104" y="-100" type="qcurve"/>
      <point x="121" y="-100"/>
      <point x="139" y="-62"/>
      <point x="139" y="-31" type="qcurve"/>
      <point x="139" y="364" type="line"/>
      <point x="136" y="475" type="line"/>
      <point x="136" y="485"/>
      <point x="172" y="485"/>
      <point x="209" y="470"/>
    </contour>
    <contour>
      <point x="192" y="698"/>
      <point x="223" y="658"/>
      <point x="223" y="617"/>
      <point x="197" y="590"/>
      <point x="155" y="590"/>
      <point x="124" y="629"/>
      <point x="124" y="670"/>
      <point x="149" y="698"/>
    </contour>
  </outline>
</glyph>
<glyph name="k" format="2">
  <advance height="1000" width="510"/>
  <unicode hex="006B"/>
  <outline>
    <contour>
      <point x="90" y="18" type="qcurve"/>
      <point x="92" y="106" type="line"/>
      <point x="92" y="590" type="line"/>
      <point x="89" y="697" type="line"/>
      <point x="89" y="707"/>
      <point x="125" y="707"/>
      <point x="162" y="692"/>
      <point x="162" y="679" type="qcurve"/>
      <point x="158" y="590" type="line"/>
      <point x="158" y="314" type="line"/>
      <point x="346" y="444" type="line"/>
      <point x="362" y="455"/>
      <point x="386" y="479" type="qcurve"/>
      <point x="390" y="484"/>
      <point x="414" y="484"/>
      <point x="428" y="479" type="qcurve"/>
      <point x="462" y="467"/>
      <point x="462" y="452" type="qcurve"/>
      <point x="462" y="446"/>
      <point x="396" y="408"/>
      <point x="383" y="399" type="qcurve"/>
      <point x="231" y="293" type="line"/>
      <point x="260" y="265"/>
      <point x="337" y="183"/>
      <point x="417" y="101"/>
      <point x="448" y="69" type="qcurve"/>
      <point x="478" y="42"/>
      <point x="505" y="30" type="qcurve"/>
      <point x="510" y="28"/>
      <point x="510" y="16"/>
      <point x="500" y="8" type="qcurve"/>
      <point x="476" y="-14"/>
      <point x="454" y="-14" type="qcurve"/>
      <point x="447" y="-14"/>
      <point x="439" y="-8" type="qcurve"/>
      <point x="394" y="29"/>
      <point x="231" y="209"/>
      <point x="182" y="258" type="qcurve"/>
      <point x="158" y="243" type="line"/>
      <point x="158" y="106" type="line"/>
      <point x="163" y="0" type="line"/>
      <point x="163" y="-10"/>
      <point x="127" y="-10"/>
      <point x="90" y="5"/>
    </contour>
  </outline>
</glyph>
<glyph name="l" format="2">
  <advance height="1000" width="263"/>
  <unicode hex="006C"/>
  <outline>
    <contour>
      <point x="171" y="44" type="qcurve"/>
      <point x="175" y="40"/>
      <point x="183" y="40" type="qcurve"/>
      <point x="185" y="40" type="line"/>
      <point x="206" y="41"/>
      <point x="232" y="68" type="qcurve"/>
      <point x="244" y="79"/>
      <point x="263" y="79"/>
      <point x="263" y="47"/>
      <point x="236" y="13" type="qcurve"/>
      <point x="206" y="-21"/>
      <point x="176" y="-21" type="qcurve"/>
      <point x="166" y="-21" type="line"/>
      <point x="132" y="-17"/>
      <point x="115" y="5" type="qcurve"/>
      <point x="98" y="29"/>
      <point x="97" y="75" type="qcurve"/>
      <point x="97" y="590" type="line"/>
      <point x="94" y="697" type="line"/>
      <point x="94" y="707"/>
      <point x="131" y="707"/>
      <point x="168" y="692"/>
      <point x="168" y="679" type="qcurve"/>
      <point x="166" y="590" type="line"/>
      <point x="166" y="78" type="line"/>
      <point x="166" y="51"/>
    </contour>
  </outline>
</glyph>
<glyph name="m" format="2">
  <advance height="1000" width="816"/>
  <unicode hex="006D"/>
  <outline>
    <contour>
      <point x="654" y="17" type="qcurve"/>
      <point x="658" y="105" type="line"/>
      <point x="658" y="293" type="line"/>
      <point x="658" y="353"/>
      <point x="618" y="426"/>
      <point x="574" y="426" type="qcurve"/>
      <point x="544" y="426"/>
      <point x="481" y="382"/>
      <point x="438" y="310"/>
      <point x="438" y="268" type="qcurve"/>
      <point x="438" y="105" type="line"/>
      <point x="443" y="-1" type="line"/>
      <point x="443" y="-11"/>
      <point x="407" y="-11"/>
      <point x="371" y="4"/>
      <point x="371" y="17" type="qcurve"/>
      <point x="375" y="105" type="line"/>
      <point x="375" y="293" type="line"/>
      <point x="375" y="426"/>
      <point x="301" y="426" type="qcurve"/>
      <point x="249" y="426"/>
      <point x="210" y="380" type="qcurve"/>
      <point x="163" y="322"/>
      <point x="160" y="210" type="qcurve"/>
      <point x="158" y="156"/>
      <point x="157" y="105" type="qcurve"/>
      <point x="162" y="-1" type="line"/>
      <point x="162" y="-11"/>
      <point x="126" y="-11"/>
      <point x="89" y="4"/>
      <point x="89" y="17" type="qcurve"/>
      <point x="91" y="105" type="line"/>
      <point x="91" y="356" type="line"/>
      <point x="88" y="472" type="line"/>
      <point x="88" y="482"/>
      <point x="124" y="482"/>
      <point x="161" y="467"/>
      <point x="161" y="444"/>
      <point x="160" y="417"/>
      <point x="160" y="397" type="qcurve"/>
      <point x="180" y="438"/>
      <point x="257" y="486"/>
      <point x="357" y="486"/>
      <point x="415" y="430"/>
      <point x="424" y="393" type="qcurve"/>
      <point x="450" y="439"/>
      <point x="534" y="486"/>
      <point x="629" y="486"/>
      <point x="694" y="431"/>
      <point x="724" y="344"/>
      <point x="724" y="297" type="qcurve"/>
      <point x="724" y="105" type="line"/>
      <point x="727" y="-1" type="line"/>
      <point x="727" y="-11"/>
      <point x="691" y="-11"/>
      <point x="654" y="4"/>
    </contour>
  </outline>
</glyph>
<glyph name="n" format="2">
  <advance height="1000" width="588"/>
  <unicode hex="006E"/>
  <outline>
    <contour>
      <point x="496" y="105" type="line"/>
      <point x="499" y="-1" type="line"/>
      <point x="499" y="-11"/>
      <point x="464" y="-11"/>
      <point x="428" y="4"/>
      <point x="428" y="16" type="qcurve"/>
      <point x="428" y="17" type="line"/>
      <point x="429" y="25"/>
      <point x="429" y="44" type="qcurve"/>
      <point x="430" y="115" type="line"/>
      <point x="430" y="293" type="line"/>
      <point x="430" y="352"/>
      <point x="398" y="423"/>
      <point x="348" y="423" type="qcurve"/>
      <point x="269" y="423"/>
      <point x="162" y="308"/>
      <point x="160" y="162" type="qcurve"/>
      <point x="159" y="129"/>
      <point x="158" y="105" type="qcurve"/>
      <point x="158" y="89" type="line"/>
      <point x="158" y="59"/>
      <point x="161" y="-1" type="qcurve"/>
      <point x="161" y="-11"/>
      <point x="126" y="-11"/>
      <point x="90" y="4"/>
      <point x="90" y="17" type="qcurve"/>
      <point x="92" y="115" type="line"/>
      <point x="92" y="364" type="line"/>
      <point x="89" y="471" type="line"/>
      <point x="89" y="481"/>
      <point x="124" y="481"/>
      <point x="160" y="466"/>
      <point x="160" y="453" type="qcurve"/>
      <point x="160" y="439" type="line"/>
      <point x="158" y="411"/>
      <point x="158" y="376" type="qcurve"/>
      <point x="190" y="429"/>
      <point x="293" y="485"/>
      <point x="344" y="485" type="qcurve"/>
      <point x="436" y="485"/>
      <point x="470" y="422" type="qcurve"/>
      <point x="496" y="376"/>
      <point x="496" y="297" type="qcurve"/>
    </contour>
  </outline>
</glyph>
<glyph name="o" format="2">
  <advance height="1000" width="562"/>
  <unicode hex="006F"/>
  <outline>
    <contour>
      <point x="267" y="43" type="qcurve"/>
      <point x="316" y="43"/>
      <point x="393" y="96"/>
      <point x="439" y="188"/>
      <point x="439" y="328"/>
      <point x="374" y="426"/>
      <point x="228" y="426"/>
      <point x="123" y="289"/>
      <point x="123" y="126"/>
      <point x="198" y="43"/>
    </contour>
    <contour>
      <point x="194" y="445" type="qcurve"/>
      <point x="249" y="486"/>
      <point x="369" y="486"/>
      <point x="413" y="457" type="qcurve"/>
      <point x="506" y="396"/>
      <point x="506" y="245" type="qcurve"/>
      <point x="506" y="143"/>
      <point x="444" y="66" type="qcurve"/>
      <point x="378" y="-18"/>
      <point x="167" y="-18"/>
      <point x="56" y="103"/>
      <point x="56" y="207" type="qcurve"/>
      <point x="56" y="287"/>
      <point x="106" y="374" type="qcurve"/>
      <point x="126" y="410"/>
      <point x="166" y="454"/>
      <point x="187" y="454"/>
    </contour>
  </outline>
</glyph>
<glyph name="q" format="2">
  <advance height="1000" width="576"/>
  <unicode hex="0071"/>
  <outline>
    <contour>
      <point x="416" y="381" type="line"/>
      <point x="412" y="377"/>
      <point x="401" y="377"/>
      <point x="397" y="382" type="qcurve"/>
      <point x="364" y="428"/>
      <point x="300" y="428" type="qcurve"/>
      <point x="268" y="428"/>
      <point x="202" y="387"/>
      <point x="177" y="352" type="qcurve"/>
      <point x="123" y="276"/>
      <point x="123" y="116"/>
      <point x="176" y="42"/>
      <point x="213" y="42" type="qcurve"/>
      <point x="285" y="42"/>
      <point x="416" y="184"/>
      <point x="416" y="276" type="qcurve"/>
    </contour>
    <contour>
      <point x="419" y="112" type="line"/>
      <point x="347" y="-18"/>
      <point x="212" y="-18" type="qcurve"/>
      <point x="146" y="-18"/>
      <point x="55" y="88"/>
      <point x="55" y="186" type="qcurve"/>
      <point x="55" y="304"/>
      <point x="207" y="486"/>
      <point x="304" y="486" type="qcurve"/>
      <point x="342" y="486"/>
      <point x="402" y="457"/>
      <point x="418" y="434" type="qcurve"/>
      <point x="418" y="439" type="line"/>
      <point x="414" y="475" type="line"/>
      <point x="414" y="485"/>
      <point x="450" y="485"/>
      <point x="486" y="470"/>
      <point x="486" y="457" type="qcurve"/>
      <point x="484" y="368" type="line"/>
      <point x="484" y="-60" type="line"/>
      <point x="487" y="-166" type="line"/>
      <point x="487" y="-176"/>
      <point x="451" y="-176"/>
      <point x="414" y="-161"/>
      <point x="414" y="-148" type="qcurve"/>
      <point x="418" y="-59" type="line"/>
    </contour>
  </outline>
</glyph>
<glyph name="r" format="2">
  <advance height="1000" width="430"/>
  <unicode hex="0072"/>
  <outline>
    <contour>
      <point x="92" y="18" type="qcurve"/>
      <point x="94" y="106" type="line"/>
      <point x="94" y="367" type="line"/>
      <point x="91" y="474" type="line"/>
      <point x="91" y="484"/>
      <point x="127" y="484"/>
      <point x="164" y="469"/>
      <point x="164" y="446"/>
      <point x="161" y="422"/>
      <point x="161" y="405" type="qcurve"/>
      <point x="181" y="438"/>
      <point x="255" y="486"/>
      <point x="337" y="486"/>
      <point x="389" y="466"/>
      <point x="422" y="438"/>
      <point x="422" y="410"/>
      <point x="399" y="374"/>
      <point x="378" y="374"/>
      <point x="372" y="384" type="qcurve"/>
      <point x="362" y="403"/>
      <point x="319" y="421"/>
      <point x="304" y="421" type="qcurve"/>
      <point x="262" y="421"/>
      <point x="226" y="395" type="qcurve"/>
      <point x="174" y="357"/>
      <point x="164" y="266" type="qcurve"/>
      <point x="160" y="230"/>
      <point x="160" y="106" type="qcurve"/>
      <point x="165" y="0" type="line"/>
      <point x="165" y="-10"/>
      <point x="129" y="-10"/>
      <point x="92" y="5"/>
    </contour>
  </outline>
</glyph>
<glyph name="t" format="2">
  <advance height="1000" width="360"/>
  <unicode hex="0074"/>
  <outline>
    <contour>
      <point x="183" y="617" type="qcurve"/>
      <point x="181" y="528" type="line"/>
      <point x="181" y="480" type="line"/>
      <point x="209" y="481" type="line"/>
      <point x="245" y="483"/>
      <point x="285" y="487" type="qcurve"/>
      <point x="286" y="487" type="line"/>
      <point x="299" y="487"/>
      <point x="318" y="457"/>
      <point x="318" y="429"/>
      <point x="307" y="429" type="qcurve"/>
      <point x="268" y="429" type="line"/>
      <point x="240" y="429"/>
      <point x="220" y="428" type="qcurve"/>
      <point x="181" y="427" type="line"/>
      <point x="181" y="108" type="line"/>
      <point x="181" y="68"/>
      <point x="195" y="46"/>
      <point x="214" y="46" type="qcurve"/>
      <point x="256" y="46"/>
      <point x="310" y="87" type="qcurve"/>
      <point x="327" y="100"/>
      <point x="347" y="100"/>
      <point x="347" y="90" type="qcurve"/>
      <point x="347" y="69"/>
      <point x="302" y="26" type="qcurve"/>
      <point x="252" y="-18"/>
      <point x="156" y="-18"/>
      <point x="113" y="46"/>
      <point x="113" y="110" type="qcurve"/>
      <point x="113" y="424" type="line"/>
      <point x="108" y="424" type="line"/>
      <point x="107" y="424"/>
      <point x="47" y="420" type="qcurve"/>
      <point x="46" y="420" type="line"/>
      <point x="33" y="420"/>
      <point x="15" y="450"/>
      <point x="15" y="477"/>
      <point x="26" y="477" type="qcurve"/>
      <point x="113" y="477" type="line"/>
      <point x="113" y="528" type="line"/>
      <point x="111" y="635" type="line"/>
      <point x="111" y="645"/>
      <point x="147" y="645"/>
      <point x="183" y="630"/>
    </contour>
  </outline>
</glyph>
<glyph name="v" format="2">
  <advance height="1000" width="490"/>
  <unicode hex="0076"/>
  <outline>
    <contour>
      <point x="29" y="463" type="qcurve"/>
      <point x="29" y="481"/>
      <point x="80" y="481" type="qcurve"/>
      <point x="104" y="481"/>
      <point x="107" y="468" type="qcurve"/>
      <point x="117" y="425"/>
      <point x="125" y="405" type="qcurve"/>
      <point x="238" y="90" type="line"/>
      <point x="368" y="405" type="line"/>
      <point x="380" y="434"/>
      <point x="391" y="476" type="qcurve"/>
      <point x="394" y="486"/>
      <point x="428" y="486"/>
      <point x="465" y="469"/>
      <point x="465" y="457" type="qcurve"/>
      <point x="465" y="455"/>
      <point x="438" y="403"/>
      <point x="431" y="386" type="qcurve"/>
      <point x="295" y="65" type="line"/>
      <point x="286" y="44"/>
      <point x="273" y="5" type="qcurve"/>
      <point x="266" y="-18"/>
      <point x="227" y="-18"/>
      <point x="211" y="1" type="qcurve"/>
      <point x="203" y="9"/>
      <point x="197" y="27"/>
      <point x="189" y="46" type="qcurve"/>
      <point x="61" y="389" type="line"/>
      <point x="55" y="406"/>
      <point x="29" y="460"/>
    </contour>
  </outline>
</glyph>
<glyph name="w" format="2">
  <advance height="1000" width="730"/>
  <unicode hex="0077"/>
  <outline>
    <contour>
      <point x="25" y="462" type="qcurve"/>
      <point x="25" y="478"/>
      <point x="60" y="478" type="qcurve"/>
      <point x="75" y="478"/>
      <point x="104" y="468"/>
      <point x="105" y="457" type="qcurve"/>
      <point x="107" y="447"/>
      <point x="111" y="419"/>
      <point x="114" y="408" type="qcurve"/>
      <point x="200" y="84" type="line"/>
      <point x="308" y="394" type="line"/>
      <point x="313" y="409"/>
      <point x="316" y="440"/>
      <point x="318" y="451" type="qcurve"/>
      <point x="320" y="468"/>
      <point x="364" y="468"/>
      <point x="405" y="454"/>
      <point x="408" y="434"/>
      <point x="410" y="413"/>
      <point x="413" y="403" type="qcurve"/>
      <point x="508" y="84" type="line"/>
      <point x="615" y="406" type="line"/>
      <point x="620" y="420"/>
      <point x="628" y="456"/>
      <point x="632" y="474" type="qcurve"/>
      <point x="635" y="485"/>
      <point x="671" y="485"/>
      <point x="705" y="470"/>
      <point x="705" y="459" type="qcurve"/>
      <point x="705" y="456"/>
      <point x="694" y="432"/>
      <point x="677" y="387" type="qcurve"/>
      <point x="564" y="65" type="line"/>
      <point x="560" y="53"/>
      <point x="551" y="22"/>
      <point x="546" y="7" type="qcurve"/>
      <point x="539" y="-18"/>
      <point x="515" y="-18" type="qcurve"/>
      <point x="502" y="-18"/>
      <point x="475" y="-6"/>
      <point x="461" y="9"/>
      <point x="457" y="33"/>
      <point x="453" y="46" type="qcurve"/>
      <point x="362" y="367" type="line"/>
      <point x="259" y="65" type="line"/>
      <point x="253" y="48"/>
      <point x="246" y="21"/>
      <point x="234" y="-18"/>
      <point x="185" y="-18"/>
      <point x="167" y="2" type="qcurve"/>
      <point x="160" y="9"/>
      <point x="156" y="27"/>
      <point x="150" y="46" type="qcurve"/>
      <point x="48" y="399" type="line"/>
      <point x="38" y="426" type="line"/>
      <point x="32" y="443"/>
      <point x="25" y="459"/>
    </contour>
  </outline>
</glyph>
<glyph name="x" format="2">
  <advance height="1000" width="500"/>
  <unicode hex="0078"/>
  <outline>
    <contour>
      <point x="251" y="194" type="line"/>
      <point x="150" y="56" type="line"/>
      <point x="141" y="44"/>
      <point x="120" y="9"/>
      <point x="114" y="1" type="qcurve"/>
      <point x="106" y="-12"/>
      <point x="68" y="-12"/>
      <point x="34" y="1"/>
      <point x="34" y="10" type="qcurve"/>
      <point x="34" y="13"/>
      <point x="58" y="37"/>
      <point x="101" y="90" type="qcurve"/>
      <point x="214" y="244" type="line"/>
      <point x="107" y="392" type="line"/>
      <point x="81" y="427"/>
      <point x="52" y="454"/>
      <point x="52" y="457" type="qcurve"/>
      <point x="52" y="465"/>
      <point x="90" y="480"/>
      <point x="123" y="480"/>
      <point x="128" y="472" type="qcurve"/>
      <point x="143" y="445"/>
      <point x="158" y="424" type="qcurve"/>
      <point x="252" y="295" type="line"/>
      <point x="349" y="428" type="line"/>
      <point x="358" y="440"/>
      <point x="375" y="469"/>
      <point x="384" y="484"/>
      <point x="416" y="484"/>
      <point x="453" y="469"/>
      <point x="453" y="461" type="qcurve"/>
      <point x="453" y="458"/>
      <point x="429" y="435"/>
      <point x="398" y="396" type="qcurve"/>
      <point x="288" y="245" type="line"/>
      <point x="400" y="92" type="line"/>
      <point x="412" y="76"/>
      <point x="465" y="17"/>
      <point x="465" y="13" type="qcurve"/>
      <point x="465" y="4"/>
      <point x="431" y="-9"/>
      <point x="392" y="-9"/>
      <point x="386" y="1" type="qcurve"/>
      <point x="360" y="44"/>
      <point x="349" y="58" type="qcurve"/>
    </contour>
  </outline>
</glyph>
<glyph name="y" format="2">
  <advance height="1000" width="500"/>
  <unicode hex="0079"/>
  <outline>
    <contour>
      <point x="29" y="464" type="qcurve"/>
      <point x="29" y="480"/>
      <point x="104" y="480"/>
      <point x="110" y="464" type="qcurve"/>
      <point x="118" y="441"/>
      <point x="138" y="393" type="qcurve"/>
      <point x="254" y="124" type="line"/>
      <point x="377" y="383" type="line"/>
      <point x="397" y="422"/>
      <point x="413" y="476" type="qcurve"/>
      <point x="416" y="485"/>
      <point x="445" y="485"/>
      <point x="479" y="463"/>
      <point x="479" y="441"/>
      <point x="468" y="420"/>
      <point x="446" y="379"/>
      <point x="437" y="361" type="qcurve"/>
      <point x="226" y="-82" type="line"/>
      <point x="206" y="-124"/>
      <point x="155" y="-164"/>
      <point x="116" y="-164" type="qcurve"/>
      <point x="106" y="-164" type="line"/>
      <point x="87" y="-164"/>
      <point x="39" y="-156"/>
      <point x="16" y="-137" type="qcurve"/>
      <point x="11" y="-132"/>
      <point x="11" y="-110"/>
      <point x="31" y="-75"/>
      <point x="51" y="-75"/>
      <point x="76" y="-101"/>
      <point x="129" y="-101"/>
      <point x="160" y="-77"/>
      <point x="174" y="-46" type="qcurve"/>
      <point x="218" y="46" type="line"/>
      <point x="72" y="377" type="line"/>
      <point x="50" y="425"/>
      <point x="29" y="462"/>
    </contour>
  </outline>
</glyph>
<glyph name="z" format="2">
  <advance height="1000" width="490"/>
  <unicode hex="007A"/>
  <outline>
    <contour>
      <point x="291" y="60" type="line"/>
      <point x="403" y="60"/>
      <point x="419" y="61" type="qcurve"/>
      <point x="420" y="61" type="line"/>
      <point x="431" y="61"/>
      <point x="449" y="25"/>
      <point x="449" y="-7"/>
      <point x="438" y="-7" type="qcurve"/>
      <point x="397" y="-3"/>
      <point x="357" y="-1" type="qcurve"/>
      <point x="222" y="-1" type="line"/>
      <point x="132" y="-1"/>
      <point x="78" y="-10"/>
      <point x="56" y="-10"/>
      <point x="37" y="21"/>
      <point x="37" y="46"/>
      <point x="44" y="63"/>
      <point x="67" y="79"/>
      <point x="92" y="112" type="qcurve"/>
      <point x="215" y="278"/>
      <point x="338" y="415" type="qcurve"/>
      <point x="191" y="404" type="line"/>
      <point x="164" y="403"/>
      <point x="122" y="397" type="qcurve"/>
      <point x="120" y="397" type="line"/>
      <point x="101" y="397"/>
      <point x="86" y="430" type="qcurve"/>
      <point x="80" y="444"/>
      <point x="80" y="465"/>
      <point x="87" y="465" type="qcurve"/>
      <point x="89" y="465" type="line"/>
      <point x="115" y="463"/>
      <point x="136" y="463" type="qcurve"/>
      <point x="168" y="463" type="line"/>
      <point x="180" y="463"/>
      <point x="190" y="464" type="qcurve"/>
      <point x="346" y="475" type="line"/>
      <point x="382" y="481" type="line"/>
      <point x="386" y="481" type="line"/>
      <point x="408" y="479"/>
      <point x="426" y="449" type="qcurve"/>
      <point x="434" y="437"/>
      <point x="434" y="420"/>
      <point x="408" y="406"/>
      <point x="402" y="399" type="qcurve"/>
      <point x="252" y="227"/>
      <point x="126" y="55" type="qcurve"/>
      <point x="176" y="60"/>
      <point x="214" y="60" type="qcurve"/>
    </contour>
  </outline>
</glyph>
<glyph name="braceleft" format="2">
  <advance height="1000" width="350"/>
  <unicode hex="007B"/>
  <outline>
    <contour>
      <point x="318" y="779" type="qcurve"/>
      <point x="331" y="779"/>
      <point x="331" y="762" type="qcurve"/>
      <point x="331" y="755"/>
      <point x="321" y="749" type="qcurve"/>
      <point x="249" y="710"/>
      <point x="249" y="627" type="qcurve"/>
      <point x="255" y="469" type="line"/>
      <point x="255" y="352"/>
      <point x="182" y="312" type="qcurve"/>
      <point x="219" y="301"/>
      <point x="255" y="233"/>
      <point x="255" y="193" type="qcurve"/>
      <point x="255" y="114"/>
      <point x="240" y="11"/>
      <point x="240" y="-4" type="qcurve"/>
      <point x="240" y="-47"/>
      <point x="278" y="-107"/>
      <point x="320" y="-131" type="qcurve"/>
      <point x="332" y="-138"/>
      <point x="332" y="-159"/>
      <point x="318" y="-159" type="qcurve"/>
      <point x="312" y="-159"/>
      <point x="304" y="-157" type="qcurve"/>
      <point x="176" y="-121"/>
      <point x="176" y="-4" type="qcurve"/>
      <point x="176" y="27"/>
      <point x="191" y="116"/>
      <point x="191" y="211"/>
      <point x="184" y="233" type="qcurve"/>
      <point x="168" y="284"/>
      <point x="106" y="288" type="qcurve"/>
      <point x="93" y="289"/>
      <point x="76" y="314"/>
      <point x="76" y="346"/>
      <point x="92" y="346" type="qcurve"/>
      <point x="103" y="346" type="line"/>
      <point x="190" y="346"/>
      <point x="190" y="472" type="qcurve"/>
      <point x="184" y="629" type="line"/>
      <point x="184" y="671"/>
      <point x="236" y="744"/>
      <point x="304" y="776" type="qcurve"/>
      <point x="312" y="779"/>
    </contour>
  </outline>
</glyph>
<glyph name="bar" format="2">
  <advance height="1000" width="350"/>
  <unicode hex="007C"/>
  <outline>
    <contour>
      <point x="140" y="-17" type="line"/>
      <point x="140" y="718" type="line"/>
      <point x="209" y="718" type="line"/>
      <point x="209" y="-17" type="line"/>
    </contour>
  </outline>
</glyph>
<glyph name="braceright" format="2">
  <advance height="1000" width="350"/>
  <unicode hex="007D"/>
  <outline>
    <contour>
      <point x="95" y="154" type="line"/>
      <point x="95" y="270"/>
      <point x="168" y="311" type="qcurve"/>
      <point x="131" y="322"/>
      <point x="95" y="390"/>
      <point x="95" y="430" type="qcurve"/>
      <point x="95" y="509"/>
      <point x="110" y="612"/>
      <point x="110" y="627" type="qcurve"/>
      <point x="110" y="670"/>
      <point x="72" y="730"/>
      <point x="30" y="754" type="qcurve"/>
      <point x="18" y="761"/>
      <point x="18" y="782"/>
      <point x="32" y="782" type="qcurve"/>
      <point x="38" y="782" type="line"/>
      <point x="42" y="782"/>
      <point x="46" y="780" type="qcurve"/>
      <point x="174" y="744"/>
      <point x="174" y="627" type="qcurve"/>
      <point x="174" y="596"/>
      <point x="159" y="508"/>
      <point x="159" y="413"/>
      <point x="166" y="390" type="qcurve"/>
      <point x="182" y="339"/>
      <point x="244" y="335" type="qcurve"/>
      <point x="258" y="334"/>
      <point x="274" y="309"/>
      <point x="274" y="277"/>
      <point x="258" y="277" type="qcurve"/>
      <point x="247" y="277" type="line"/>
      <point x="160" y="277"/>
      <point x="160" y="151" type="qcurve"/>
      <point x="166" y="-6" type="line"/>
      <point x="166" y="-76"/>
      <point x="102" y="-122" type="qcurve"/>
      <point x="76" y="-140"/>
      <point x="35" y="-156"/>
      <point x="33" y="-156" type="qcurve"/>
      <point x="18" y="-156"/>
      <point x="18" y="-132"/>
      <point x="29" y="-126" type="qcurve"/>
      <point x="101" y="-86"/>
      <point x="101" y="-4" type="qcurve"/>
    </contour>
  </outline>
</glyph>
<glyph name="exclamdown" format="2">
  <advance height="1000" width="350"/>
  <unicode hex="00A1"/>
  <outline>
    <contour>
      <point x="210" y="-112" type="line"/>
      <point x="210" y="-161"/>
      <point x="215" y="-191" type="qcurve"/>
      <point x="215" y="-193" type="line"/>
      <point x="215" y="-210"/>
      <point x="171" y="-210"/>
      <point x="130" y="-192"/>
      <point x="130" y="-179" type="qcurve"/>
      <point x="130" y="-178" type="line"/>
      <point x="134" y="-143"/>
      <point x="136" y="-107" type="qcurve"/>
      <point x="148" y="279" type="line"/>
      <point x="148" y="329" type="line"/>
      <point x="148" y="337"/>
      <point x="177" y="337"/>
      <point x="206" y="325"/>
      <point x="206" y="315" type="qcurve"/>
      <point x="206" y="314" type="line"/>
      <point x="204" y="300"/>
      <point x="204" y="275" type="qcurve"/>
    </contour>
    <contour>
      <point x="197" y="511"/>
      <point x="229" y="473"/>
      <point x="229" y="430"/>
      <point x="203" y="401"/>
      <point x="157" y="401"/>
      <point x="124" y="442"/>
      <point x="124" y="485"/>
      <point x="149" y="511"/>
    </contour>
  </outline>
</glyph>
<glyph name="cent" format="2">
  <advance height="1000" width="556"/>
  <unicode hex="00A2"/>
  <outline>
    <contour>
      <point x="340" y="431" type="line"/>
      <point x="330" y="431" type="line"/>
      <point x="265" y="431"/>
      <point x="125" y="289"/>
      <point x="125" y="200" type="qcurve"/>
      <point x="125" y="151"/>
      <point x="170" y="82"/>
      <point x="201" y="63" type="qcurve"/>
    </contour>
    <contour>
      <point x="328" y="490" type="qcurve"/>
      <point x="346" y="490"/>
      <point x="362" y="488" type="qcurve"/>
      <point x="377" y="530"/>
      <point x="387" y="568" type="qcurve"/>
      <point x="390" y="576"/>
      <point x="411" y="576"/>
      <point x="443" y="547"/>
      <point x="443" y="527"/>
      <point x="441" y="522" type="qcurve"/>
      <point x="422" y="475" type="line"/>
      <point x="466" y="459"/>
      <point x="503" y="414"/>
      <point x="503" y="388"/>
      <point x="473" y="357"/>
      <point x="456" y="357"/>
      <point x="453" y="362" type="qcurve"/>
      <point x="428" y="413"/>
      <point x="401" y="420" type="qcurve"/>
      <point x="390" y="393" type="line"/>
      <point x="380" y="366"/>
      <point x="348" y="280"/>
      <point x="312" y="183"/>
      <point x="280" y="97"/>
      <point x="270" y="70" type="qcurve"/>
      <point x="259" y="42" type="line"/>
      <point x="262" y="41"/>
      <point x="268" y="41"/>
      <point x="271" y="41" type="qcurve"/>
      <point x="411" y="41"/>
      <point x="482" y="120" type="qcurve"/>
      <point x="496" y="135"/>
      <point x="515" y="135"/>
      <point x="515" y="112"/>
      <point x="486" y="67"/>
      <point x="456" y="42" type="qcurve"/>
      <point x="385" y="-17"/>
      <point x="271" y="-17" type="qcurve"/>
      <point x="255" y="-17"/>
      <point x="237" y="-14" type="qcurve"/>
      <point x="217" y="-76" type="line"/>
      <point x="214" y="-84"/>
      <point x="192" y="-84"/>
      <point x="160" y="-60"/>
      <point x="160" y="-45" type="qcurve"/>
      <point x="160" y="-43"/>
      <point x="167" y="-28"/>
      <point x="172" y="-12" type="qcurve"/>
      <point x="178" y="3" type="line"/>
      <point x="127" y="26"/>
      <point x="57" y="124"/>
      <point x="57" y="255"/>
      <point x="106" y="362"/>
      <point x="186" y="443"/>
      <point x="282" y="490"/>
    </contour>
  </outline>
</glyph>
<glyph name="sterling" format="2">
  <advance height="1000" width="713"/>
  <unicode hex="00A3"/>
  <outline>
    <contour>
      <point x="252" y="558" type="qcurve"/>
      <point x="240" y="518"/>
      <point x="240" y="455"/>
      <point x="246" y="374" type="qcurve"/>
      <point x="439" y="380" type="line"/>
      <point x="493" y="382"/>
      <point x="522" y="385" type="qcurve"/>
      <point x="523" y="385" type="line"/>
      <point x="536" y="385"/>
      <point x="554" y="351"/>
      <point x="554" y="322"/>
      <point x="543" y="322" type="qcurve"/>
      <point x="530" y="323"/>
      <point x="502" y="323" type="qcurve"/>
      <point x="440" y="323" type="line"/>
      <point x="251" y="317" type="line"/>
      <point x="254" y="289"/>
      <point x="254" y="267" type="qcurve"/>
      <point x="254" y="151"/>
      <point x="216" y="75" type="qcurve"/>
      <point x="226" y="75" type="line"/>
      <point x="257" y="75"/>
      <point x="505" y="40"/>
      <point x="527" y="40" type="qcurve"/>
      <point x="593" y="40"/>
      <point x="633" y="62" type="qcurve"/>
      <point x="646" y="69"/>
      <point x="672" y="69"/>
      <point x="672" y="47"/>
      <point x="636" y="12"/>
      <point x="574" y="-17"/>
      <point x="492" y="-17"/>
      <point x="391" y="-1"/>
      <point x="280" y="15"/>
      <point x="190" y="15"/>
      <point x="138" y="-1"/>
      <point x="92" y="-17"/>
      <point x="52" y="-17"/>
      <point x="37" y="-13"/>
      <point x="37" y="0"/>
      <point x="40" y="12" type="qcurve"/>
      <point x="47" y="48"/>
      <point x="67" y="48" type="qcurve"/>
      <point x="76" y="48" type="line"/>
      <point x="133" y="48"/>
      <point x="153" y="90" type="qcurve"/>
      <point x="187" y="155"/>
      <point x="187" y="260" type="qcurve"/>
      <point x="187" y="274"/>
      <point x="182" y="316" type="qcurve"/>
      <point x="165" y="315" type="line"/>
      <point x="143" y="314"/>
      <point x="96" y="312"/>
      <point x="82" y="310" type="qcurve"/>
      <point x="80" y="310" type="line"/>
      <point x="68" y="310"/>
      <point x="49" y="344"/>
      <point x="49" y="373"/>
      <point x="61" y="373" type="qcurve"/>
      <point x="142" y="372" type="line"/>
      <point x="177" y="372" type="line"/>
      <point x="170" y="470"/>
      <point x="170" y="478" type="qcurve"/>
      <point x="170" y="549"/>
      <point x="221" y="655"/>
      <point x="311" y="714"/>
      <point x="430" y="714"/>
      <point x="476" y="700" type="qcurve"/>
      <point x="555" y="677"/>
      <point x="596" y="639" type="qcurve"/>
      <point x="602" y="635"/>
      <point x="602" y="613"/>
      <point x="572" y="584"/>
      <point x="550" y="584"/>
      <point x="545" y="589" type="qcurve"/>
      <point x="477" y="653"/>
      <point x="280" y="653"/>
    </contour>
  </outline>
</glyph>
<glyph name="currency" format="2">
  <advance height="1000" width="530"/>
  <unicode hex="00A4"/>
  <outline>
    <contour>
      <point x="323" y="213"/>
      <point x="391" y="282"/>
      <point x="391" y="381"/>
      <point x="323" y="449"/>
      <point x="224" y="449"/>
      <point x="155" y="381"/>
      <point x="155" y="282"/>
      <point x="224" y="213"/>
    </contour>
    <contour>
      <point x="160" y="470" type="qcurve"/>
      <point x="211" y="510"/>
      <point x="333" y="510"/>
      <point x="381" y="473" type="qcurve"/>
      <point x="397" y="489"/>
      <point x="427" y="525" type="qcurve"/>
      <point x="432" y="530"/>
      <point x="453" y="530"/>
      <point x="488" y="503"/>
      <point x="488" y="482"/>
      <point x="457" y="457"/>
      <point x="424" y="426" type="qcurve"/>
      <point x="452" y="382"/>
      <point x="452" y="277"/>
      <point x="422" y="233" type="qcurve"/>
      <point x="439" y="217"/>
      <point x="479" y="183"/>
      <point x="493" y="171"/>
      <point x="493" y="151"/>
      <point x="458" y="122"/>
      <point x="437" y="122"/>
      <point x="432" y="127" type="qcurve"/>
      <point x="410" y="157"/>
      <point x="378" y="186" type="qcurve"/>
      <point x="333" y="152"/>
      <point x="214" y="152"/>
      <point x="163" y="190" type="qcurve"/>
      <point x="124" y="153"/>
      <point x="105" y="127" type="qcurve"/>
      <point x="100" y="122"/>
      <point x="79" y="122"/>
      <point x="44" y="151"/>
      <point x="44" y="170"/>
      <point x="49" y="175" type="qcurve"/>
      <point x="94" y="211"/>
      <point x="121" y="238" type="qcurve"/>
      <point x="94" y="279"/>
      <point x="94" y="382"/>
      <point x="119" y="420" type="qcurve"/>
      <point x="87" y="454"/>
      <point x="54" y="478" type="qcurve"/>
      <point x="49" y="482"/>
      <point x="49" y="502"/>
      <point x="84" y="530"/>
      <point x="106" y="530"/>
      <point x="113" y="521" type="qcurve"/>
      <point x="133" y="495"/>
    </contour>
  </outline>
</glyph>
<glyph name="yen" format="2">
  <advance height="1000" width="600"/>
  <unicode hex="00A5"/>
  <outline>
    <contour>
      <point x="90" y="365" type="line"/>
      <point x="114" y="363"/>
      <point x="138" y="363" type="qcurve"/>
      <point x="177" y="363" type="line"/>
      <point x="191" y="363"/>
      <point x="204" y="364" type="qcurve"/>
      <point x="241" y="365" type="line"/>
      <point x="98" y="601"/>
      <point x="36" y="671" type="qcurve"/>
      <point x="34" y="673"/>
      <point x="34" y="676" type="qcurve"/>
      <point x="34" y="685"/>
      <point x="73" y="702"/>
      <point x="109" y="702"/>
      <point x="124" y="677"/>
      <point x="141" y="644"/>
      <point x="191" y="566"/>
      <point x="293" y="399" type="qcurve"/>
      <point x="365" y="515"/>
      <point x="451" y="651"/>
      <point x="468" y="684"/>
      <point x="483" y="709"/>
      <point x="519" y="709"/>
      <point x="557" y="692"/>
      <point x="557" y="683" type="qcurve"/>
      <point x="557" y="680"/>
      <point x="548" y="670" type="qcurve"/>
      <point x="492" y="605"/>
      <point x="348" y="370" type="qcurve"/>
      <point x="402" y="372" type="line"/>
      <point x="419" y="373"/>
      <point x="474" y="379"/>
      <point x="498" y="379"/>
      <point x="517" y="349"/>
      <point x="517" y="320"/>
      <point x="505" y="320" type="qcurve"/>
      <point x="403" y="317" type="line"/>
      <point x="329" y="314" type="line"/>
      <point x="329" y="229" type="line"/>
      <point x="402" y="232" type="line"/>
      <point x="420" y="233"/>
      <point x="474" y="239"/>
      <point x="498" y="239"/>
      <point x="517" y="209"/>
      <point x="517" y="180"/>
      <point x="505" y="180" type="qcurve"/>
      <point x="403" y="177" type="line"/>
      <point x="329" y="174" type="line"/>
      <point x="329" y="146" type="line"/>
      <point x="333" y="1" type="line"/>
      <point x="333" y="-9"/>
      <point x="295" y="-9"/>
      <point x="256" y="6"/>
      <point x="256" y="19" type="qcurve"/>
      <point x="258" y="147" type="line"/>
      <point x="258" y="171" type="line"/>
      <point x="113" y="162" type="line"/>
      <point x="112" y="162" type="line"/>
      <point x="99" y="162"/>
      <point x="78" y="198"/>
      <point x="78" y="225"/>
      <point x="88" y="225" type="qcurve"/>
      <point x="90" y="225" type="line"/>
      <point x="114" y="223"/>
      <point x="138" y="223" type="qcurve"/>
      <point x="177" y="223" type="line"/>
      <point x="191" y="223"/>
      <point x="204" y="224" type="qcurve"/>
      <point x="258" y="226" type="line"/>
      <point x="258" y="310" type="line"/>
      <point x="255" y="310" type="line"/>
      <point x="221" y="310"/>
      <point x="113" y="302" type="qcurve"/>
      <point x="112" y="302" type="line"/>
      <point x="99" y="302"/>
      <point x="78" y="338"/>
      <point x="78" y="365"/>
      <point x="88" y="365" type="qcurve"/>
    </contour>
  </outline>
</glyph>
<glyph name="section" format="2">
  <advance height="1000" width="675"/>
  <unicode hex="00A7"/>
  <outline>
    <contour>
      <point x="457" y="265" type="qcurve"/>
      <point x="527" y="296"/>
      <point x="527" y="368" type="qcurve"/>
      <point x="527" y="423"/>
      <point x="454" y="475"/>
      <point x="371" y="492" type="qcurve"/>
      <point x="330" y="500" type="line"/>
      <point x="326" y="500" type="line"/>
      <point x="203" y="500"/>
      <point x="165" y="452" type="qcurve"/>
      <point x="148" y="430"/>
      <point x="148" y="383"/>
      <point x="156" y="366" type="qcurve"/>
      <point x="174" y="330"/>
      <point x="271" y="310" type="qcurve"/>
      <point x="376" y="289" type="line"/>
      <point x="420" y="281"/>
    </contour>
    <contour>
      <point x="245" y="250" type="line"/>
      <point x="148" y="270"/>
      <point x="73" y="350"/>
      <point x="73" y="447"/>
      <point x="133" y="517"/>
      <point x="189" y="536" type="qcurve"/>
      <point x="136" y="557"/>
      <point x="93" y="620"/>
      <point x="93" y="700"/>
      <point x="151" y="770"/>
      <point x="257" y="814"/>
      <point x="328" y="814" type="qcurve"/>
      <point x="464" y="814"/>
      <point x="549" y="747" type="qcurve"/>
      <point x="559" y="738"/>
      <point x="559" y="707"/>
      <point x="540" y="676"/>
      <point x="523" y="676"/>
      <point x="506" y="694"/>
      <point x="483" y="710" type="qcurve"/>
      <point x="425" y="752"/>
      <point x="247" y="752"/>
      <point x="168" y="696"/>
      <point x="168" y="663" type="qcurve"/>
      <point x="168" y="641"/>
      <point x="176" y="625" type="qcurve"/>
      <point x="193" y="594"/>
      <point x="291" y="574" type="qcurve"/>
      <point x="396" y="553" type="line"/>
      <point x="602" y="514"/>
      <point x="602" y="369" type="qcurve"/>
      <point x="602" y="327"/>
      <point x="558" y="254"/>
      <point x="520" y="230" type="qcurve"/>
      <point x="582" y="180"/>
      <point x="582" y="102" type="qcurve"/>
      <point x="582" y="49"/>
      <point x="550" y="8" type="qcurve"/>
      <point x="482" y="-79"/>
      <point x="324" y="-79" type="qcurve"/>
      <point x="239" y="-79"/>
      <point x="114" y="-28"/>
      <point x="62" y="24" type="qcurve"/>
      <point x="55" y="31"/>
      <point x="55" y="59"/>
      <point x="80" y="92"/>
      <point x="99" y="92"/>
      <point x="105" y="85" type="qcurve"/>
      <point x="124" y="56"/>
      <point x="161" y="32" type="qcurve"/>
      <point x="233" y="-16"/>
      <point x="410" y="-16"/>
      <point x="507" y="49"/>
      <point x="507" y="154"/>
      <point x="431" y="211"/>
      <point x="351" y="228" type="qcurve"/>
    </contour>
  </outline>
</glyph>
<glyph name="copyright" format="2">
  <advance height="1000" width="780"/>
  <unicode hex="00A9"/>
  <outline>
    <contour>
      <point x="551" y="212" type="qcurve"/>
      <point x="518" y="163"/>
      <point x="434" y="121"/>
      <point x="323" y="121"/>
      <point x="244" y="165"/>
      <point x="197" y="248"/>
      <point x="197" y="304" type="qcurve"/>
      <point x="197" y="410"/>
      <point x="340" y="561"/>
      <point x="425" y="561" type="qcurve"/>
      <point x="472" y="561"/>
      <point x="528" y="528"/>
      <point x="553" y="492"/>
      <point x="553" y="471"/>
      <point x="526" y="441"/>
      <point x="509" y="441"/>
      <point x="499" y="458"/>
      <point x="489" y="479"/>
      <point x="454" y="504"/>
      <point x="387" y="504"/>
      <point x="312" y="453"/>
      <point x="263" y="366"/>
      <point x="263" y="263"/>
      <point x="280" y="234" type="qcurve"/>
      <point x="311" y="177"/>
      <point x="459" y="177"/>
      <point x="528" y="233" type="qcurve"/>
      <point x="538" y="241"/>
      <point x="546" y="241" type="qcurve"/>
      <point x="558" y="241"/>
      <point x="558" y="230" type="qcurve"/>
      <point x="558" y="222"/>
    </contour>
    <contour>
      <point x="682" y="276"/>
      <point x="682" y="396"/>
      <point x="637" y="501"/>
      <point x="557" y="581"/>
      <point x="452" y="626"/>
      <point x="332" y="626"/>
      <point x="227" y="581"/>
      <point x="147" y="501"/>
      <point x="102" y="396"/>
      <point x="102" y="276"/>
      <point x="147" y="171"/>
      <point x="227" y="91"/>
      <point x="332" y="46"/>
      <point x="452" y="46"/>
      <point x="557" y="91"/>
      <point x="637" y="171"/>
    </contour>
    <contour>
      <point x="735" y="407"/>
      <point x="735" y="265"/>
      <point x="681" y="141"/>
      <point x="586" y="46"/>
      <point x="462" y="-7"/>
      <point x="320" y="-7"/>
      <point x="196" y="46"/>
      <point x="101" y="141"/>
      <point x="48" y="265"/>
      <point x="48" y="407"/>
      <point x="101" y="531"/>
      <point x="196" y="626"/>
      <point x="320" y="679"/>
      <point x="462" y="679"/>
      <point x="586" y="626"/>
      <point x="681" y="531"/>
    </contour>
  </outline>
</glyph>
<glyph name="ordfeminine" format="2">
  <advance height="1000" width="320"/>
  <unicode hex="00AA"/>
  <outline>
    <contour>
      <point x="215" y="630" type="qcurve"/>
      <point x="215" y="650"/>
      <point x="217" y="670" type="qcurve"/>
      <point x="208" y="672"/>
      <point x="204" y="677" type="qcurve"/>
      <point x="193" y="694"/>
      <point x="154" y="694"/>
      <point x="136" y="679" type="qcurve"/>
      <point x="95" y="645"/>
      <point x="95" y="523"/>
      <point x="163" y="523"/>
      <point x="211" y="579"/>
    </contour>
    <contour>
      <point x="217" y="731" type="line"/>
      <point x="219" y="740"/>
      <point x="253" y="740"/>
      <point x="280" y="729"/>
      <point x="280" y="719" type="qcurve"/>
      <point x="280" y="718" type="line"/>
      <point x="273" y="623"/>
      <point x="273" y="572"/>
      <point x="277" y="538"/>
      <point x="290" y="513"/>
      <point x="290" y="498"/>
      <point x="269" y="470"/>
      <point x="246" y="470"/>
      <point x="232" y="492"/>
      <point x="225" y="523" type="qcurve"/>
      <point x="208" y="497"/>
      <point x="155" y="468"/>
      <point x="130" y="468" type="qcurve"/>
      <point x="88" y="468"/>
      <point x="35" y="524"/>
      <point x="35" y="626"/>
      <point x="77" y="702"/>
      <point x="141" y="748"/>
      <point x="190" y="748"/>
      <point x="216" y="739"/>
      <point x="217" y="738" type="qcurve"/>
    </contour>
  </outline>
</glyph>
<glyph name="guillemotleft" format="2">
  <advance height="1000" width="530"/>
  <unicode hex="00AB"/>
  <outline>
    <contour>
      <point x="287" y="54" type="line"/>
      <point x="293" y="48"/>
      <point x="293" y="20"/>
      <point x="276" y="-16"/>
      <point x="266" y="-16" type="qcurve"/>
      <point x="262" y="-16"/>
      <point x="246" y="4"/>
      <point x="221" y="36"/>
      <point x="98" y="167"/>
      <point x="40" y="209" type="qcurve"/>
      <point x="26" y="219"/>
      <point x="26" y="251" type="qcurve"/>
      <point x="26" y="263"/>
      <point x="30" y="267" type="qcurve"/>
      <point x="60" y="291" type="line"/>
      <point x="187" y="397"/>
      <point x="257" y="486" type="qcurve"/>
      <point x="260" y="490"/>
      <point x="264" y="490" type="qcurve"/>
      <point x="274" y="490"/>
      <point x="293" y="457"/>
      <point x="293" y="429"/>
      <point x="282" y="419"/>
      <point x="158" y="299"/>
      <point x="93" y="241" type="qcurve"/>
      <point x="172" y="170"/>
      <point x="240" y="100" type="qcurve"/>
    </contour>
    <contour>
      <point x="492" y="54" type="line"/>
      <point x="498" y="48"/>
      <point x="498" y="20"/>
      <point x="481" y="-16"/>
      <point x="471" y="-16" type="qcurve"/>
      <point x="467" y="-16"/>
      <point x="451" y="4"/>
      <point x="426" y="36"/>
      <point x="386" y="78" type="qcurve"/>
      <point x="303" y="167"/>
      <point x="245" y="209" type="qcurve"/>
      <point x="231" y="219"/>
      <point x="231" y="251" type="qcurve"/>
      <point x="231" y="263"/>
      <point x="235" y="267" type="qcurve"/>
      <point x="265" y="291" type="line"/>
      <point x="392" y="397"/>
      <point x="462" y="486" type="qcurve"/>
      <point x="465" y="490"/>
      <point x="469" y="490" type="qcurve"/>
      <point x="479" y="490"/>
      <point x="498" y="457"/>
      <point x="498" y="429"/>
      <point x="487" y="419"/>
      <point x="363" y="299"/>
      <point x="298" y="241" type="qcurve"/>
      <point x="377" y="170"/>
      <point x="445" y="100" type="qcurve"/>
    </contour>
  </outline>
</glyph>
<glyph name="logicalnot" format="2">
  <advance height="1000" width="590"/>
  <unicode hex="00AC"/>
  <outline>
    <contour>
      <point x="444" y="309" type="line"/>
      <point x="70" y="309" type="line"/>
      <point x="60" y="309"/>
      <point x="49" y="329"/>
      <point x="49" y="353"/>
      <point x="60" y="373"/>
      <point x="70" y="373" type="qcurve"/>
      <point x="457" y="373" type="line"/>
      <point x="481" y="373"/>
      <point x="508" y="346"/>
      <point x="508" y="322" type="qcurve"/>
      <point x="508" y="121" type="line"/>
      <point x="508" y="111"/>
      <point x="488" y="100"/>
      <point x="464" y="100"/>
      <point x="444" y="111"/>
      <point x="444" y="121" type="qcurve"/>
    </contour>
  </outline>
</glyph>
<glyph name="uni00AD" format="2">
  <advance height="1000" width="500"/>
  <unicode hex="00AD"/>
  <outline>
    <contour>
      <point x="360" y="283" type="line"/>
      <point x="393" y="283"/>
      <point x="431" y="285" type="qcurve"/>
      <point x="432" y="285" type="line"/>
      <point x="440" y="285"/>
      <point x="451" y="257"/>
      <point x="451" y="218"/>
      <point x="437" y="218" type="qcurve"/>
      <point x="359" y="220" type="line"/>
      <point x="139" y="220" type="line"/>
      <point x="83" y="220"/>
      <point x="65" y="217" type="qcurve"/>
      <point x="64" y="217" type="line"/>
      <point x="56" y="217"/>
      <point x="45" y="245"/>
      <point x="45" y="285"/>
      <point x="60" y="285" type="qcurve"/>
      <point x="90" y="283"/>
      <point x="140" y="283" type="qcurve"/>
    </contour>
  </outline>
</glyph>
<glyph name="registered" format="2">
  <advance height="1000" width="780"/>
  <unicode hex="00AE"/>
  <outline>
    <contour>
      <point x="404" y="511" type="qcurve"/>
      <point x="356" y="511"/>
      <point x="325" y="500" type="qcurve"/>
      <point x="325" y="376" type="line"/>
      <point x="327" y="378"/>
      <point x="332" y="378" type="qcurve"/>
      <point x="350" y="376" type="line"/>
      <point x="356" y="376"/>
      <point x="362" y="376" type="qcurve"/>
      <point x="425" y="376"/>
      <point x="487" y="426"/>
      <point x="487" y="456" type="qcurve"/>
      <point x="487" y="511"/>
    </contour>
    <contour>
      <point x="263" y="144" type="qcurve"/>
      <point x="264" y="203" type="line"/>
      <point x="264" y="495" type="line"/>
      <point x="256" y="500"/>
      <point x="244" y="524"/>
      <point x="244" y="547"/>
      <point x="255" y="548" type="qcurve"/>
      <point x="288" y="553"/>
      <point x="350" y="567"/>
      <point x="458" y="567"/>
      <point x="489" y="551" type="qcurve"/>
      <point x="548" y="521"/>
      <point x="548" y="458" type="qcurve"/>
      <point x="548" y="421"/>
      <point x="526" y="394" type="qcurve"/>
      <point x="482" y="336"/>
      <point x="393" y="330" type="qcurve"/>
      <point x="420" y="301"/>
      <point x="454" y="261" type="qcurve"/>
      <point x="533" y="166"/>
      <point x="592" y="146"/>
      <point x="592" y="132" type="qcurve"/>
      <point x="592" y="120"/>
      <point x="520" y="120"/>
      <point x="492" y="142" type="qcurve"/>
      <point x="453" y="174"/>
      <point x="342" y="313"/>
      <point x="325" y="319" type="qcurve"/>
      <point x="325" y="203" type="line"/>
      <point x="326" y="133" type="line"/>
      <point x="326" y="123"/>
      <point x="291" y="123"/>
      <point x="263" y="134"/>
    </contour>
    <contour>
      <point x="682" y="276"/>
      <point x="682" y="396"/>
      <point x="637" y="501"/>
      <point x="557" y="581"/>
      <point x="452" y="626"/>
      <point x="332" y="626"/>
      <point x="227" y="581"/>
      <point x="147" y="501"/>
      <point x="102" y="396"/>
      <point x="102" y="276"/>
      <point x="147" y="171"/>
      <point x="227" y="91"/>
      <point x="332" y="46"/>
      <point x="452" y="46"/>
      <point x="557" y="91"/>
      <point x="637" y="171"/>
    </contour>
    <contour>
      <point x="735" y="407"/>
      <point x="735" y="265"/>
      <point x="681" y="141"/>
      <point x="586" y="46"/>
      <point x="462" y="-7"/>
      <point x="320" y="-7"/>
      <point x="196" y="46"/>
      <point x="101" y="141"/>
      <point x="48" y="265"/>
      <point x="48" y="407"/>
      <point x="101" y="531"/>
      <point x="196" y="626"/>
      <point x="320" y="679"/>
      <point x="462" y="679"/>
      <point x="586" y="626"/>
      <point x="681" y="531"/>
    </contour>
  </outline>
</glyph>
<glyph name="degree" format="2">
  <advance height="1000" width="320"/>
  <unicode hex="00B0"/>
  <outline>
    <contour>
      <point x="84" y="579"/>
      <point x="127" y="533"/>
      <point x="190" y="533"/>
      <point x="236" y="579"/>
      <point x="236" y="641"/>
      <point x="193" y="685"/>
      <point x="130" y="685"/>
      <point x="84" y="643"/>
    </contour>
    <contour>
      <point x="256" y="705"/>
      <point x="292" y="646"/>
      <point x="292" y="574"/>
      <point x="257" y="513"/>
      <point x="197" y="477"/>
      <point x="125" y="477"/>
      <point x="64" y="512"/>
      <point x="28" y="572"/>
      <point x="28" y="645"/>
      <point x="63" y="705"/>
      <point x="123" y="741"/>
      <point x="196" y="741"/>
    </contour>
  </outline>
</glyph>
<glyph name="plusminus" format="2">
  <advance height="1000" width="600"/>
  <unicode hex="00B1"/>
  <outline>
    <contour>
      <point x="460" y="73" type="line"/>
      <point x="467" y="73"/>
      <point x="530" y="76" type="qcurve"/>
      <point x="531" y="76" type="line"/>
      <point x="543" y="76"/>
      <point x="558" y="48"/>
      <point x="558" y="34" type="qcurve"/>
      <point x="558" y="9"/>
      <point x="540" y="9" type="qcurve"/>
      <point x="459" y="11" type="line"/>
      <point x="140" y="11" type="line"/>
      <point x="83" y="11"/>
      <point x="65" y="8" type="qcurve"/>
      <point x="63" y="8" type="line"/>
      <point x="53" y="8"/>
      <point x="40" y="35"/>
      <point x="40" y="49" type="qcurve"/>
      <point x="40" y="75"/>
      <point x="59" y="75" type="qcurve"/>
      <point x="89" y="73"/>
      <point x="141" y="73" type="qcurve"/>
    </contour>
    <contour>
      <point x="460" y="347" type="line"/>
      <point x="467" y="347"/>
      <point x="530" y="350" type="qcurve"/>
      <point x="531" y="350" type="line"/>
      <point x="543" y="350"/>
      <point x="558" y="322"/>
      <point x="558" y="308" type="qcurve"/>
      <point x="558" y="283"/>
      <point x="540" y="283" type="qcurve"/>
      <point x="459" y="285" type="line"/>
      <point x="329" y="285" type="line"/>
      <point x="329" y="206" type="line"/>
      <point x="330" y="128" type="line"/>
      <point x="330" y="109"/>
      <point x="302" y="109" type="qcurve"/>
      <point x="289" y="109"/>
      <point x="264" y="121"/>
      <point x="264" y="133" type="qcurve"/>
      <point x="264" y="135" type="line"/>
      <point x="267" y="166"/>
      <point x="267" y="205" type="qcurve"/>
      <point x="267" y="285" type="line"/>
      <point x="140" y="285" type="line"/>
      <point x="83" y="285"/>
      <point x="65" y="282" type="qcurve"/>
      <point x="63" y="282" type="line"/>
      <point x="53" y="282"/>
      <point x="40" y="309"/>
      <point x="40" y="323" type="qcurve"/>
      <point x="40" y="349"/>
      <point x="59" y="349" type="qcurve"/>
      <point x="89" y="347"/>
      <point x="141" y="347" type="qcurve"/>
      <point x="267" y="347" type="line"/>
      <point x="267" y="400" type="line"/>
      <point x="267" y="452"/>
      <point x="265" y="482" type="qcurve"/>
      <point x="265" y="501"/>
      <point x="291" y="501" type="qcurve"/>
      <point x="305" y="501"/>
      <point x="332" y="489"/>
      <point x="332" y="478" type="qcurve"/>
      <point x="332" y="476" type="line"/>
      <point x="329" y="440"/>
      <point x="329" y="401" type="qcurve"/>
      <point x="329" y="347" type="line"/>
    </contour>
  </outline>
</glyph>
<glyph name="uni00B3" format="2">
  <advance height="1000" width="380"/>
  <unicode hex="00B3"/>
  <outline>
    <contour>
      <point x="157" y="496" type="qcurve"/>
      <point x="152" y="495" type="line"/>
      <point x="142" y="495"/>
      <point x="125" y="521"/>
      <point x="125" y="549"/>
      <point x="137" y="550" type="qcurve"/>
      <point x="195" y="556"/>
      <point x="228" y="581" type="qcurve"/>
      <point x="248" y="596"/>
      <point x="248" y="619" type="qcurve"/>
      <point x="248" y="654"/>
      <point x="152" y="654"/>
      <point x="124" y="617" type="qcurve"/>
      <point x="112" y="602"/>
      <point x="93" y="602"/>
      <point x="73" y="630"/>
      <point x="73" y="653"/>
      <point x="90" y="669" type="qcurve"/>
      <point x="132" y="710"/>
      <point x="191" y="710" type="qcurve"/>
      <point x="306" y="710"/>
      <point x="306" y="621" type="qcurve"/>
      <point x="306" y="596"/>
      <point x="279" y="553"/>
      <point x="257" y="540" type="qcurve"/>
      <point x="283" y="530"/>
      <point x="319" y="482"/>
      <point x="319" y="451" type="qcurve"/>
      <point x="319" y="396"/>
      <point x="255" y="321"/>
      <point x="118" y="321"/>
      <point x="71" y="356" type="qcurve"/>
      <point x="52" y="371"/>
      <point x="52" y="396"/>
      <point x="71" y="422"/>
      <point x="89" y="422"/>
      <point x="96" y="415" type="qcurve"/>
      <point x="129" y="379"/>
      <point x="220" y="379"/>
      <point x="260" y="416"/>
      <point x="260" y="444" type="qcurve"/>
      <point x="260" y="503"/>
      <point x="200" y="503" type="qcurve"/>
      <point x="178" y="503"/>
    </contour>
  </outline>
</glyph>
<glyph name="mu" format="2">
  <advance height="1000" width="590"/>
  <unicode hex="00B5"/>
  <outline>
    <contour>
      <point x="90" y="-151" type="qcurve"/>
      <point x="92" y="-63" type="line"/>
      <point x="92" y="368" type="line"/>
      <point x="89" y="474" type="line"/>
      <point x="89" y="484"/>
      <point x="125" y="484"/>
      <point x="161" y="469"/>
      <point x="161" y="456" type="qcurve"/>
      <point x="159" y="368" type="line"/>
      <point x="159" y="183" type="line"/>
      <point x="159" y="102"/>
      <point x="197" y="64" type="qcurve"/>
      <point x="217" y="44"/>
      <point x="293" y="44"/>
      <point x="332" y="76" type="qcurve"/>
      <point x="421" y="152"/>
      <point x="426" y="342" type="qcurve"/>
      <point x="427" y="418"/>
      <point x="427" y="442" type="qcurve"/>
      <point x="427" y="475" type="line"/>
      <point x="427" y="485"/>
      <point x="464" y="485"/>
      <point x="500" y="471"/>
      <point x="500" y="459" type="qcurve"/>
      <point x="500" y="457" type="line"/>
      <point x="488" y="385"/>
      <point x="488" y="97"/>
      <point x="526" y="35" type="qcurve"/>
      <point x="528" y="31"/>
      <point x="528" y="18"/>
      <point x="501" y="-13"/>
      <point x="469" y="-13"/>
      <point x="458" y="7" type="qcurve"/>
      <point x="434" y="48"/>
      <point x="429" y="107" type="qcurve"/>
      <point x="402" y="54"/>
      <point x="311" y="-18"/>
      <point x="248" y="-18" type="qcurve"/>
      <point x="219" y="-18"/>
      <point x="172" y="12"/>
      <point x="158" y="31" type="qcurve"/>
      <point x="158" y="-63" type="line"/>
      <point x="161" y="-169" type="line"/>
      <point x="161" y="-179"/>
      <point x="125" y="-179"/>
      <point x="90" y="-164"/>
    </contour>
  </outline>
</glyph>
<glyph name="paragraph" format="2">
  <advance height="1000" width="638"/>
  <unicode hex="00B6"/>
  <outline>
    <contour>
      <point x="537" y="-113" type="qcurve"/>
      <point x="537" y="-129"/>
      <point x="509" y="-129" type="qcurve"/>
      <point x="495" y="-129"/>
      <point x="468" y="-118"/>
      <point x="468" y="-108" type="qcurve"/>
      <point x="468" y="-107" type="line"/>
      <point x="471" y="-76"/>
      <point x="471" y="-21" type="qcurve"/>
      <point x="471" y="714" type="line"/>
      <point x="333" y="707" type="line"/>
      <point x="333" y="-73" type="line"/>
      <point x="333" y="-101"/>
      <point x="334" y="-124" type="qcurve"/>
      <point x="334" y="-140"/>
      <point x="306" y="-140" type="qcurve"/>
      <point x="292" y="-140"/>
      <point x="265" y="-129"/>
      <point x="265" y="-119" type="qcurve"/>
      <point x="265" y="-118" type="line"/>
      <point x="268" y="-86"/>
      <point x="268" y="-32" type="qcurve"/>
      <point x="268" y="388" type="line"/>
      <point x="240" y="383"/>
      <point x="182" y="383"/>
      <point x="107" y="419"/>
      <point x="60" y="491"/>
      <point x="60" y="610"/>
      <point x="119" y="706"/>
      <point x="217" y="762"/>
      <point x="274" y="764" type="qcurve"/>
      <point x="484" y="774" type="line"/>
      <point x="488" y="774" type="line"/>
      <point x="511" y="774"/>
      <point x="536" y="745"/>
      <point x="536" y="726" type="qcurve"/>
      <point x="536" y="-62" type="line"/>
      <point x="536" y="-89"/>
    </contour>
  </outline>
</glyph>
<glyph name="cedilla" format="2">
  <advance height="1000" width="500"/>
  <unicode hex="00B8"/>
  <unicode hex="0327"/>
  <outline>
    <contour>
      <point x="260" y="-72" type="qcurve"/>
      <point x="246" y="-72"/>
      <point x="226" y="-76" type="qcurve"/>
      <point x="221" y="-76" type="line"/>
      <point x="208" y="-76"/>
      <point x="189" y="-58"/>
      <point x="189" y="-41"/>
      <point x="200" y="-12"/>
      <point x="206" y="6" type="qcurve"/>
      <point x="211" y="23" type="line"/>
      <point x="277" y="18" type="line"/>
      <point x="262" y="-27" type="line"/>
      <point x="267" y="-26"/>
      <point x="277" y="-26"/>
      <point x="282" y="-26" type="qcurve"/>
      <point x="318" y="-26"/>
      <point x="360" y="-62"/>
      <point x="360" y="-136"/>
      <point x="304" y="-180"/>
      <point x="209" y="-180"/>
      <point x="165" y="-158" type="qcurve"/>
      <point x="155" y="-152"/>
      <point x="155" y="-121"/>
      <point x="165" y="-97"/>
      <point x="176" y="-97"/>
      <point x="188" y="-105" type="qcurve"/>
      <point x="216" y="-125"/>
      <point x="275" y="-125"/>
      <point x="297" y="-114"/>
      <point x="297" y="-98" type="qcurve"/>
      <point x="297" y="-72"/>
    </contour>
  </outline>
</glyph>
<glyph name="ordmasculine" format="2">
  <advance height="1000" width="320"/>
  <unicode hex="00BA"/>
  <outline>
    <contour>
      <point x="94" y="562"/>
      <point x="125" y="523"/>
      <point x="186" y="523"/>
      <point x="229" y="578"/>
      <point x="229" y="650"/>
      <point x="202" y="694"/>
      <point x="150" y="694"/>
      <point x="114" y="664"/>
      <point x="94" y="618"/>
    </contour>
    <contour>
      <point x="119" y="731" type="qcurve"/>
      <point x="142" y="748"/>
      <point x="225" y="748"/>
      <point x="288" y="679"/>
      <point x="288" y="615" type="qcurve"/>
      <point x="288" y="579"/>
      <point x="257" y="511"/>
      <point x="197" y="468"/>
      <point x="98" y="468"/>
      <point x="35" y="538"/>
      <point x="35" y="596" type="qcurve"/>
      <point x="35" y="626"/>
      <point x="59" y="689"/>
      <point x="94" y="733"/>
      <point x="116" y="733"/>
    </contour>
  </outline>
</glyph>
<glyph name="guillemotright" format="2">
  <advance height="1000" width="530"/>
  <unicode hex="00BB"/>
  <outline>
    <contour>
      <point x="84" y="94" type="line"/>
      <point x="152" y="164"/>
      <point x="231" y="235" type="qcurve"/>
      <point x="96" y="359"/>
      <point x="38" y="417" type="qcurve"/>
      <point x="31" y="423"/>
      <point x="31" y="451"/>
      <point x="50" y="484"/>
      <point x="60" y="484" type="qcurve"/>
      <point x="64" y="484"/>
      <point x="67" y="480" type="qcurve"/>
      <point x="137" y="391"/>
      <point x="264" y="285" type="qcurve"/>
      <point x="294" y="261" type="line"/>
      <point x="298" y="257"/>
      <point x="298" y="246" type="qcurve"/>
      <point x="298" y="213"/>
      <point x="284" y="203" type="qcurve"/>
      <point x="232" y="165"/>
      <point x="118" y="46" type="qcurve"/>
      <point x="103" y="30"/>
      <point x="78" y="-2"/>
      <point x="62" y="-22"/>
      <point x="58" y="-22" type="qcurve"/>
      <point x="48" y="-22"/>
      <point x="31" y="14"/>
      <point x="31" y="42"/>
      <point x="37" y="48" type="qcurve"/>
    </contour>
    <contour>
      <point x="289" y="94" type="line"/>
      <point x="357" y="164"/>
      <point x="436" y="235" type="qcurve"/>
      <point x="301" y="359"/>
      <point x="243" y="417" type="qcurve"/>
      <point x="236" y="423"/>
      <point x="236" y="451"/>
      <point x="255" y="484"/>
      <point x="265" y="484" type="qcurve"/>
      <point x="269" y="484"/>
      <point x="272" y="480" type="qcurve"/>
      <point x="342" y="391"/>
      <point x="469" y="285" type="qcurve"/>
      <point x="499" y="261" type="line"/>
      <point x="503" y="257"/>
      <point x="503" y="246" type="qcurve"/>
      <point x="503" y="213"/>
      <point x="489" y="203" type="qcurve"/>
      <point x="437" y="165"/>
      <point x="323" y="46" type="qcurve"/>
      <point x="308" y="30"/>
      <point x="283" y="-2"/>
      <point x="267" y="-22"/>
      <point x="263" y="-22" type="qcurve"/>
      <point x="253" y="-22"/>
      <point x="236" y="14"/>
      <point x="236" y="42"/>
      <point x="242" y="48" type="qcurve"/>
    </contour>
  </outline>
</glyph>
<glyph name="onequarter" format="2">
  <advance height="1000" width="1000"/>
  <unicode hex="00BC"/>
  <outline>
    <contour>
      <point x="283" y="357" type="line"/>
      <point x="283" y="342"/>
      <point x="259" y="342" type="qcurve"/>
      <point x="248" y="342"/>
      <point x="219" y="359"/>
      <point x="219" y="372" type="qcurve"/>
      <point x="219" y="373" type="line"/>
      <point x="221" y="443" type="line"/>
      <point x="221" y="694" type="line"/>
      <point x="181" y="670"/>
      <point x="146" y="670"/>
      <point x="122" y="687"/>
      <point x="122" y="702"/>
      <point x="132" y="706" type="qcurve"/>
      <point x="159" y="716"/>
      <point x="216" y="758"/>
      <point x="238" y="784"/>
      <point x="259" y="784"/>
      <point x="285" y="763"/>
      <point x="285" y="750" type="qcurve"/>
      <point x="281" y="693" type="line"/>
      <point x="281" y="448" type="line"/>
      <point x="281" y="402"/>
      <point x="283" y="358" type="qcurve"/>
    </contour>
    <contour>
      <point x="180" y="10" type="line"/>
      <point x="141" y="-29"/>
      <point x="98" y="-81" type="qcurve"/>
      <point x="92" y="-87"/>
      <point x="74" y="-87"/>
      <point x="54" y="-53"/>
      <point x="54" y="-29"/>
      <point x="59" y="-25" type="qcurve"/>
      <point x="94" y="3"/>
      <point x="141" y="50" type="qcurve"/>
      <point x="832" y="745" type="line"/>
      <point x="892" y="808"/>
      <point x="914" y="836" type="qcurve"/>
      <point x="920" y="843"/>
      <point x="938" y="843"/>
      <point x="958" y="809"/>
      <point x="958" y="785"/>
      <point x="953" y="781" type="qcurve"/>
      <point x="935" y="764"/>
      <point x="891" y="725"/>
      <point x="871" y="705" type="qcurve"/>
    </contour>
    <contour>
      <point x="645" y="29" type="line"/>
      <point x="617" y="24" type="line"/>
      <point x="603" y="24"/>
      <point x="575" y="49"/>
      <point x="575" y="76"/>
      <point x="590" y="94"/>
      <point x="645" y="170"/>
      <point x="766" y="354"/>
      <point x="777" y="384" type="qcurve"/>
      <point x="780" y="391"/>
      <point x="800" y="391"/>
      <point x="831" y="363"/>
      <point x="831" y="344"/>
      <point x="826" y="336" type="qcurve"/>
      <point x="812" y="316" type="line"/>
      <point x="803" y="302"/>
      <point x="708" y="158"/>
      <point x="655" y="85" type="qcurve"/>
      <point x="805" y="92" type="line"/>
      <point x="805" y="206" type="line"/>
      <point x="804" y="270" type="line"/>
      <point x="804" y="282"/>
      <point x="840" y="282"/>
      <point x="866" y="270"/>
      <point x="866" y="259" type="qcurve"/>
      <point x="865" y="206" type="line"/>
      <point x="865" y="93" type="line"/>
      <point x="902" y="98"/>
      <point x="929" y="98"/>
      <point x="944" y="70"/>
      <point x="944" y="37"/>
      <point x="931" y="37" type="qcurve"/>
      <point x="865" y="37" type="line"/>
      <point x="865" y="15" type="line"/>
      <point x="867" y="-47" type="line"/>
      <point x="867" y="-59"/>
      <point x="848" y="-59" type="qcurve"/>
      <point x="804" y="-59"/>
      <point x="804" y="-37" type="qcurve"/>
      <point x="805" y="16" type="line"/>
      <point x="805" y="36" type="line"/>
    </contour>
  </outline>
</glyph>
<glyph name="questiondown" format="2">
  <advance height="1000" width="600"/>
  <unicode hex="00BF"/>
  <outline>
    <contour>
      <point x="287" y="245" type="qcurve"/>
      <point x="287" y="263" type="line"/>
      <point x="287" y="275"/>
      <point x="277" y="315" type="qcurve"/>
      <point x="277" y="331"/>
      <point x="342" y="331"/>
      <point x="354" y="299"/>
      <point x="354" y="252"/>
      <point x="344" y="185"/>
      <point x="302" y="128"/>
      <point x="247" y="81"/>
      <point x="220" y="57" type="qcurve"/>
      <point x="158" y="2"/>
      <point x="158" y="-69" type="qcurve"/>
      <point x="158" y="-105"/>
      <point x="204" y="-155"/>
      <point x="304" y="-155"/>
      <point x="388" y="-117"/>
      <point x="439" y="-63"/>
      <point x="452" y="-20" type="qcurve"/>
      <point x="456" y="-7"/>
      <point x="485" y="-7"/>
      <point x="517" y="-34"/>
      <point x="517" y="-55"/>
      <point x="515" y="-58" type="qcurve"/>
      <point x="426" y="-214"/>
      <point x="258" y="-214" type="qcurve"/>
      <point x="176" y="-214"/>
      <point x="85" y="-140"/>
      <point x="85" y="-23"/>
      <point x="123" y="49"/>
      <point x="180" y="103"/>
      <point x="239" y="149"/>
      <point x="287" y="206"/>
    </contour>
    <contour>
      <point x="337" y="508"/>
      <point x="369" y="470"/>
      <point x="369" y="427"/>
      <point x="343" y="398"/>
      <point x="297" y="398"/>
      <point x="264" y="439"/>
      <point x="264" y="482"/>
      <point x="289" y="508"/>
    </contour>
  </outline>
</glyph>
<glyph name="Agrave" format="2">
  <advance height="1000" width="690"/>
  <unicode hex="00C0"/>
  <outline>
    <contour>
      <point x="482" y="296" type="line"/>
      <point x="397" y="493"/>
      <point x="356" y="601" type="qcurve"/>
      <point x="273" y="416"/>
      <point x="210" y="285" type="qcurve"/>
    </contour>
    <contour>
      <point x="-1" y="12" type="qcurve"/>
      <point x="-1" y="18"/>
      <point x="7" y="29"/>
      <point x="15" y="44"/>
      <point x="34" y="80"/>
      <point x="73" y="153"/>
      <point x="106" y="218" type="qcurve"/>
      <point x="99" y="218" type="line"/>
      <point x="87" y="218"/>
      <point x="67" y="255"/>
      <point x="67" y="285"/>
      <point x="78" y="285" type="qcurve"/>
      <point x="80" y="285" type="line"/>
      <point x="98" y="283"/>
      <point x="119" y="283" type="qcurve"/>
      <point x="138" y="283" type="line"/>
      <point x="273" y="553"/>
      <point x="312" y="653" type="qcurve"/>
      <point x="316" y="662"/>
      <point x="320" y="699"/>
      <point x="330" y="711"/>
      <point x="361" y="711"/>
      <point x="399" y="693"/>
      <point x="402" y="680" type="qcurve"/>
      <point x="399" y="660" type="line"/>
      <point x="399" y="647"/>
      <point x="452" y="520" type="qcurve"/>
      <point x="619" y="124"/>
      <point x="680" y="36" type="qcurve"/>
      <point x="691" y="20"/>
      <point x="691" y="16" type="qcurve"/>
      <point x="691" y="4"/>
      <point x="655" y="-9"/>
      <point x="611" y="-9"/>
      <point x="607" y="3" type="qcurve"/>
      <point x="588" y="59"/>
      <point x="566" y="109" type="qcurve"/>
      <point x="507" y="239" type="line"/>
      <point x="484" y="238" type="line"/>
      <point x="460" y="237"/>
      <point x="386" y="234"/>
      <point x="303" y="230"/>
      <point x="228" y="227"/>
      <point x="181" y="225"/>
      <point x="180" y="225" type="qcurve"/>
      <point x="164" y="191"/>
      <point x="148" y="159" type="qcurve"/>
      <point x="118" y="99" type="line"/>
      <point x="99" y="61"/>
      <point x="81" y="10" type="qcurve"/>
      <point x="75" y="-7"/>
      <point x="-1" y="-7"/>
    </contour>
    <contour>
      <point x="450" y="758" type="qcurve"/>
      <point x="450" y="741"/>
      <point x="433" y="741" type="qcurve"/>
      <point x="428" y="741"/>
      <point x="388" y="764"/>
      <point x="292" y="798"/>
      <point x="242" y="816" type="qcurve"/>
      <point x="235" y="819"/>
      <point x="235" y="836"/>
      <point x="257" y="861"/>
      <point x="285" y="880"/>
      <point x="298" y="880"/>
      <point x="300" y="879" type="qcurve"/>
      <point x="450" y="780"/>
    </contour>
  </outline>
</glyph>
<glyph name="Atilde" format="2">
  <advance height="1000" width="690"/>
  <unicode hex="00C3"/>
  <outline>
    <contour>
      <point x="482" y="296" type="line"/>
      <point x="397" y="493"/>
      <point x="356" y="601" type="qcurve"/>
      <point x="273" y="416"/>
      <point x="210" y="285" type="qcurve"/>
    </contour>
    <contour>
      <point x="-1" y="12" type="qcurve"/>
      <point x="-1" y="18"/>
      <point x="7" y="29"/>
      <point x="15" y="44"/>
      <point x="34" y="80"/>
      <point x="73" y="153"/>
      <point x="106" y="218" type="qcurve"/>
      <point x="99" y="218" type="line"/>
      <point x="87" y="218"/>
      <point x="67" y="255"/>
      <point x="67" y="285"/>
      <point x="78" y="285" type="qcurve"/>
      <point x="80" y="285" type="line"/>
      <point x="98" y="283"/>
      <point x="119" y="283" type="qcurve"/>
      <point x="138" y="283" type="line"/>
      <point x="273" y="553"/>
      <point x="312" y="653" type="qcurve"/>
      <point x="316" y="662"/>
      <point x="320" y="699"/>
      <point x="330" y="711"/>
      <point x="361" y="711"/>
      <point x="399" y="693"/>
      <point x="402" y="680" type="qcurve"/>
      <point x="399" y="660" type="line"/>
      <point x="399" y="647"/>
      <point x="452" y="520" type="qcurve"/>
      <point x="619" y="124"/>
      <point x="680" y="36" type="qcurve"/>
      <point x="691" y="20"/>
      <point x="691" y="16" type="qcurve"/>
      <point x="691" y="4"/>
      <point x="655" y="-9"/>
      <point x="611" y="-9"/>
      <point x="607" y="3" type="qcurve"/>
      <point x="588" y="59"/>
      <point x="566" y="109" type="qcurve"/>
      <point x="507" y="239" type="line"/>
      <point x="484" y="238" type="line"/>
      <point x="460" y="237"/>
      <point x="386" y="234"/>
      <point x="303" y="230"/>
      <point x="228" y="227"/>
      <point x="181" y="225"/>
      <point x="180" y="225" type="qcurve"/>
      <point x="164" y="191"/>
      <point x="148" y="159" type="qcurve"/>
      <point x="118" y="99" type="line"/>
      <point x="99" y="61"/>
      <point x="81" y="10" type="qcurve"/>
      <point x="75" y="-7"/>
      <point x="-1" y="-7"/>
    </contour>
    <contour>
      <point x="511" y="844" type="qcurve"/>
      <point x="504" y="813"/>
      <point x="454" y="759"/>
      <point x="385" y="759"/>
      <point x="346" y="781"/>
      <point x="315" y="802"/>
      <point x="277" y="802"/>
      <point x="246" y="790"/>
      <point x="231" y="756"/>
      <point x="215" y="756"/>
      <point x="205" y="765"/>
      <point x="205" y="776"/>
      <point x="206" y="778" type="qcurve"/>
      <point x="214" y="810"/>
      <point x="263" y="863"/>
      <point x="332" y="863"/>
      <point x="371" y="842"/>
      <point x="402" y="820"/>
      <point x="440" y="820"/>
      <point x="471" y="832"/>
      <point x="486" y="866"/>
      <point x="494" y="866" type="qcurve"/>
      <point x="512" y="866"/>
      <point x="512" y="850" type="qcurve"/>
      <point x="512" y="846"/>
    </contour>
  </outline>
</glyph>
<glyph name="Aring" format="2">
  <advance height="1000" width="690"/>
  <unicode hex="00C5"/>
  <outline>
    <contour>
      <point x="482" y="296" type="line"/>
      <point x="397" y="493"/>
      <point x="356" y="601" type="qcurve"/>
      <point x="273" y="416"/>
      <point x="210" y="285" type="qcurve"/>
    </contour>
    <contour>
      <point x="-1" y="12" type="qcurve"/>
      <point x="-1" y="18"/>
      <point x="7" y="29"/>
      <point x="15" y="44"/>
      <point x="34" y="80"/>
      <point x="73" y="153"/>
      <point x="106" y="218" type="qcurve"/>
      <point x="99" y="218" type="line"/>
      <point x="87" y="218"/>
      <point x="67" y="255"/>
      <point x="67" y="285"/>
      <point x="78" y="285" type="qcurve"/>
      <point x="80" y="285" type="line"/>
      <point x="98" y="283"/>
      <point x="119" y="283" type="qcurve"/>
      <point x="138" y="283" type="line"/>
      <point x="273" y="553"/>
      <point x="312" y="653" type="qcurve"/>
      <point x="316" y="662"/>
      <point x="320" y="699"/>
      <point x="330" y="711"/>
      <point x="361" y="711"/>
      <point x="399" y="693"/>
      <point x="402" y="680" type="qcurve"/>
      <point x="399" y="660" type="line"/>
      <point x="399" y="647"/>
      <point x="452" y="520" type="qcurve"/>
      <point x="619" y="124"/>
      <point x="680" y="36" type="qcurve"/>
      <point x="691" y="20"/>
      <point x="691" y="16" type="qcurve"/>
      <point x="691" y="4"/>
      <point x="655" y="-9"/>
      <point x="611" y="-9"/>
      <point x="607" y="3" type="qcurve"/>
      <point x="588" y="59"/>
      <point x="566" y="109" type="qcurve"/>
      <point x="507" y="239" type="line"/>
      <point x="484" y="238" type="line"/>
      <point x="460" y="237"/>
      <point x="386" y="234"/>
      <point x="303" y="230"/>
      <point x="228" y="227"/>
      <point x="181" y="225"/>
      <point x="180" y="225" type="qcurve"/>
      <point x="164" y="191"/>
      <point x="148" y="159" type="qcurve"/>
      <point x="118" y="99" type="line"/>
      <point x="99" y="61"/>
      <point x="81" y="10" type="qcurve"/>
      <point x="75" y="-7"/>
      <point x="-1" y="-7"/>
    </contour>
    <contour>
      <point x="376" y="769"/>
      <point x="402" y="796"/>
      <point x="402" y="835"/>
      <point x="376" y="861"/>
      <point x="337" y="861"/>
      <point x="310" y="835"/>
      <point x="310" y="796"/>
      <point x="337" y="769"/>
    </contour>
    <contour>
      <point x="450" y="853"/>
      <point x="450" y="777"/>
      <point x="394" y="721"/>
      <point x="318" y="721"/>
      <point x="262" y="777"/>
      <point x="262" y="853"/>
      <point x="318" y="909"/>
      <point x="394" y="909"/>
    </contour>
  </outline>
</glyph>
<glyph name="Ccedilla" format="2">
  <advance height="1000" width="703"/>
  <unicode hex="00C7"/>
  <outline>
    <contour>
      <point x="404" y="-28" type="line"/>
      <point x="486" y="-28"/>
      <point x="486" y="-99" type="qcurve"/>
      <point x="486" y="-136"/>
      <point x="430" y="-180"/>
      <point x="335" y="-180"/>
      <point x="291" y="-158" type="qcurve"/>
      <point x="281" y="-152"/>
      <point x="281" y="-121"/>
      <point x="291" y="-97"/>
      <point x="302" y="-97"/>
      <point x="314" y="-105" type="qcurve"/>
      <point x="342" y="-125"/>
      <point x="401" y="-125"/>
      <point x="423" y="-114"/>
      <point x="423" y="-98" type="qcurve"/>
      <point x="423" y="-72"/>
      <point x="386" y="-72" type="qcurve"/>
      <point x="372" y="-72"/>
      <point x="352" y="-76" type="qcurve"/>
      <point x="347" y="-76" type="line"/>
      <point x="334" y="-76"/>
      <point x="315" y="-58"/>
      <point x="315" y="-41"/>
      <point x="324" y="-15" type="qcurve"/>
      <point x="154" y="-2"/>
      <point x="86" y="124" type="qcurve"/>
      <point x="51" y="190"/>
      <point x="51" y="381"/>
      <point x="105" y="534"/>
      <point x="202" y="649"/>
      <point x="332" y="713"/>
      <point x="408" y="713" type="qcurve"/>
      <point x="557" y="713"/>
      <point x="628" y="628" type="qcurve"/>
      <point x="631" y="624"/>
      <point x="631" y="603"/>
      <point x="605" y="569"/>
      <point x="582" y="569"/>
      <point x="576" y="578" type="qcurve"/>
      <point x="530" y="649"/>
      <point x="289" y="649"/>
      <point x="208" y="550" type="qcurve"/>
      <point x="123" y="449"/>
      <point x="123" y="128"/>
      <point x="238" y="72" type="qcurve"/>
      <point x="292" y="45"/>
      <point x="409" y="45"/>
      <point x="511" y="80"/>
      <point x="605" y="144"/>
      <point x="636" y="185" type="qcurve"/>
      <point x="648" y="200"/>
      <point x="674" y="200"/>
      <point x="674" y="171"/>
      <point x="636" y="111"/>
      <point x="600" y="78" type="qcurve"/>
      <point x="512" y="-4"/>
      <point x="388" y="-15" type="qcurve"/>
      <point x="383" y="-29" type="line"/>
      <point x="388" y="-28"/>
      <point x="394" y="-28" type="qcurve"/>
    </contour>
  </outline>
</glyph>
<glyph name="Egrave" format="2">
  <advance height="1000" width="638"/>
  <unicode hex="00C8"/>
  <outline>
    <contour>
      <point x="472" y="64" type="line"/>
      <point x="510" y="64"/>
      <point x="555" y="67" type="qcurve"/>
      <point x="556" y="67" type="line"/>
      <point x="569" y="67"/>
      <point x="588" y="30"/>
      <point x="588" y="-2"/>
      <point x="577" y="-2" type="qcurve"/>
      <point x="576" y="-2" type="line"/>
      <point x="552" y="1"/>
      <point x="489" y="1" type="qcurve"/>
      <point x="473" y="1" type="line"/>
      <point x="195" y="-3" type="line"/>
      <point x="179" y="-3"/>
      <point x="156" y="-10"/>
      <point x="127" y="-10"/>
      <point x="99" y="25"/>
      <point x="99" y="37" type="qcurve"/>
      <point x="106" y="84" type="line"/>
      <point x="106" y="344" type="line"/>
      <point x="95" y="350"/>
      <point x="79" y="382"/>
      <point x="79" y="404"/>
      <point x="87" y="404" type="qcurve"/>
      <point x="89" y="404" type="line"/>
      <point x="97" y="402"/>
      <point x="106" y="402" type="qcurve"/>
      <point x="106" y="634" type="line"/>
      <point x="102" y="685" type="line"/>
      <point x="102" y="699"/>
      <point x="130" y="699"/>
      <point x="165" y="688"/>
      <point x="169" y="686" type="qcurve"/>
      <point x="265" y="693"/>
      <point x="420" y="702" type="qcurve"/>
      <point x="440" y="704" type="line"/>
      <point x="463" y="706"/>
      <point x="514" y="712"/>
      <point x="537" y="712"/>
      <point x="557" y="677"/>
      <point x="557" y="646"/>
      <point x="544" y="646" type="qcurve"/>
      <point x="482" y="646" type="line"/>
      <point x="455" y="646"/>
      <point x="441" y="645" type="qcurve"/>
      <point x="174" y="627" type="line"/>
      <point x="174" y="403" type="line"/>
      <point x="385" y="416" type="line"/>
      <point x="408" y="418"/>
      <point x="459" y="424"/>
      <point x="482" y="424"/>
      <point x="502" y="389"/>
      <point x="502" y="357"/>
      <point x="489" y="357" type="qcurve"/>
      <point x="426" y="357" type="line"/>
      <point x="400" y="357"/>
      <point x="386" y="356" type="qcurve"/>
      <point x="174" y="344" type="line"/>
      <point x="174" y="59" type="line"/>
    </contour>
    <contour>
      <point x="424" y="758" type="qcurve"/>
      <point x="424" y="741"/>
      <point x="407" y="741" type="qcurve"/>
      <point x="402" y="741"/>
      <point x="362" y="764"/>
      <point x="266" y="798"/>
      <point x="216" y="816" type="qcurve"/>
      <point x="209" y="819"/>
      <point x="209" y="836"/>
      <point x="231" y="861"/>
      <point x="259" y="880"/>
      <point x="272" y="880"/>
      <point x="274" y="879" type="qcurve"/>
      <point x="424" y="780"/>
    </contour>
  </outline>
</glyph>
<glyph name="Igrave" format="2">
  <advance height="1000" width="304"/>
  <unicode hex="00CC"/>
  <outline>
    <contour>
      <point x="113" y="18" type="qcurve"/>
      <point x="115" y="107" type="line"/>
      <point x="115" y="589" type="line"/>
      <point x="112" y="695" type="line"/>
      <point x="112" y="705"/>
      <point x="151" y="705"/>
      <point x="191" y="690"/>
      <point x="191" y="677" type="qcurve"/>
      <point x="189" y="588" type="line"/>
      <point x="189" y="106" type="line"/>
      <point x="192" y="0" type="line"/>
      <point x="192" y="-10"/>
      <point x="153" y="-10"/>
      <point x="113" y="5"/>
    </contour>
    <contour>
      <point x="257" y="758" type="qcurve"/>
      <point x="257" y="741"/>
      <point x="240" y="741" type="qcurve"/>
      <point x="235" y="741"/>
      <point x="195" y="764"/>
      <point x="99" y="798"/>
      <point x="49" y="816" type="qcurve"/>
      <point x="42" y="819"/>
      <point x="42" y="836"/>
      <point x="64" y="861"/>
      <point x="92" y="880"/>
      <point x="105" y="880"/>
      <point x="107" y="879" type="qcurve"/>
      <point x="219" y="804"/>
      <point x="257" y="764"/>
    </contour>
  </outline>
</glyph>
<glyph name="Iacute" format="2">
  <advance height="1000" width="304"/>
  <unicode hex="00CD"/>
  <outline>
    <contour>
      <point x="113" y="18" type="qcurve"/>
      <point x="115" y="107" type="line"/>
      <point x="115" y="589" type="line"/>
      <point x="112" y="695" type="line"/>
      <point x="112" y="705"/>
      <point x="151" y="705"/>
      <point x="191" y="690"/>
      <point x="191" y="677" type="qcurve"/>
      <point x="189" y="588" type="line"/>
      <point x="189" y="106" type="line"/>
      <point x="192" y="0" type="line"/>
      <point x="192" y="-10"/>
      <point x="153" y="-10"/>
      <point x="113" y="5"/>
    </contour>
    <contour>
      <point x="267" y="816" type="qcurve"/>
      <point x="218" y="798"/>
      <point x="121" y="764"/>
      <point x="81" y="741"/>
      <point x="69" y="741"/>
      <point x="59" y="751"/>
      <point x="59" y="758" type="qcurve"/>
      <point x="59" y="779"/>
      <point x="209" y="879" type="qcurve"/>
      <point x="211" y="880"/>
      <point x="225" y="880"/>
      <point x="238" y="870" type="qcurve"/>
      <point x="274" y="846"/>
      <point x="274" y="826" type="qcurve"/>
      <point x="274" y="819"/>
    </contour>
  </outline>
</glyph>
<glyph name="Icircumflex" format="2">
  <advance height="1000" width="304"/>
  <unicode hex="00CE"/>
  <outline>
    <contour>
      <point x="113" y="18" type="qcurve"/>
      <point x="115" y="107" type="line"/>
      <point x="115" y="589" type="line"/>
      <point x="112" y="695" type="line"/>
      <point x="112" y="705"/>
      <point x="151" y="705"/>
      <point x="191" y="690"/>
      <point x="191" y="677" type="qcurve"/>
      <point x="189" y="588" type="line"/>
      <point x="189" y="106" type="line"/>
      <point x="192" y="0" type="line"/>
      <point x="192" y="-10"/>
      <point x="153" y="-10"/>
      <point x="113" y="5"/>
    </contour>
    <contour>
      <point x="152" y="824" type="qcurve"/>
      <point x="51" y="760"/>
      <point x="18" y="732"/>
      <point x="10" y="732" type="qcurve"/>
      <point x="-8" y="732"/>
      <point x="-8" y="763"/>
      <point x="72" y="845" type="qcurve"/>
      <point x="93" y="866"/>
      <point x="116" y="888"/>
      <point x="137" y="892"/>
      <point x="181" y="892"/>
      <point x="193" y="880" type="qcurve"/>
      <point x="224" y="849" type="line"/>
      <point x="311" y="765"/>
      <point x="311" y="732"/>
      <point x="293" y="732" type="qcurve"/>
      <point x="285" y="732"/>
      <point x="250" y="763"/>
    </contour>
  </outline>
</glyph>
<glyph name="Idieresis" format="2">
  <advance height="1000" width="304"/>
  <unicode hex="00CF"/>
  <outline>
    <contour>
      <point x="113" y="18" type="qcurve"/>
      <point x="115" y="107" type="line"/>
      <point x="115" y="589" type="line"/>
      <point x="112" y="695" type="line"/>
      <point x="112" y="705"/>
      <point x="151" y="705"/>
      <point x="191" y="690"/>
      <point x="191" y="677" type="qcurve"/>
      <point x="189" y="588" type="line"/>
      <point x="189" y="106" type="line"/>
      <point x="192" y="0" type="line"/>
      <point x="192" y="-10"/>
      <point x="153" y="-10"/>
      <point x="113" y="5"/>
    </contour>
    <contour>
      <point x="111" y="785"/>
      <point x="86" y="759"/>
      <point x="44" y="759"/>
      <point x="10" y="800"/>
      <point x="10" y="842"/>
      <point x="34" y="868"/>
      <point x="76" y="868"/>
      <point x="111" y="829"/>
    </contour>
    <contour>
      <point x="294" y="785"/>
      <point x="269" y="759"/>
      <point x="227" y="759"/>
      <point x="193" y="800"/>
      <point x="193" y="842"/>
      <point x="217" y="868"/>
      <point x="259" y="868"/>
      <point x="294" y="829"/>
    </contour>
  </outline>
</glyph>
<glyph name="Eth" format="2">
  <advance height="1000" width="728"/>
  <unicode hex="00D0"/>
  <outline>
    <contour>
      <point x="412" y="369"/>
      <point x="424" y="343"/>
      <point x="424" y="306"/>
      <point x="410" y="306" type="qcurve"/>
      <point x="332" y="306" type="line"/>
      <point x="176" y="303" type="line"/>
      <point x="176" y="40" type="line"/>
      <point x="323" y="43"/>
      <point x="512" y="127"/>
      <point x="602" y="269"/>
      <point x="602" y="348" type="qcurve"/>
      <point x="602" y="492"/>
      <point x="415" y="651"/>
      <point x="298" y="651" type="qcurve"/>
      <point x="234" y="651"/>
      <point x="176" y="635" type="qcurve"/>
      <point x="176" y="363" type="line"/>
      <point x="331" y="366" type="line"/>
      <point x="346" y="366"/>
      <point x="403" y="369" type="qcurve"/>
      <point x="404" y="369" type="line"/>
    </contour>
    <contour>
      <point x="38" y="299"/>
      <point x="26" y="326"/>
      <point x="26" y="362"/>
      <point x="41" y="362" type="qcurve"/>
      <point x="106" y="362" type="line"/>
      <point x="106" y="626" type="line"/>
      <point x="92" y="629"/>
      <point x="66" y="658"/>
      <point x="66" y="678"/>
      <point x="73" y="681" type="qcurve"/>
      <point x="121" y="700"/>
      <point x="244" y="710" type="qcurve"/>
      <point x="277" y="712"/>
      <point x="303" y="712" type="qcurve"/>
      <point x="456" y="712"/>
      <point x="673" y="516"/>
      <point x="673" y="204"/>
      <point x="578" y="110" type="qcurve"/>
      <point x="497" y="30"/>
      <point x="374" y="8" type="qcurve"/>
      <point x="297" y="-6"/>
      <point x="183" y="-8" type="qcurve"/>
      <point x="169" y="-8" type="line"/>
      <point x="51" y="-8"/>
      <point x="51" y="15" type="qcurve"/>
      <point x="51" y="34"/>
      <point x="106" y="34" type="qcurve"/>
      <point x="106" y="302" type="line"/>
      <point x="47" y="299" type="line"/>
      <point x="46" y="299" type="line"/>
    </contour>
  </outline>
</glyph>
<glyph name="Ntilde" format="2">
  <advance height="1000" width="738"/>
  <unicode hex="00D1"/>
  <outline>
    <contour>
      <point x="106" y="641" type="line"/>
      <point x="99" y="678" type="line"/>
      <point x="99" y="692"/>
      <point x="144" y="708"/>
      <point x="165" y="708"/>
      <point x="177" y="706"/>
      <point x="182" y="698" type="qcurve"/>
      <point x="207" y="652"/>
      <point x="442" y="276"/>
      <point x="566" y="104" type="qcurve"/>
      <point x="566" y="589" type="line"/>
      <point x="562" y="695" type="line"/>
      <point x="562" y="705"/>
      <point x="600" y="705"/>
      <point x="637" y="690"/>
      <point x="637" y="677" type="qcurve"/>
      <point x="635" y="588" type="line"/>
      <point x="635" y="87" type="line"/>
      <point x="639" y="32" type="line"/>
      <point x="639" y="22"/>
      <point x="630" y="12" type="qcurve"/>
      <point x="607" y="-13"/>
      <point x="564" y="-13"/>
      <point x="545" y="15"/>
      <point x="520" y="51" type="qcurve"/>
      <point x="328" y="321"/>
      <point x="175" y="579" type="qcurve"/>
      <point x="175" y="105" type="line"/>
      <point x="178" y="-1" type="line"/>
      <point x="178" y="-11"/>
      <point x="142" y="-11"/>
      <point x="104" y="4"/>
      <point x="104" y="17" type="qcurve"/>
      <point x="106" y="106" type="line"/>
    </contour>
    <contour>
      <point x="524" y="846" type="qcurve"/>
      <point x="517" y="815"/>
      <point x="467" y="759"/>
      <point x="399" y="759"/>
      <point x="359" y="784"/>
      <point x="327" y="810"/>
      <point x="308" y="810" type="qcurve"/>
      <point x="267" y="810"/>
      <point x="247" y="768" type="qcurve"/>
      <point x="241" y="756"/>
      <point x="234" y="756" type="qcurve"/>
      <point x="216" y="756"/>
      <point x="216" y="773" type="qcurve"/>
      <point x="216" y="787"/>
      <point x="239" y="831"/>
      <point x="282" y="867"/>
      <point x="342" y="867"/>
      <point x="382" y="841"/>
      <point x="414" y="816"/>
      <point x="433" y="816" type="qcurve"/>
      <point x="474" y="816"/>
      <point x="494" y="858" type="qcurve"/>
      <point x="500" y="870"/>
      <point x="508" y="870" type="qcurve"/>
      <point x="525" y="870"/>
      <point x="525" y="853" type="qcurve"/>
      <point x="525" y="849"/>
    </contour>
  </outline>
</glyph>
<glyph name="Ograve" format="2">
  <advance height="1000" width="745"/>
  <unicode hex="00D2"/>
  <outline>
    <contour>
      <point x="172" y="126"/>
      <point x="276" y="46"/>
      <point x="354" y="46" type="qcurve"/>
      <point x="498" y="46"/>
      <point x="565" y="145" type="qcurve"/>
      <point x="625" y="234"/>
      <point x="625" y="371" type="qcurve"/>
      <point x="625" y="483"/>
      <point x="506" y="653"/>
      <point x="399" y="653" type="qcurve"/>
      <point x="356" y="653"/>
      <point x="259" y="613"/>
      <point x="175" y="534"/>
      <point x="122" y="416"/>
      <point x="122" y="259"/>
    </contour>
    <contour>
      <point x="134" y="609"/>
      <point x="182" y="658"/>
      <point x="213" y="658"/>
      <point x="223" y="646" type="qcurve"/>
      <point x="299" y="713"/>
      <point x="495" y="713"/>
      <point x="625" y="622"/>
      <point x="695" y="464"/>
      <point x="695" y="375" type="qcurve"/>
      <point x="695" y="200"/>
      <point x="616" y="95" type="qcurve"/>
      <point x="529" y="-18"/>
      <point x="366" y="-18" type="qcurve"/>
      <point x="259" y="-18"/>
      <point x="120" y="75"/>
      <point x="53" y="235"/>
      <point x="53" y="404"/>
      <point x="86" y="521"/>
    </contour>
    <contour>
      <point x="478" y="758" type="qcurve"/>
      <point x="478" y="741"/>
      <point x="461" y="741" type="qcurve"/>
      <point x="456" y="741"/>
      <point x="416" y="764"/>
      <point x="320" y="798"/>
      <point x="270" y="816" type="qcurve"/>
      <point x="263" y="819"/>
      <point x="263" y="836"/>
      <point x="285" y="861"/>
      <point x="313" y="880"/>
      <point x="326" y="880"/>
      <point x="328" y="879" type="qcurve"/>
      <point x="478" y="780"/>
    </contour>
  </outline>
</glyph>
<glyph name="Oacute" format="2">
  <advance height="1000" width="745"/>
  <unicode hex="00D3"/>
  <outline>
    <contour>
      <point x="172" y="126"/>
      <point x="276" y="46"/>
      <point x="354" y="46" type="qcurve"/>
      <point x="498" y="46"/>
      <point x="565" y="145" type="qcurve"/>
      <point x="625" y="234"/>
      <point x="625" y="371" type="qcurve"/>
      <point x="625" y="483"/>
      <point x="506" y="653"/>
      <point x="399" y="653" type="qcurve"/>
      <point x="356" y="653"/>
      <point x="259" y="613"/>
      <point x="175" y="534"/>
      <point x="122" y="416"/>
      <point x="122" y="259"/>
    </contour>
    <contour>
      <point x="134" y="609"/>
      <point x="182" y="658"/>
      <point x="213" y="658"/>
      <point x="223" y="646" type="qcurve"/>
      <point x="299" y="713"/>
      <point x="495" y="713"/>
      <point x="625" y="622"/>
      <point x="695" y="464"/>
      <point x="695" y="375" type="qcurve"/>
      <point x="695" y="200"/>
      <point x="616" y="95" type="qcurve"/>
      <point x="529" y="-18"/>
      <point x="366" y="-18" type="qcurve"/>
      <point x="259" y="-18"/>
      <point x="120" y="75"/>
      <point x="53" y="235"/>
      <point x="53" y="404"/>
      <point x="86" y="521"/>
    </contour>
    <contour>
      <point x="488" y="816" type="qcurve"/>
      <point x="439" y="798"/>
      <point x="342" y="764"/>
      <point x="302" y="741"/>
      <point x="290" y="741"/>
      <point x="280" y="751"/>
      <point x="280" y="758" type="qcurve"/>
      <point x="280" y="779"/>
      <point x="430" y="879" type="qcurve"/>
      <point x="432" y="880"/>
      <point x="446" y="880"/>
      <point x="460" y="870" type="qcurve"/>
      <point x="495" y="846"/>
      <point x="495" y="826" type="qcurve"/>
      <point x="495" y="819"/>
    </contour>
  </outline>
</glyph>
<glyph name="Ocircumflex" format="2">
  <advance height="1000" width="745"/>
  <unicode hex="00D4"/>
  <outline>
    <contour>
      <point x="172" y="126"/>
      <point x="276" y="46"/>
      <point x="354" y="46" type="qcurve"/>
      <point x="498" y="46"/>
      <point x="565" y="145" type="qcurve"/>
      <point x="625" y="234"/>
      <point x="625" y="371" type="qcurve"/>
      <point x="625" y="483"/>
      <point x="506" y="653"/>
      <point x="399" y="653" type="qcurve"/>
      <point x="356" y="653"/>
      <point x="259" y="613"/>
      <point x="175" y="534"/>
      <point x="122" y="416"/>
      <point x="122" y="259"/>
    </contour>
    <contour>
      <point x="134" y="609"/>
      <point x="182" y="658"/>
      <point x="213" y="658"/>
      <point x="223" y="646" type="qcurve"/>
      <point x="299" y="713"/>
      <point x="495" y="713"/>
      <point x="625" y="622"/>
      <point x="695" y="464"/>
      <point x="695" y="375" type="qcurve"/>
      <point x="695" y="200"/>
      <point x="616" y="95" type="qcurve"/>
      <point x="529" y="-18"/>
      <point x="366" y="-18" type="qcurve"/>
      <point x="259" y="-18"/>
      <point x="120" y="75"/>
      <point x="53" y="235"/>
      <point x="53" y="404"/>
      <point x="86" y="521"/>
    </contour>
    <contour>
      <point x="385" y="824" type="qcurve"/>
      <point x="284" y="760"/>
      <point x="251" y="732"/>
      <point x="243" y="732" type="qcurve"/>
      <point x="225" y="732"/>
      <point x="225" y="763"/>
      <point x="306" y="845" type="qcurve"/>
      <point x="326" y="866"/>
      <point x="349" y="888"/>
      <point x="370" y="892"/>
      <point x="414" y="892"/>
      <point x="438" y="868"/>
      <point x="458" y="849" type="qcurve"/>
      <point x="544" y="765"/>
      <point x="544" y="732"/>
      <point x="526" y="732" type="qcurve"/>
      <point x="518" y="732"/>
      <point x="483" y="763"/>
    </contour>
  </outline>
</glyph>
<glyph name="Otilde" format="2">
  <advance height="1000" width="745"/>
  <unicode hex="00D5"/>
  <outline>
    <contour>
      <point x="172" y="126"/>
      <point x="276" y="46"/>
      <point x="354" y="46" type="qcurve"/>
      <point x="498" y="46"/>
      <point x="565" y="145" type="qcurve"/>
      <point x="625" y="234"/>
      <point x="625" y="371" type="qcurve"/>
      <point x="625" y="483"/>
      <point x="506" y="653"/>
      <point x="399" y="653" type="qcurve"/>
      <point x="356" y="653"/>
      <point x="259" y="613"/>
      <point x="175" y="534"/>
      <point x="122" y="416"/>
      <point x="122" y="259"/>
    </contour>
    <contour>
      <point x="134" y="609"/>
      <point x="182" y="658"/>
      <point x="213" y="658"/>
      <point x="223" y="646" type="qcurve"/>
      <point x="299" y="713"/>
      <point x="495" y="713"/>
      <point x="625" y="622"/>
      <point x="695" y="464"/>
      <point x="695" y="375" type="qcurve"/>
      <point x="695" y="200"/>
      <point x="616" y="95" type="qcurve"/>
      <point x="529" y="-18"/>
      <point x="366" y="-18" type="qcurve"/>
      <point x="259" y="-18"/>
      <point x="120" y="75"/>
      <point x="53" y="235"/>
      <point x="53" y="404"/>
      <point x="86" y="521"/>
    </contour>
    <contour>
      <point x="542" y="846" type="qcurve"/>
      <point x="535" y="815"/>
      <point x="485" y="759"/>
      <point x="417" y="759"/>
      <point x="377" y="784"/>
      <point x="345" y="810"/>
      <point x="326" y="810" type="qcurve"/>
      <point x="285" y="810"/>
      <point x="265" y="768" type="qcurve"/>
      <point x="259" y="756"/>
      <point x="252" y="756" type="qcurve"/>
      <point x="234" y="756"/>
      <point x="234" y="773" type="qcurve"/>
      <point x="234" y="787"/>
      <point x="257" y="831"/>
      <point x="300" y="867"/>
      <point x="360" y="867"/>
      <point x="400" y="841"/>
      <point x="432" y="816"/>
      <point x="451" y="816" type="qcurve"/>
      <point x="492" y="816"/>
      <point x="512" y="858" type="qcurve"/>
      <point x="518" y="870"/>
      <point x="526" y="870" type="qcurve"/>
      <point x="543" y="870"/>
      <point x="543" y="853" type="qcurve"/>
      <point x="543" y="849"/>
    </contour>
  </outline>
</glyph>
<glyph name="Odieresis" format="2">
  <advance height="1000" width="745"/>
  <unicode hex="00D6"/>
  <outline>
    <contour>
      <point x="172" y="126"/>
      <point x="276" y="46"/>
      <point x="354" y="46" type="qcurve"/>
      <point x="498" y="46"/>
      <point x="565" y="145" type="qcurve"/>
      <point x="625" y="234"/>
      <point x="625" y="371" type="qcurve"/>
      <point x="625" y="483"/>
      <point x="506" y="653"/>
      <point x="399" y="653" type="qcurve"/>
      <point x="356" y="653"/>
      <point x="259" y="613"/>
      <point x="175" y="534"/>
      <point x="122" y="416"/>
      <point x="122" y="259"/>
    </contour>
    <contour>
      <point x="134" y="609"/>
      <point x="182" y="658"/>
      <point x="213" y="658"/>
      <point x="223" y="646" type="qcurve"/>
      <point x="299" y="713"/>
      <point x="495" y="713"/>
      <point x="625" y="622"/>
      <point x="695" y="464"/>
      <point x="695" y="375" type="qcurve"/>
      <point x="695" y="200"/>
      <point x="616" y="95" type="qcurve"/>
      <point x="529" y="-18"/>
      <point x="366" y="-18" type="qcurve"/>
      <point x="259" y="-18"/>
      <point x="120" y="75"/>
      <point x="53" y="235"/>
      <point x="53" y="404"/>
      <point x="86" y="521"/>
    </contour>
    <contour>
      <point x="338" y="785"/>
      <point x="313" y="759"/>
      <point x="271" y="759"/>
      <point x="237" y="800"/>
      <point x="237" y="842"/>
      <point x="261" y="868"/>
      <point x="303" y="868"/>
      <point x="338" y="829"/>
    </contour>
    <contour>
      <point x="521" y="785"/>
      <point x="496" y="759"/>
      <point x="454" y="759"/>
      <point x="420" y="800"/>
      <point x="420" y="842"/>
      <point x="444" y="868"/>
      <point x="486" y="868"/>
      <point x="521" y="829"/>
    </contour>
  </outline>
</glyph>
<glyph name="multiply" format="2">
  <advance height="1000" width="600"/>
  <unicode hex="00D7"/>
  <outline>
    <contour>
      <point x="302" y="204" type="line"/>
      <point x="109" y="7" type="line"/>
      <point x="105" y="3"/>
      <point x="89" y="3"/>
      <point x="63" y="36"/>
      <point x="63" y="61"/>
      <point x="70" y="65" type="qcurve"/>
      <point x="118" y="107"/>
      <point x="128" y="117" type="qcurve"/>
      <point x="258" y="248" type="line"/>
      <point x="129" y="378" type="line"/>
      <point x="99" y="408"/>
      <point x="69" y="434" type="qcurve"/>
      <point x="63" y="439"/>
      <point x="63" y="465"/>
      <point x="84" y="496"/>
      <point x="103" y="496"/>
      <point x="118" y="480"/>
      <point x="154" y="443"/>
      <point x="170" y="426" type="qcurve"/>
      <point x="302" y="293" type="line"/>
      <point x="428" y="418" type="line"/>
      <point x="484" y="478"/>
      <point x="498" y="488"/>
      <point x="501" y="488" type="qcurve"/>
      <point x="514" y="488"/>
      <point x="535" y="457"/>
      <point x="535" y="432"/>
      <point x="518" y="416"/>
      <point x="482" y="383"/>
      <point x="469" y="370" type="qcurve"/>
      <point x="347" y="249" type="line"/>
      <point x="470" y="126" type="line"/>
      <point x="487" y="109"/>
      <point x="527" y="74" type="qcurve"/>
      <point x="534" y="68"/>
      <point x="534" y="43"/>
      <point x="511" y="11"/>
      <point x="494" y="11"/>
      <point x="489" y="16" type="qcurve"/>
      <point x="440" y="68"/>
      <point x="430" y="77" type="qcurve"/>
    </contour>
  </outline>
</glyph>
<glyph name="Oslash" format="2">
  <advance height="1000" width="745"/>
  <unicode hex="00D8"/>
  <outline>
    <contour>
      <point x="211" y="97" type="line"/>
      <point x="268" y="46"/>
      <point x="350" y="46" type="qcurve"/>
      <point x="498" y="46"/>
      <point x="565" y="145" type="qcurve"/>
      <point x="625" y="234"/>
      <point x="625" y="371" type="qcurve"/>
      <point x="625" y="472"/>
      <point x="580" y="544" type="qcurve"/>
    </contour>
    <contour>
      <point x="541" y="596" type="line"/>
      <point x="482" y="653"/>
      <point x="399" y="653" type="qcurve"/>
      <point x="356" y="653"/>
      <point x="259" y="613"/>
      <point x="175" y="534"/>
      <point x="122" y="416"/>
      <point x="122" y="350" type="qcurve"/>
      <point x="122" y="221"/>
      <point x="169" y="147" type="qcurve"/>
    </contour>
    <contour>
      <point x="366" y="-18" type="qcurve"/>
      <point x="247" y="-18"/>
      <point x="168" y="44" type="qcurve"/>
      <point x="150" y="23"/>
      <point x="122" y="-16"/>
      <point x="108" y="-35"/>
      <point x="96" y="-35"/>
      <point x="86" y="-26" type="qcurve"/>
      <point x="61" y="-5"/>
      <point x="61" y="15" type="qcurve"/>
      <point x="61" y="22"/>
      <point x="86" y="47"/>
      <point x="123" y="91" type="qcurve"/>
      <point x="53" y="185"/>
      <point x="53" y="337" type="qcurve"/>
      <point x="53" y="460"/>
      <point x="110" y="565" type="qcurve"/>
      <point x="134" y="609"/>
      <point x="182" y="658"/>
      <point x="213" y="658"/>
      <point x="223" y="646" type="qcurve"/>
      <point x="299" y="713"/>
      <point x="513" y="713"/>
      <point x="584" y="648" type="qcurve"/>
      <point x="602" y="670"/>
      <point x="630" y="711"/>
      <point x="644" y="730"/>
      <point x="660" y="730"/>
      <point x="690" y="696"/>
      <point x="690" y="673"/>
      <point x="671" y="652"/>
      <point x="627" y="601" type="qcurve"/>
      <point x="695" y="507"/>
      <point x="695" y="199"/>
      <point x="529" y="-18"/>
    </contour>
  </outline>
</glyph>
<glyph name="Ugrave" format="2">
  <advance height="1000" width="710"/>
  <unicode hex="00D9"/>
  <outline>
    <contour>
      <point x="180" y="680" type="qcurve"/>
      <point x="178" y="584" type="line"/>
      <point x="178" y="210" type="line"/>
      <point x="178" y="119"/>
      <point x="263" y="45"/>
      <point x="342" y="45" type="qcurve"/>
      <point x="398" y="45"/>
      <point x="484" y="96"/>
      <point x="533" y="185"/>
      <point x="533" y="242" type="qcurve"/>
      <point x="533" y="595" type="line"/>
      <point x="530" y="697" type="line"/>
      <point x="530" y="709"/>
      <point x="572" y="709"/>
      <point x="607" y="695"/>
      <point x="607" y="682" type="qcurve"/>
      <point x="605" y="594" type="line"/>
      <point x="605" y="230" type="line"/>
      <point x="605" y="156"/>
      <point x="539" y="44"/>
      <point x="421" y="-18"/>
      <point x="342" y="-18" type="qcurve"/>
      <point x="106" y="-18"/>
      <point x="106" y="198" type="qcurve"/>
      <point x="106" y="586" type="line"/>
      <point x="103" y="695" type="line"/>
      <point x="103" y="707"/>
      <point x="145" y="707"/>
      <point x="180" y="693"/>
    </contour>
    <contour>
      <point x="460" y="758" type="qcurve"/>
      <point x="460" y="741"/>
      <point x="443" y="741" type="qcurve"/>
      <point x="438" y="741"/>
      <point x="398" y="764"/>
      <point x="302" y="798"/>
      <point x="252" y="816" type="qcurve"/>
      <point x="245" y="819"/>
      <point x="245" y="836"/>
      <point x="267" y="861"/>
      <point x="295" y="880"/>
      <point x="308" y="880"/>
      <point x="310" y="879" type="qcurve"/>
      <point x="460" y="780"/>
    </contour>
  </outline>
</glyph>
<glyph name="Uacute" format="2">
  <advance height="1000" width="710"/>
  <unicode hex="00DA"/>
  <outline>
    <contour>
      <point x="180" y="680" type="qcurve"/>
      <point x="178" y="584" type="line"/>
      <point x="178" y="210" type="line"/>
      <point x="178" y="119"/>
      <point x="263" y="45"/>
      <point x="342" y="45" type="qcurve"/>
      <point x="398" y="45"/>
      <point x="484" y="96"/>
      <point x="533" y="185"/>
      <point x="533" y="242" type="qcurve"/>
      <point x="533" y="595" type="line"/>
      <point x="530" y="697" type="line"/>
      <point x="530" y="709"/>
      <point x="572" y="709"/>
      <point x="607" y="695"/>
      <point x="607" y="682" type="qcurve"/>
      <point x="605" y="594" type="line"/>
      <point x="605" y="230" type="line"/>
      <point x="605" y="156"/>
      <point x="539" y="44"/>
      <point x="421" y="-18"/>
      <point x="342" y="-18" type="qcurve"/>
      <point x="106" y="-18"/>
      <point x="106" y="198" type="qcurve"/>
      <point x="106" y="586" type="line"/>
      <point x="103" y="695" type="line"/>
      <point x="103" y="707"/>
      <point x="145" y="707"/>
      <point x="180" y="693"/>
    </contour>
    <contour>
      <point x="470" y="816" type="qcurve"/>
      <point x="421" y="798"/>
      <point x="324" y="764"/>
      <point x="284" y="741"/>
      <point x="272" y="741"/>
      <point x="262" y="751"/>
      <point x="262" y="758" type="qcurve"/>
      <point x="262" y="779"/>
      <point x="412" y="879" type="qcurve"/>
      <point x="414" y="880"/>
      <point x="428" y="880"/>
      <point x="442" y="870" type="qcurve"/>
      <point x="477" y="846"/>
      <point x="477" y="826" type="qcurve"/>
      <point x="477" y="819"/>
    </contour>
  </outline>
</glyph>
<glyph name="Ucircumflex" format="2">
  <advance height="1000" width="710"/>
  <unicode hex="00DB"/>
  <outline>
    <contour>
      <point x="180" y="680" type="qcurve"/>
      <point x="178" y="584" type="line"/>
      <point x="178" y="210" type="line"/>
      <point x="178" y="119"/>
      <point x="263" y="45"/>
      <point x="342" y="45" type="qcurve"/>
      <point x="398" y="45"/>
      <point x="484" y="96"/>
      <point x="533" y="185"/>
      <point x="533" y="242" type="qcurve"/>
      <point x="533" y="595" type="line"/>
      <point x="530" y="697" type="line"/>
      <point x="530" y="709"/>
      <point x="572" y="709"/>
      <point x="607" y="695"/>
      <point x="607" y="682" type="qcurve"/>
      <point x="605" y="594" type="line"/>
      <point x="605" y="230" type="line"/>
      <point x="605" y="156"/>
      <point x="539" y="44"/>
      <point x="421" y="-18"/>
      <point x="342" y="-18" type="qcurve"/>
      <point x="106" y="-18"/>
      <point x="106" y="198" type="qcurve"/>
      <point x="106" y="586" type="line"/>
      <point x="103" y="695" type="line"/>
      <point x="103" y="707"/>
      <point x="145" y="707"/>
      <point x="180" y="693"/>
    </contour>
    <contour>
      <point x="367" y="824" type="qcurve"/>
      <point x="266" y="760"/>
      <point x="233" y="732"/>
      <point x="225" y="732" type="qcurve"/>
      <point x="207" y="732"/>
      <point x="207" y="763"/>
      <point x="288" y="845" type="qcurve"/>
      <point x="308" y="866"/>
      <point x="331" y="888"/>
      <point x="352" y="892"/>
      <point x="396" y="892"/>
      <point x="420" y="868"/>
      <point x="440" y="849" type="qcurve"/>
      <point x="526" y="765"/>
      <point x="526" y="732"/>
      <point x="508" y="732" type="qcurve"/>
      <point x="500" y="732"/>
      <point x="465" y="763"/>
    </contour>
  </outline>
</glyph>
<glyph name="Udieresis" format="2">
  <advance height="1000" width="710"/>
  <unicode hex="00DC"/>
  <outline>
    <contour>
      <point x="180" y="680" type="qcurve"/>
      <point x="178" y="584" type="line"/>
      <point x="178" y="210" type="line"/>
      <point x="178" y="119"/>
      <point x="263" y="45"/>
      <point x="342" y="45" type="qcurve"/>
      <point x="398" y="45"/>
      <point x="484" y="96"/>
      <point x="533" y="185"/>
      <point x="533" y="242" type="qcurve"/>
      <point x="533" y="595" type="line"/>
      <point x="530" y="697" type="line"/>
      <point x="530" y="709"/>
      <point x="572" y="709"/>
      <point x="607" y="695"/>
      <point x="607" y="682" type="qcurve"/>
      <point x="605" y="594" type="line"/>
      <point x="605" y="230" type="line"/>
      <point x="605" y="156"/>
      <point x="539" y="44"/>
      <point x="421" y="-18"/>
      <point x="342" y="-18" type="qcurve"/>
      <point x="106" y="-18"/>
      <point x="106" y="198" type="qcurve"/>
      <point x="106" y="586" type="line"/>
      <point x="103" y="695" type="line"/>
      <point x="103" y="707"/>
      <point x="145" y="707"/>
      <point x="180" y="693"/>
    </contour>
    <contour>
      <point x="320" y="785"/>
      <point x="295" y="759"/>
      <point x="253" y="759"/>
      <point x="219" y="800"/>
      <point x="219" y="842"/>
      <point x="243" y="868"/>
      <point x="285" y="868"/>
      <point x="320" y="829"/>
    </contour>
    <contour>
      <point x="503" y="785"/>
      <point x="478" y="759"/>
      <point x="436" y="759"/>
      <point x="402" y="800"/>
      <point x="402" y="842"/>
      <point x="426" y="868"/>
      <point x="468" y="868"/>
      <point x="503" y="829"/>
    </contour>
  </outline>
</glyph>
